<ttFont>
<head>
    <!-- Most of this table will be recalculated by the compiler -->
    <tableVersion value="1.0"/>
    <fontRevision value="1.05199"/>
    <checkSumAdjustment value="0xcd44a20e"/>
    <magicNumber value="0x5f0f3cf5"/>
    <flags value="00000000 00000011"/>
    <unitsPerEm value="1000"/>
    <created value="Sat Apr  9 14:31:12 2016"/>
    <modified value="Tue Jul 26 14:47:35 2016"/>
    <xMin value="-199"/>
    <yMin value="-337"/>
    <xMax value="1204"/>
    <yMax value="930"/>
    <macStyle value="00000000 00000000"/>
    <lowestRecPPEM value="7"/>
    <fontDirectionHint value="2"/>
    <indexToLocFormat value="0"/>
    <glyphDataFormat value="0"/>
  </head>
    <TTGlyph name=".notdef" xMin="50" yMin="0" xMax="450" yMax="660">
      <contour>
        <pt x="50" y="660" on="1"/>
        <pt x="450" y="660" on="1"/>
        <pt x="450" y="0" on="1"/>
        <pt x="50" y="0" on="1"/>
      </contour>
      <contour>
        <pt x="370" y="80" on="1"/>
        <pt x="370" y="580" on="1"/>
        <pt x="130" y="580" on="1"/>
        <pt x="130" y="80" on="1"/>
      </contour>
    </TTGlyph>
    <TTGlyph name="A" xMin="26" yMin="0" xMax="634" yMax="660">
      <contour>
        <pt x="479" y="183" on="1"/>
        <pt x="180" y="183" on="1"/>
        <pt x="110" y="0" on="1"/>
        <pt x="26" y="0" on="1"/>
        <pt x="283" y="660" on="1"/>
        <pt x="378" y="660" on="1"/>
        <pt x="634" y="0" on="1"/>
        <pt x="549" y="0" on="1"/>
      </contour>
      <contour>
        <pt x="450" y="258" on="1"/>
        <pt x="361" y="492" on="1"/>
        <pt x="330" y="584" on="1"/>
        <pt x="328" y="584" on="1"/>
        <pt x="299" y="495" on="1"/>
        <pt x="209" y="258" on="1"/>
      </contour>
    </TTGlyph>
    <TTGlyph name="A.swsh" xMin="0" yMin="-110" xMax="879" yMax="660">
      <contour>
        <pt x="724" y="183" on="1"/>
        <pt x="425" y="183" on="1"/>
        <pt x="371" y="42" on="1"/>
        <pt x="343" y="-35" on="0"/>
        <pt x="248" y="-110" on="0"/>
        <pt x="173" y="-110" on="1"/>
        <pt x="95" y="-110" on="0"/>
        <pt x="5" y="-40" on="0"/>
        <pt x="0" y="22" on="1"/>
        <pt x="58" y="65" on="1"/>
        <pt x="67" y="4" on="0"/>
        <pt x="120" y="-40" on="0"/>
        <pt x="172" y="-40" on="1"/>
        <pt x="207" y="-40" on="0"/>
        <pt x="251" y="-17" on="0"/>
        <pt x="286" y="39" on="0"/>
        <pt x="308" y="95" on="1"/>
        <pt x="503" y="595" on="1"/>
        <pt x="365" y="595" on="1"/>
        <pt x="297" y="595" on="0"/>
        <pt x="219" y="537" on="0"/>
        <pt x="219" y="480" on="1"/>
        <pt x="219" y="435" on="0"/>
        <pt x="280" y="374" on="0"/>
        <pt x="329" y="366" on="1"/>
        <pt x="298" y="302" on="1"/>
        <pt x="231" y="312" on="0"/>
        <pt x="139" y="410" on="0"/>
        <pt x="139" y="481" on="1"/>
        <pt x="139" y="564" on="0"/>
        <pt x="252" y="660" on="0"/>
        <pt x="348" y="660" on="1"/>
        <pt x="623" y="660" on="1"/>
        <pt x="879" y="0" on="1"/>
        <pt x="794" y="0" on="1"/>
      </contour>
      <contour>
        <pt x="695" y="258" on="1"/>
        <pt x="606" y="492" on="1"/>
        <pt x="575" y="584" on="1"/>
        <pt x="573" y="584" on="1"/>
        <pt x="544" y="495" on="1"/>
        <pt x="453" y="258" on="1"/>
      </contour>
    </TTGlyph>
    <TTGlyph name="AE" xMin="6" yMin="0" xMax="902" yMax="660">
      <contour>
        <pt x="902" y="75" on="1"/>
        <pt x="902" y="0" on="1"/>
        <pt x="451" y="0" on="1"/>
        <pt x="451" y="213" on="1"/>
        <pt x="215" y="213" on="1"/>
        <pt x="92" y="0" on="1"/>
        <pt x="6" y="0" on="1"/>
        <pt x="392" y="660" on="1"/>
        <pt x="887" y="660" on="1"/>
        <pt x="887" y="585" on="1"/>
        <pt x="531" y="585" on="1"/>
        <pt x="531" y="372" on="1"/>
        <pt x="802" y="372" on="1"/>
        <pt x="802" y="297" on="1"/>
        <pt x="531" y="297" on="1"/>
        <pt x="531" y="75" on="1"/>
      </contour>
      <contour>
        <pt x="451" y="288" on="1"/>
        <pt x="451" y="585" on="1"/>
        <pt x="431" y="585" on="1"/>
        <pt x="259" y="288" on="1"/>
      </contour>
    </TTGlyph>
    <TTGlyph name="Aacute" xMin="26" yMin="0" xMax="634" yMax="902">
      <component glyphName="A" x="0" y="0" flags="0x0"/>
      <component glyphName="acutecomb.cap" x="330" y="0" flags="0x0"/>
    </TTGlyph>
    <TTGlyph name="Aacute.swsh" xMin="0" yMin="-110" xMax="879" yMax="902">
      <component glyphName="A.swsh" x="0" y="0" flags="0x0"/>
      <component glyphName="acutecomb.cap" x="575" y="0" flags="0x0"/>
    </TTGlyph>
    <TTGlyph name="Abreve" xMin="26" yMin="0" xMax="634" yMax="885">
      <component glyphName="A" x="0" y="0" flags="0x0"/>
      <component glyphName="breve" x="80" y="160" flags="0x4"/>
    </TTGlyph>
    <TTGlyph name="Abreve.swsh" xMin="0" yMin="-110" xMax="879" yMax="885">
      <component glyphName="A.swsh" x="0" y="0" flags="0x0"/>
      <component glyphName="breve" x="325" y="160" flags="0x4"/>
    </TTGlyph>
    <TTGlyph name="Acircumflex" xMin="26" yMin="0" xMax="634" yMax="898">
      <component glyphName="A" x="0" y="0" flags="0x0"/>
      <component glyphName="uni0302.cap" x="330" y="0" flags="0x0"/>
    </TTGlyph>
    <TTGlyph name="Acircumflex.swsh" xMin="0" yMin="-110" xMax="879" yMax="898">
      <component glyphName="A.swsh" x="0" y="0" flags="0x0"/>
      <component glyphName="uni0302.cap" x="575" y="0" flags="0x0"/>
    </TTGlyph>
    <TTGlyph name="Adieresis" xMin="26" yMin="0" xMax="634" yMax="856">
      <component glyphName="A" x="0" y="0" flags="0x0"/>
      <component glyphName="dieresis" x="77" y="160" flags="0x4"/>
    </TTGlyph>
    <TTGlyph name="Adieresis.swsh" xMin="0" yMin="-110" xMax="879" yMax="856">
      <component glyphName="A.swsh" x="0" y="0" flags="0x0"/>
      <component glyphName="dieresis" x="322" y="160" flags="0x4"/>
    </TTGlyph>
    <TTGlyph name="Adieresis.titl" xMin="26" yMin="0" xMax="634" yMax="662">
      <contour>
        <pt x="149" y="553" on="0"/>
        <pt x="119" y="583" on="0"/>
        <pt x="119" y="608" on="1"/>
        <pt x="119" y="632" on="0"/>
        <pt x="149" y="662" on="0"/>
        <pt x="173" y="662" on="1"/>
        <pt x="198" y="662" on="0"/>
        <pt x="228" y="632" on="0"/>
        <pt x="228" y="608" on="1"/>
        <pt x="228" y="583" on="0"/>
        <pt x="198" y="553" on="0"/>
        <pt x="173" y="553" on="1"/>
      </contour>
      <contour>
        <pt x="463" y="553" on="0"/>
        <pt x="433" y="583" on="0"/>
        <pt x="433" y="608" on="1"/>
        <pt x="433" y="632" on="0"/>
        <pt x="463" y="662" on="0"/>
        <pt x="488" y="662" on="1"/>
        <pt x="512" y="662" on="0"/>
        <pt x="542" y="632" on="0"/>
        <pt x="542" y="608" on="1"/>
        <pt x="542" y="583" on="0"/>
        <pt x="512" y="553" on="0"/>
        <pt x="488" y="553" on="1"/>
      </contour>
      <contour>
        <pt x="479" y="183" on="1"/>
        <pt x="180" y="183" on="1"/>
        <pt x="110" y="0" on="1"/>
        <pt x="26" y="0" on="1"/>
        <pt x="283" y="660" on="1"/>
        <pt x="378" y="660" on="1"/>
        <pt x="634" y="0" on="1"/>
        <pt x="549" y="0" on="1"/>
      </contour>
      <contour>
        <pt x="450" y="258" on="1"/>
        <pt x="361" y="492" on="1"/>
        <pt x="330" y="584" on="1"/>
        <pt x="328" y="584" on="1"/>
        <pt x="299" y="495" on="1"/>
        <pt x="209" y="258" on="1"/>
      </contour>
    </TTGlyph>
    <TTGlyph name="Agrave" xMin="26" yMin="0" xMax="634" yMax="902">
      <component glyphName="A" x="0" y="0" flags="0x0"/>
      <component glyphName="gravecomb.cap" x="325" y="0" flags="0x0"/>
    </TTGlyph>
    <TTGlyph name="Agrave.swsh" xMin="0" yMin="-110" xMax="879" yMax="902">
      <component glyphName="A.swsh" x="0" y="0" flags="0x0"/>
      <component glyphName="gravecomb.cap" x="565" y="0" flags="0x0"/>
    </TTGlyph>
    <TTGlyph name="Amacron" xMin="26" yMin="0" xMax="634" yMax="823">
      <component glyphName="A" x="0" y="0" flags="0x0"/>
      <component glyphName="macron" x="80" y="160" flags="0x4"/>
    </TTGlyph>
    <TTGlyph name="Amacron.swsh" xMin="0" yMin="-110" xMax="879" yMax="823">
      <component glyphName="A.swsh" x="0" y="0" flags="0x0"/>
      <component glyphName="macron" x="325" y="160" flags="0x4"/>
    </TTGlyph>
    <TTGlyph name="Aogonek" xMin="26" yMin="-215" xMax="646" yMax="660">
      <contour>
        <pt x="646" y="-196" on="1"/>
        <pt x="632" y="-205" on="0"/>
        <pt x="587" y="-215" on="0"/>
        <pt x="564" y="-215" on="1"/>
        <pt x="509" y="-215" on="0"/>
        <pt x="445" y="-160" on="0"/>
        <pt x="445" y="-111" on="1"/>
        <pt x="445" y="-28" on="0"/>
        <pt x="543" y="14" on="1"/>
        <pt x="479" y="183" on="1"/>
        <pt x="180" y="183" on="1"/>
        <pt x="110" y="0" on="1"/>
        <pt x="26" y="0" on="1"/>
        <pt x="283" y="660" on="1"/>
        <pt x="378" y="660" on="1"/>
        <pt x="634" y="0" on="1"/>
        <pt x="563" y="-23" on="0"/>
        <pt x="510" y="-74" on="0"/>
        <pt x="510" y="-106" on="1"/>
        <pt x="510" y="-131" on="0"/>
        <pt x="544" y="-158" on="0"/>
        <pt x="574" y="-158" on="1"/>
        <pt x="611" y="-158" on="0"/>
        <pt x="630" y="-145" on="1"/>
      </contour>
      <contour>
        <pt x="450" y="258" on="1"/>
        <pt x="361" y="492" on="1"/>
        <pt x="330" y="584" on="1"/>
        <pt x="328" y="584" on="1"/>
        <pt x="299" y="495" on="1"/>
        <pt x="209" y="258" on="1"/>
      </contour>
    </TTGlyph>
    <TTGlyph name="Aogonek.swsh" xMin="0" yMin="-215" xMax="891" yMax="660">
      <contour>
        <pt x="891" y="-196" on="1"/>
        <pt x="877" y="-205" on="0"/>
        <pt x="832" y="-215" on="0"/>
        <pt x="809" y="-215" on="1"/>
        <pt x="754" y="-215" on="0"/>
        <pt x="690" y="-160" on="0"/>
        <pt x="690" y="-111" on="1"/>
        <pt x="690" y="-28" on="0"/>
        <pt x="788" y="14" on="1"/>
        <pt x="724" y="183" on="1"/>
        <pt x="425" y="183" on="1"/>
        <pt x="371" y="42" on="1"/>
        <pt x="343" y="-35" on="0"/>
        <pt x="248" y="-110" on="0"/>
        <pt x="173" y="-110" on="1"/>
        <pt x="95" y="-110" on="0"/>
        <pt x="5" y="-40" on="0"/>
        <pt x="0" y="22" on="1"/>
        <pt x="58" y="65" on="1"/>
        <pt x="67" y="4" on="0"/>
        <pt x="120" y="-40" on="0"/>
        <pt x="172" y="-40" on="1"/>
        <pt x="207" y="-40" on="0"/>
        <pt x="251" y="-17" on="0"/>
        <pt x="286" y="39" on="0"/>
        <pt x="308" y="95" on="1"/>
        <pt x="503" y="595" on="1"/>
        <pt x="365" y="595" on="1"/>
        <pt x="297" y="595" on="0"/>
        <pt x="219" y="537" on="0"/>
        <pt x="219" y="480" on="1"/>
        <pt x="219" y="435" on="0"/>
        <pt x="280" y="374" on="0"/>
        <pt x="329" y="366" on="1"/>
        <pt x="298" y="302" on="1"/>
        <pt x="231" y="312" on="0"/>
        <pt x="139" y="410" on="0"/>
        <pt x="139" y="481" on="1"/>
        <pt x="139" y="564" on="0"/>
        <pt x="252" y="660" on="0"/>
        <pt x="348" y="660" on="1"/>
        <pt x="623" y="660" on="1"/>
        <pt x="879" y="0" on="1"/>
        <pt x="808" y="-23" on="0"/>
        <pt x="755" y="-74" on="0"/>
        <pt x="755" y="-106" on="1"/>
        <pt x="755" y="-131" on="0"/>
        <pt x="789" y="-158" on="0"/>
        <pt x="819" y="-158" on="1"/>
        <pt x="856" y="-158" on="0"/>
        <pt x="875" y="-145" on="1"/>
      </contour>
      <contour>
        <pt x="695" y="258" on="1"/>
        <pt x="606" y="492" on="1"/>
        <pt x="575" y="584" on="1"/>
        <pt x="573" y="584" on="1"/>
        <pt x="544" y="495" on="1"/>
        <pt x="453" y="258" on="1"/>
      </contour>
    </TTGlyph>
    <TTGlyph name="Aring" xMin="26" yMin="0" xMax="634" yMax="852">
      <contour>
        <pt x="479" y="183" on="1"/>
        <pt x="180" y="183" on="1"/>
        <pt x="110" y="0" on="1"/>
        <pt x="26" y="0" on="1"/>
        <pt x="270" y="627" on="1"/>
        <pt x="239" y="641" on="0"/>
        <pt x="205" y="697" on="0"/>
        <pt x="205" y="734" on="1"/>
        <pt x="205" y="787" on="0"/>
        <pt x="275" y="852" on="0"/>
        <pt x="331" y="852" on="1"/>
        <pt x="387" y="852" on="0"/>
        <pt x="456" y="787" on="0"/>
        <pt x="456" y="734" on="1"/>
        <pt x="456" y="697" on="0"/>
        <pt x="422" y="641" on="0"/>
        <pt x="391" y="627" on="1"/>
        <pt x="634" y="0" on="1"/>
        <pt x="549" y="0" on="1"/>
      </contour>
      <contour>
        <pt x="299" y="803" on="0"/>
        <pt x="259" y="764" on="0"/>
        <pt x="259" y="734" on="1"/>
        <pt x="259" y="704" on="0"/>
        <pt x="299" y="665" on="0"/>
        <pt x="330" y="665" on="1"/>
        <pt x="361" y="665" on="0"/>
        <pt x="401" y="704" on="0"/>
        <pt x="401" y="734" on="1"/>
        <pt x="401" y="764" on="0"/>
        <pt x="361" y="803" on="0"/>
        <pt x="330" y="803" on="1"/>
      </contour>
      <contour>
        <pt x="450" y="258" on="1"/>
        <pt x="361" y="492" on="1"/>
        <pt x="330" y="584" on="1"/>
        <pt x="328" y="584" on="1"/>
        <pt x="299" y="495" on="1"/>
        <pt x="209" y="258" on="1"/>
      </contour>
    </TTGlyph>
    <TTGlyph name="Atilde" xMin="26" yMin="0" xMax="634" yMax="877">
      <component glyphName="A" x="0" y="0" flags="0x0"/>
      <component glyphName="tilde" x="79" y="160" flags="0x4"/>
    </TTGlyph>
    <TTGlyph name="Atilde.swsh" xMin="0" yMin="-110" xMax="879" yMax="877">
      <component glyphName="A.swsh" x="0" y="0" flags="0x0"/>
      <component glyphName="tilde" x="324" y="160" flags="0x4"/>
    </TTGlyph>
    <TTGlyph name="B" xMin="108" yMin="0" xMax="585" yMax="660">
      <contour>
        <pt x="108" y="660" on="1"/>
        <pt x="343" y="660" on="1"/>
        <pt x="457" y="660" on="0"/>
        <pt x="568" y="565" on="0"/>
        <pt x="568" y="478" on="1"/>
        <pt x="568" y="426" on="0"/>
        <pt x="509" y="346" on="0"/>
        <pt x="457" y="336" on="1"/>
        <pt x="457" y="335" on="1"/>
        <pt x="515" y="324" on="0"/>
        <pt x="585" y="240" on="0"/>
        <pt x="585" y="185" on="1"/>
        <pt x="585" y="100" on="0"/>
        <pt x="457" y="0" on="0"/>
        <pt x="342" y="0" on="1"/>
        <pt x="108" y="0" on="1"/>
      </contour>
      <contour>
        <pt x="344" y="370" on="1"/>
        <pt x="415" y="370" on="0"/>
        <pt x="484" y="423" on="0"/>
        <pt x="484" y="478" on="1"/>
        <pt x="484" y="585" on="0"/>
        <pt x="344" y="585" on="1"/>
        <pt x="188" y="585" on="1"/>
        <pt x="188" y="370" on="1"/>
      </contour>
      <contour>
        <pt x="361" y="75" on="1"/>
        <pt x="431" y="75" on="0"/>
        <pt x="501" y="132" on="0"/>
        <pt x="501" y="185" on="1"/>
        <pt x="501" y="238" on="0"/>
        <pt x="431" y="295" on="0"/>
        <pt x="361" y="295" on="1"/>
        <pt x="188" y="295" on="1"/>
        <pt x="188" y="75" on="1"/>
      </contour>
    </TTGlyph>
    <TTGlyph name="C" xMin="68" yMin="-10" xMax="640" yMax="670">
      <contour>
        <pt x="609" y="85" on="0"/>
        <pt x="467" y="-10" on="0"/>
        <pt x="374" y="-10" on="1"/>
        <pt x="281" y="-10" on="0"/>
        <pt x="143" y="73" on="0"/>
        <pt x="68" y="226" on="0"/>
        <pt x="68" y="330" on="1"/>
        <pt x="68" y="433" on="0"/>
        <pt x="143" y="587" on="0"/>
        <pt x="281" y="670" on="0"/>
        <pt x="372" y="670" on="1"/>
        <pt x="467" y="670" on="0"/>
        <pt x="596" y="592" on="0"/>
        <pt x="628" y="516" on="1"/>
        <pt x="549" y="479" on="1"/>
        <pt x="527" y="537" on="0"/>
        <pt x="443" y="595" on="0"/>
        <pt x="378" y="595" on="1"/>
        <pt x="310" y="595" on="0"/>
        <pt x="208" y="532" on="0"/>
        <pt x="152" y="412" on="0"/>
        <pt x="152" y="330" on="1"/>
        <pt x="152" y="206" on="0"/>
        <pt x="271" y="65" on="0"/>
        <pt x="374" y="65" on="1"/>
        <pt x="441" y="65" on="0"/>
        <pt x="539" y="133" on="0"/>
        <pt x="560" y="199" on="1"/>
        <pt x="640" y="169" on="1"/>
      </contour>
    </TTGlyph>
    <TTGlyph name="Cacute" xMin="68" yMin="-10" xMax="640" yMax="902">
      <component glyphName="C" x="0" y="0" flags="0x0"/>
      <component glyphName="acutecomb.cap" x="372" y="0" flags="0x0"/>
    </TTGlyph>
    <TTGlyph name="Ccaron" xMin="68" yMin="-10" xMax="640" yMax="902">
      <component glyphName="C" x="0" y="0" flags="0x0"/>
      <component glyphName="uni030C.cap" x="372" y="0" flags="0x0"/>
    </TTGlyph>
    <TTGlyph name="Ccedilla" xMin="68" yMin="-215" xMax="640" yMax="670">
      <contour>
        <pt x="613" y="97" on="0"/>
        <pt x="503" y="7" on="0"/>
        <pt x="429" y="-5" on="1"/>
        <pt x="456" y="-26" on="0"/>
        <pt x="485" y="-80" on="0"/>
        <pt x="485" y="-108" on="1"/>
        <pt x="485" y="-152" on="0"/>
        <pt x="422" y="-215" on="0"/>
        <pt x="369" y="-215" on="1"/>
        <pt x="298" y="-215" on="0"/>
        <pt x="259" y="-180" on="1"/>
        <pt x="289" y="-125" on="1"/>
        <pt x="302" y="-138" on="0"/>
        <pt x="338" y="-155" on="0"/>
        <pt x="358" y="-155" on="1"/>
        <pt x="382" y="-155" on="0"/>
        <pt x="415" y="-123" on="0"/>
        <pt x="415" y="-97" on="1"/>
        <pt x="415" y="-68" on="0"/>
        <pt x="383" y="-29" on="0"/>
        <pt x="341" y="-9" on="1"/>
        <pt x="257" y="-2" on="0"/>
        <pt x="134" y="85" on="0"/>
        <pt x="68" y="233" on="0"/>
        <pt x="68" y="330" on="1"/>
        <pt x="68" y="433" on="0"/>
        <pt x="143" y="587" on="0"/>
        <pt x="281" y="670" on="0"/>
        <pt x="372" y="670" on="1"/>
        <pt x="467" y="670" on="0"/>
        <pt x="596" y="592" on="0"/>
        <pt x="628" y="516" on="1"/>
        <pt x="549" y="479" on="1"/>
        <pt x="527" y="537" on="0"/>
        <pt x="443" y="595" on="0"/>
        <pt x="378" y="595" on="1"/>
        <pt x="310" y="595" on="0"/>
        <pt x="208" y="532" on="0"/>
        <pt x="152" y="412" on="0"/>
        <pt x="152" y="330" on="1"/>
        <pt x="152" y="206" on="0"/>
        <pt x="271" y="65" on="0"/>
        <pt x="374" y="65" on="1"/>
        <pt x="441" y="65" on="0"/>
        <pt x="539" y="133" on="0"/>
        <pt x="560" y="199" on="1"/>
        <pt x="640" y="169" on="1"/>
      </contour>
    </TTGlyph>
    <TTGlyph name="D" xMin="108" yMin="0" xMax="653" yMax="660">
      <contour>
        <pt x="477" y="660" on="0"/>
        <pt x="653" y="488" on="0"/>
        <pt x="653" y="330" on="1"/>
        <pt x="653" y="172" on="0"/>
        <pt x="477" y="0" on="0"/>
        <pt x="321" y="0" on="1"/>
        <pt x="108" y="0" on="1"/>
        <pt x="108" y="660" on="1"/>
        <pt x="321" y="660" on="1"/>
      </contour>
      <contour>
        <pt x="442" y="75" on="0"/>
        <pt x="569" y="210" on="0"/>
        <pt x="569" y="330" on="1"/>
        <pt x="569" y="450" on="0"/>
        <pt x="442" y="585" on="0"/>
        <pt x="329" y="585" on="1"/>
        <pt x="188" y="585" on="1"/>
        <pt x="188" y="75" on="1"/>
        <pt x="329" y="75" on="1"/>
      </contour>
    </TTGlyph>
    <TTGlyph name="Dcaron" xMin="108" yMin="0" xMax="653" yMax="902">
      <component glyphName="D" x="0" y="0" flags="0x0"/>
      <component glyphName="uni030C.cap" x="325" y="0" flags="0x0"/>
    </TTGlyph>
    <TTGlyph name="Dcroat" xMin="26" yMin="0" xMax="669" yMax="660">
      <contour>
        <pt x="493" y="660" on="0"/>
        <pt x="669" y="488" on="0"/>
        <pt x="669" y="330" on="1"/>
        <pt x="669" y="172" on="0"/>
        <pt x="493" y="0" on="0"/>
        <pt x="337" y="0" on="1"/>
        <pt x="124" y="0" on="1"/>
        <pt x="124" y="303" on="1"/>
        <pt x="26" y="303" on="1"/>
        <pt x="26" y="363" on="1"/>
        <pt x="124" y="363" on="1"/>
        <pt x="124" y="660" on="1"/>
        <pt x="337" y="660" on="1"/>
      </contour>
      <contour>
        <pt x="458" y="75" on="0"/>
        <pt x="585" y="210" on="0"/>
        <pt x="585" y="330" on="1"/>
        <pt x="585" y="450" on="0"/>
        <pt x="458" y="585" on="0"/>
        <pt x="345" y="585" on="1"/>
        <pt x="204" y="585" on="1"/>
        <pt x="204" y="363" on="1"/>
        <pt x="401" y="363" on="1"/>
        <pt x="401" y="303" on="1"/>
        <pt x="204" y="303" on="1"/>
        <pt x="204" y="75" on="1"/>
        <pt x="345" y="75" on="1"/>
      </contour>
    </TTGlyph>
    <TTGlyph name="E" xMin="108" yMin="0" xMax="586" yMax="660">
      <contour>
        <pt x="586" y="75" on="1"/>
        <pt x="586" y="0" on="1"/>
        <pt x="108" y="0" on="1"/>
        <pt x="108" y="660" on="1"/>
        <pt x="571" y="660" on="1"/>
        <pt x="571" y="585" on="1"/>
        <pt x="188" y="585" on="1"/>
        <pt x="188" y="372" on="1"/>
        <pt x="486" y="372" on="1"/>
        <pt x="486" y="297" on="1"/>
        <pt x="188" y="297" on="1"/>
        <pt x="188" y="75" on="1"/>
      </contour>
    </TTGlyph>
    <TTGlyph name="E.swsh" xMin="10" yMin="0" xMax="805" yMax="660">
      <contour>
        <pt x="805" y="75" on="1"/>
        <pt x="805" y="0" on="1"/>
        <pt x="327" y="0" on="1"/>
        <pt x="327" y="595" on="1"/>
        <pt x="236" y="595" on="1"/>
        <pt x="168" y="595" on="0"/>
        <pt x="90" y="537" on="0"/>
        <pt x="90" y="480" on="1"/>
        <pt x="90" y="435" on="0"/>
        <pt x="151" y="374" on="0"/>
        <pt x="200" y="366" on="1"/>
        <pt x="169" y="302" on="1"/>
        <pt x="102" y="312" on="0"/>
        <pt x="10" y="410" on="0"/>
        <pt x="10" y="481" on="1"/>
        <pt x="10" y="564" on="0"/>
        <pt x="123" y="660" on="0"/>
        <pt x="219" y="660" on="1"/>
        <pt x="790" y="660" on="1"/>
        <pt x="790" y="585" on="1"/>
        <pt x="407" y="585" on="1"/>
        <pt x="407" y="372" on="1"/>
        <pt x="705" y="372" on="1"/>
        <pt x="705" y="297" on="1"/>
        <pt x="407" y="297" on="1"/>
        <pt x="407" y="75" on="1"/>
      </contour>
    </TTGlyph>
    <TTGlyph name="E.swsh.001" xMin="108" yMin="0" xMax="737" yMax="660">
      <contour>
        <pt x="647" y="336" on="0"/>
        <pt x="703" y="296" on="0"/>
        <pt x="737" y="223" on="0"/>
        <pt x="737" y="175" on="1"/>
        <pt x="737" y="91" on="0"/>
        <pt x="625" y="0" on="0"/>
        <pt x="528" y="0" on="1"/>
        <pt x="108" y="0" on="1"/>
        <pt x="108" y="660" on="1"/>
        <pt x="596" y="660" on="1"/>
        <pt x="596" y="585" on="1"/>
        <pt x="188" y="585" on="1"/>
        <pt x="188" y="363" on="1"/>
        <pt x="406" y="363" on="1"/>
        <pt x="406" y="288" on="1"/>
        <pt x="188" y="288" on="1"/>
        <pt x="188" y="75" on="1"/>
        <pt x="511" y="75" on="1"/>
        <pt x="586" y="75" on="0"/>
        <pt x="657" y="123" on="0"/>
        <pt x="657" y="176" on="1"/>
        <pt x="657" y="222" on="0"/>
        <pt x="616" y="273" on="0"/>
        <pt x="583" y="274" on="1"/>
        <pt x="614" y="338" on="1"/>
      </contour>
    </TTGlyph>
    <TTGlyph name="Eacute" xMin="108" yMin="0" xMax="586" yMax="902">
      <component glyphName="E" x="0" y="0" flags="0x0"/>
      <component glyphName="acutecomb.cap" x="339" y="0" flags="0x0"/>
    </TTGlyph>
    <TTGlyph name="Eacute.swsh" xMin="10" yMin="0" xMax="805" yMax="902">
      <component glyphName="E.swsh" x="0" y="0" flags="0x0"/>
      <component glyphName="acutecomb.cap" x="558" y="0" flags="0x0"/>
    </TTGlyph>
    <TTGlyph name="Eacute.swsh.001" xMin="108" yMin="0" xMax="737" yMax="902">
      <component glyphName="E.swsh.001" x="0" y="0" flags="0x0"/>
      <component glyphName="acutecomb.cap" x="365" y="0" flags="0x0"/>
    </TTGlyph>
    <TTGlyph name="Ecaron" xMin="108" yMin="0" xMax="586" yMax="902">
      <component glyphName="E" x="0" y="0" flags="0x0"/>
      <component glyphName="uni030C.cap" x="339" y="0" flags="0x0"/>
    </TTGlyph>
    <TTGlyph name="Ecaron.swsh" xMin="10" yMin="0" xMax="805" yMax="902">
      <component glyphName="E.swsh" x="0" y="0" flags="0x0"/>
      <component glyphName="uni030C.cap" x="558" y="0" flags="0x0"/>
    </TTGlyph>
    <TTGlyph name="Ecaron.swsh.001" xMin="108" yMin="0" xMax="737" yMax="902">
      <component glyphName="E.swsh.001" x="0" y="0" flags="0x0"/>
      <component glyphName="uni030C.cap" x="365" y="0" flags="0x0"/>
    </TTGlyph>
    <TTGlyph name="Ecircumflex" xMin="108" yMin="0" xMax="586" yMax="898">
      <component glyphName="E" x="0" y="0" flags="0x0"/>
      <component glyphName="uni0302.cap" x="339" y="0" flags="0x0"/>
    </TTGlyph>
    <TTGlyph name="Ecircumflex.swsh" xMin="10" yMin="0" xMax="805" yMax="898">
      <component glyphName="E.swsh" x="0" y="0" flags="0x0"/>
      <component glyphName="uni0302.cap" x="558" y="0" flags="0x0"/>
    </TTGlyph>
    <TTGlyph name="Ecircumflex.swsh.001" xMin="108" yMin="0" xMax="737" yMax="898">
      <component glyphName="E.swsh.001" x="0" y="0" flags="0x0"/>
      <component glyphName="uni0302.cap" x="365" y="0" flags="0x0"/>
    </TTGlyph>
    <TTGlyph name="Edieresis" xMin="108" yMin="0" xMax="586" yMax="856">
      <component glyphName="E" x="0" y="0" flags="0x0"/>
      <component glyphName="dieresis" x="86" y="160" flags="0x4"/>
    </TTGlyph>
    <TTGlyph name="Edieresis.swsh" xMin="10" yMin="0" xMax="805" yMax="856">
      <component glyphName="E.swsh" x="0" y="0" flags="0x0"/>
      <component glyphName="dieresis" x="305" y="160" flags="0x4"/>
    </TTGlyph>
    <TTGlyph name="Edieresis.swsh.001" xMin="108" yMin="0" xMax="737" yMax="856">
      <component glyphName="E.swsh.001" x="0" y="0" flags="0x0"/>
      <component glyphName="dieresis" x="112" y="160" flags="0x4"/>
    </TTGlyph>
    <TTGlyph name="Edotaccent" xMin="108" yMin="0" xMax="586" yMax="876">
      <component glyphName="E" x="0" y="0" flags="0x0"/>
      <component glyphName="dotaccent" x="89" y="160" flags="0x4"/>
    </TTGlyph>
    <TTGlyph name="Edotaccent.swsh" xMin="10" yMin="0" xMax="805" yMax="876">
      <component glyphName="E.swsh" x="0" y="0" flags="0x0"/>
      <component glyphName="dotaccent" x="308" y="160" flags="0x4"/>
    </TTGlyph>
    <TTGlyph name="Edotaccent.swsh.001" xMin="108" yMin="0" xMax="737" yMax="876">
      <component glyphName="E.swsh.001" x="0" y="0" flags="0x0"/>
      <component glyphName="dotaccent" x="115" y="160" flags="0x4"/>
    </TTGlyph>
    <TTGlyph name="Egrave" xMin="108" yMin="0" xMax="586" yMax="902">
      <component glyphName="E" x="0" y="0" flags="0x0"/>
      <component glyphName="gravecomb.cap" x="344" y="0" flags="0x0"/>
    </TTGlyph>
    <TTGlyph name="Egrave.swsh" xMin="10" yMin="0" xMax="805" yMax="902">
      <component glyphName="E.swsh" x="0" y="0" flags="0x0"/>
      <component glyphName="gravecomb.cap" x="543" y="0" flags="0x0"/>
    </TTGlyph>
    <TTGlyph name="Egrave.swsh.001" xMin="108" yMin="0" xMax="737" yMax="902">
      <component glyphName="E.swsh.001" x="0" y="0" flags="0x0"/>
      <component glyphName="gravecomb.cap" x="365" y="0" flags="0x0"/>
    </TTGlyph>
    <TTGlyph name="Emacron" xMin="108" yMin="0" xMax="586" yMax="823">
      <component glyphName="E" x="0" y="0" flags="0x0"/>
      <component glyphName="macron" x="89" y="160" flags="0x4"/>
    </TTGlyph>
    <TTGlyph name="Emacron.swsh" xMin="10" yMin="0" xMax="805" yMax="823">
      <component glyphName="E.swsh" x="0" y="0" flags="0x0"/>
      <component glyphName="macron" x="308" y="160" flags="0x4"/>
    </TTGlyph>
    <TTGlyph name="Emacron.swsh.001" xMin="108" yMin="0" xMax="737" yMax="823">
      <component glyphName="E.swsh.001" x="0" y="0" flags="0x0"/>
      <component glyphName="macron" x="115" y="160" flags="0x4"/>
    </TTGlyph>
    <TTGlyph name="Eogonek" xMin="108" yMin="-215" xMax="598" yMax="660">
      <contour>
        <pt x="598" y="-196" on="1"/>
        <pt x="584" y="-205" on="0"/>
        <pt x="539" y="-215" on="0"/>
        <pt x="516" y="-215" on="1"/>
        <pt x="462" y="-215" on="0"/>
        <pt x="397" y="-162" on="0"/>
        <pt x="397" y="-117" on="1"/>
        <pt x="397" y="-75" on="0"/>
        <pt x="440" y="-19" on="0"/>
        <pt x="484" y="0" on="1"/>
        <pt x="108" y="0" on="1"/>
        <pt x="108" y="660" on="1"/>
        <pt x="571" y="660" on="1"/>
        <pt x="571" y="585" on="1"/>
        <pt x="188" y="585" on="1"/>
        <pt x="188" y="372" on="1"/>
        <pt x="486" y="372" on="1"/>
        <pt x="486" y="297" on="1"/>
        <pt x="188" y="297" on="1"/>
        <pt x="188" y="75" on="1"/>
        <pt x="586" y="75" on="1"/>
        <pt x="586" y="0" on="1"/>
        <pt x="515" y="-24" on="0"/>
        <pt x="462" y="-74" on="0"/>
        <pt x="462" y="-106" on="1"/>
        <pt x="462" y="-131" on="0"/>
        <pt x="496" y="-158" on="0"/>
        <pt x="526" y="-158" on="1"/>
        <pt x="563" y="-158" on="0"/>
        <pt x="582" y="-145" on="1"/>
      </contour>
    </TTGlyph>
    <TTGlyph name="Eogonek.swsh" xMin="10" yMin="-215" xMax="817" yMax="660">
      <contour>
        <pt x="817" y="-196" on="1"/>
        <pt x="803" y="-205" on="0"/>
        <pt x="758" y="-215" on="0"/>
        <pt x="735" y="-215" on="1"/>
        <pt x="681" y="-215" on="0"/>
        <pt x="616" y="-162" on="0"/>
        <pt x="616" y="-117" on="1"/>
        <pt x="616" y="-75" on="0"/>
        <pt x="659" y="-19" on="0"/>
        <pt x="703" y="0" on="1"/>
        <pt x="327" y="0" on="1"/>
        <pt x="327" y="595" on="1"/>
        <pt x="236" y="595" on="1"/>
        <pt x="168" y="595" on="0"/>
        <pt x="90" y="537" on="0"/>
        <pt x="90" y="480" on="1"/>
        <pt x="90" y="435" on="0"/>
        <pt x="151" y="374" on="0"/>
        <pt x="200" y="366" on="1"/>
        <pt x="169" y="302" on="1"/>
        <pt x="102" y="312" on="0"/>
        <pt x="10" y="410" on="0"/>
        <pt x="10" y="481" on="1"/>
        <pt x="10" y="564" on="0"/>
        <pt x="123" y="660" on="0"/>
        <pt x="219" y="660" on="1"/>
        <pt x="790" y="660" on="1"/>
        <pt x="790" y="585" on="1"/>
        <pt x="407" y="585" on="1"/>
        <pt x="407" y="372" on="1"/>
        <pt x="705" y="372" on="1"/>
        <pt x="705" y="297" on="1"/>
        <pt x="407" y="297" on="1"/>
        <pt x="407" y="75" on="1"/>
        <pt x="805" y="75" on="1"/>
        <pt x="805" y="0" on="1"/>
        <pt x="734" y="-24" on="0"/>
        <pt x="681" y="-74" on="0"/>
        <pt x="681" y="-106" on="1"/>
        <pt x="681" y="-131" on="0"/>
        <pt x="715" y="-158" on="0"/>
        <pt x="745" y="-158" on="1"/>
        <pt x="782" y="-158" on="0"/>
        <pt x="801" y="-145" on="1"/>
      </contour>
    </TTGlyph>
    <TTGlyph name="Eth" xMin="26" yMin="0" xMax="669" yMax="660">
      <component glyphName="Dcroat" x="0" y="0" flags="0x0"/>
    </TTGlyph>
    <TTGlyph name="Euro" xMin="62" yMin="-10" xMax="660" yMax="670">
      <contour>
        <pt x="660" y="169" on="1"/>
        <pt x="633" y="86" on="0"/>
        <pt x="498" y="-10" on="0"/>
        <pt x="414" y="-10" on="1"/>
        <pt x="310" y="-10" on="0"/>
        <pt x="174" y="108" on="0"/>
        <pt x="150" y="214" on="1"/>
        <pt x="62" y="214" on="1"/>
        <pt x="62" y="279" on="1"/>
        <pt x="140" y="279" on="1"/>
        <pt x="138" y="311" on="0"/>
        <pt x="138" y="330" on="1"/>
        <pt x="138" y="354" on="0"/>
        <pt x="139" y="365" on="1"/>
        <pt x="62" y="365" on="1"/>
        <pt x="62" y="430" on="1"/>
        <pt x="147" y="430" on="1"/>
        <pt x="168" y="544" on="0"/>
        <pt x="306" y="670" on="0"/>
        <pt x="412" y="670" on="1"/>
        <pt x="498" y="670" on="0"/>
        <pt x="621" y="590" on="0"/>
        <pt x="648" y="516" on="1"/>
        <pt x="576" y="482" on="1"/>
        <pt x="559" y="538" on="0"/>
        <pt x="475" y="600" on="0"/>
        <pt x="419" y="600" on="1"/>
        <pt x="349" y="600" on="0"/>
        <pt x="249" y="510" on="0"/>
        <pt x="229" y="430" on="1"/>
        <pt x="467" y="430" on="1"/>
        <pt x="447" y="365" on="1"/>
        <pt x="219" y="365" on="1"/>
        <pt x="218" y="354" on="0"/>
        <pt x="218" y="330" on="1"/>
        <pt x="218" y="303" on="0"/>
        <pt x="221" y="279" on="1"/>
        <pt x="427" y="279" on="1"/>
        <pt x="407" y="214" on="1"/>
        <pt x="233" y="214" on="1"/>
        <pt x="253" y="141" on="0"/>
        <pt x="348" y="60" on="0"/>
        <pt x="415" y="60" on="1"/>
        <pt x="473" y="60" on="0"/>
        <pt x="570" y="132" on="0"/>
        <pt x="587" y="196" on="1"/>
      </contour>
    </TTGlyph>
    <TTGlyph name="Euro.tf" xMin="19" yMin="-10" xMax="588" yMax="670">
      <contour>
        <pt x="588" y="169" on="1"/>
        <pt x="568" y="84" on="0"/>
        <pt x="446" y="-10" on="0"/>
        <pt x="355" y="-10" on="1"/>
        <pt x="258" y="-10" on="0"/>
        <pt x="129" y="108" on="0"/>
        <pt x="106" y="214" on="1"/>
        <pt x="19" y="214" on="1"/>
        <pt x="19" y="279" on="1"/>
        <pt x="97" y="279" on="1"/>
        <pt x="95" y="311" on="0"/>
        <pt x="95" y="330" on="1"/>
        <pt x="95" y="354" on="0"/>
        <pt x="96" y="365" on="1"/>
        <pt x="19" y="365" on="1"/>
        <pt x="19" y="430" on="1"/>
        <pt x="104" y="430" on="1"/>
        <pt x="125" y="543" on="0"/>
        <pt x="258" y="670" on="0"/>
        <pt x="358" y="670" on="1"/>
        <pt x="443" y="670" on="0"/>
        <pt x="556" y="591" on="0"/>
        <pt x="575" y="516" on="1"/>
        <pt x="503" y="482" on="1"/>
        <pt x="494" y="538" on="0"/>
        <pt x="420" y="600" on="0"/>
        <pt x="365" y="600" on="1"/>
        <pt x="301" y="600" on="0"/>
        <pt x="205" y="510" on="0"/>
        <pt x="186" y="430" on="1"/>
        <pt x="414" y="430" on="1"/>
        <pt x="394" y="365" on="1"/>
        <pt x="176" y="365" on="1"/>
        <pt x="175" y="354" on="0"/>
        <pt x="175" y="330" on="1"/>
        <pt x="175" y="311" on="0"/>
        <pt x="177" y="279" on="1"/>
        <pt x="374" y="279" on="1"/>
        <pt x="354" y="214" on="1"/>
        <pt x="189" y="214" on="1"/>
        <pt x="208" y="141" on="0"/>
        <pt x="295" y="60" on="0"/>
        <pt x="356" y="60" on="1"/>
        <pt x="421" y="60" on="0"/>
        <pt x="505" y="130" on="0"/>
        <pt x="515" y="196" on="1"/>
      </contour>
    </TTGlyph>
    <TTGlyph name="F" xMin="108" yMin="0" xMax="570" yMax="660">
      <contour>
        <pt x="188" y="585" on="1"/>
        <pt x="188" y="372" on="1"/>
        <pt x="486" y="372" on="1"/>
        <pt x="486" y="297" on="1"/>
        <pt x="188" y="297" on="1"/>
        <pt x="188" y="0" on="1"/>
        <pt x="108" y="0" on="1"/>
        <pt x="108" y="660" on="1"/>
        <pt x="570" y="660" on="1"/>
        <pt x="570" y="585" on="1"/>
      </contour>
    </TTGlyph>
    <TTGlyph name="F.swsh" xMin="10" yMin="0" xMax="789" yMax="660">
      <contour>
        <pt x="407" y="585" on="1"/>
        <pt x="407" y="372" on="1"/>
        <pt x="705" y="372" on="1"/>
        <pt x="705" y="297" on="1"/>
        <pt x="407" y="297" on="1"/>
        <pt x="407" y="0" on="1"/>
        <pt x="327" y="0" on="1"/>
        <pt x="327" y="595" on="1"/>
        <pt x="236" y="595" on="1"/>
        <pt x="168" y="595" on="0"/>
        <pt x="90" y="537" on="0"/>
        <pt x="90" y="480" on="1"/>
        <pt x="90" y="435" on="0"/>
        <pt x="151" y="374" on="0"/>
        <pt x="200" y="366" on="1"/>
        <pt x="169" y="302" on="1"/>
        <pt x="102" y="312" on="0"/>
        <pt x="10" y="410" on="0"/>
        <pt x="10" y="481" on="1"/>
        <pt x="10" y="564" on="0"/>
        <pt x="123" y="660" on="0"/>
        <pt x="219" y="660" on="1"/>
        <pt x="789" y="660" on="1"/>
        <pt x="789" y="585" on="1"/>
      </contour>
    </TTGlyph>
    <TTGlyph name="G" xMin="68" yMin="-10" xMax="645" yMax="670">
      <contour>
        <pt x="645" y="333" on="1"/>
        <pt x="645" y="0" on="1"/>
        <pt x="585" y="0" on="1"/>
        <pt x="582" y="89" on="1"/>
        <pt x="553" y="41" on="0"/>
        <pt x="448" y="-10" on="0"/>
        <pt x="374" y="-10" on="1"/>
        <pt x="281" y="-10" on="0"/>
        <pt x="143" y="73" on="0"/>
        <pt x="68" y="226" on="0"/>
        <pt x="68" y="330" on="1"/>
        <pt x="68" y="433" on="0"/>
        <pt x="145" y="587" on="0"/>
        <pt x="284" y="670" on="0"/>
        <pt x="376" y="670" on="1"/>
        <pt x="474" y="670" on="0"/>
        <pt x="601" y="596" on="0"/>
        <pt x="640" y="519" on="1"/>
        <pt x="567" y="479" on="1"/>
        <pt x="545" y="535" on="0"/>
        <pt x="446" y="595" on="0"/>
        <pt x="376" y="595" on="1"/>
        <pt x="309" y="595" on="0"/>
        <pt x="208" y="531" on="0"/>
        <pt x="152" y="412" on="0"/>
        <pt x="152" y="330" on="1"/>
        <pt x="152" y="204" on="0"/>
        <pt x="268" y="65" on="0"/>
        <pt x="377" y="65" on="1"/>
        <pt x="463" y="65" on="0"/>
        <pt x="572" y="153" on="0"/>
        <pt x="572" y="235" on="1"/>
        <pt x="572" y="258" on="1"/>
        <pt x="362" y="258" on="1"/>
        <pt x="362" y="333" on="1"/>
      </contour>
    </TTGlyph>
    <TTGlyph name="G.ss04" xMin="68" yMin="-10" xMax="658" yMax="670">
      <contour>
        <pt x="658" y="333" on="1"/>
        <pt x="658" y="272" on="1"/>
        <pt x="658" y="142" on="0"/>
        <pt x="511" y="-10" on="0"/>
        <pt x="374" y="-10" on="1"/>
        <pt x="281" y="-10" on="0"/>
        <pt x="143" y="73" on="0"/>
        <pt x="68" y="226" on="0"/>
        <pt x="68" y="330" on="1"/>
        <pt x="68" y="433" on="0"/>
        <pt x="145" y="587" on="0"/>
        <pt x="284" y="670" on="0"/>
        <pt x="376" y="670" on="1"/>
        <pt x="474" y="670" on="0"/>
        <pt x="601" y="596" on="0"/>
        <pt x="640" y="519" on="1"/>
        <pt x="567" y="479" on="1"/>
        <pt x="545" y="535" on="0"/>
        <pt x="446" y="595" on="0"/>
        <pt x="376" y="595" on="1"/>
        <pt x="309" y="595" on="0"/>
        <pt x="208" y="531" on="0"/>
        <pt x="152" y="412" on="0"/>
        <pt x="152" y="330" on="1"/>
        <pt x="152" y="204" on="0"/>
        <pt x="270" y="65" on="0"/>
        <pt x="380" y="65" on="1"/>
        <pt x="450" y="65" on="0"/>
        <pt x="541" y="121" on="0"/>
        <pt x="582" y="206" on="0"/>
        <pt x="582" y="252" on="1"/>
        <pt x="582" y="258" on="1"/>
        <pt x="362" y="258" on="1"/>
        <pt x="362" y="333" on="1"/>
      </contour>
    </TTGlyph>
    <TTGlyph name="Gbreve" xMin="68" yMin="-10" xMax="645" yMax="885">
      <component glyphName="G" x="0" y="0" flags="0x0"/>
      <component glyphName="breve" x="123" y="160" flags="0x4"/>
    </TTGlyph>
    <TTGlyph name="Gbreve.ss04" xMin="68" yMin="-10" xMax="658" yMax="885">
      <component glyphName="G.ss04" x="0" y="0" flags="0x0"/>
      <component glyphName="breve" x="123" y="160" flags="0x4"/>
    </TTGlyph>
    <TTGlyph name="Gcommaaccent.sc" xMin="60" yMin="-237" xMax="584" yMax="568">
      <component glyphName="g.sc" x="0" y="0" flags="0x0"/>
      <component glyphName="uni0326" x="358" y="0" flags="0x0"/>
    </TTGlyph>
    <TTGlyph name="Gcommaaccent.sc.ss04" xMin="60" yMin="-237" xMax="591" yMax="568">
      <component glyphName="g.sc.ss04" x="0" y="0" flags="0x0"/>
      <component glyphName="uni0326" x="359" y="0" flags="0x0"/>
    </TTGlyph>
    <TTGlyph name="Gcommaaccent.ss04" xMin="68" yMin="-237" xMax="658" yMax="670">
      <component glyphName="G.ss04" x="0" y="0" flags="0x0"/>
      <component glyphName="uni0326" x="405" y="0" flags="0x0"/>
    </TTGlyph>
    <TTGlyph name="H" xMin="108" yMin="0" xMax="626" yMax="660">
      <contour>
        <pt x="626" y="660" on="1"/>
        <pt x="626" y="0" on="1"/>
        <pt x="546" y="0" on="1"/>
        <pt x="546" y="297" on="1"/>
        <pt x="188" y="297" on="1"/>
        <pt x="188" y="0" on="1"/>
        <pt x="108" y="0" on="1"/>
        <pt x="108" y="660" on="1"/>
        <pt x="188" y="660" on="1"/>
        <pt x="188" y="372" on="1"/>
        <pt x="546" y="372" on="1"/>
        <pt x="546" y="660" on="1"/>
      </contour>
    </TTGlyph>
    <TTGlyph name="Hinferior" xMin="55" yMin="-189" xMax="405" yMax="208">
      <component glyphName="Hsuperior" x="0" y="-522" flags="0x4"/>
    </TTGlyph>
    <TTGlyph name="Hsuperior" xMin="55" yMin="333" xMax="405" yMax="730">
      <contour>
        <pt x="405" y="730" on="1"/>
        <pt x="405" y="333" on="1"/>
        <pt x="333" y="333" on="1"/>
        <pt x="333" y="505" on="1"/>
        <pt x="127" y="505" on="1"/>
        <pt x="127" y="333" on="1"/>
        <pt x="55" y="333" on="1"/>
        <pt x="55" y="730" on="1"/>
        <pt x="127" y="730" on="1"/>
        <pt x="127" y="563" on="1"/>
        <pt x="333" y="563" on="1"/>
        <pt x="333" y="730" on="1"/>
      </contour>
    </TTGlyph>
    <TTGlyph name="I" xMin="108" yMin="0" xMax="188" yMax="660">
      <contour>
        <pt x="188" y="0" on="1"/>
        <pt x="108" y="0" on="1"/>
        <pt x="108" y="660" on="1"/>
        <pt x="188" y="660" on="1"/>
      </contour>
    </TTGlyph>
    <TTGlyph name="IJ" xMin="108" yMin="-10" xMax="761" yMax="660">
      <component glyphName="I" x="0" y="0" flags="0x0"/>
      <component glyphName="J" x="296" y="0" flags="0x0"/>
    </TTGlyph>
    <TTGlyph name="IJ.ss05" xMin="108" yMin="-10" xMax="532" yMax="660">
      <contour>
        <pt x="532" y="226" on="1"/>
        <pt x="532" y="116" on="0"/>
        <pt x="414" y="-10" on="0"/>
        <pt x="313" y="-10" on="1"/>
        <pt x="215" y="-10" on="0"/>
        <pt x="110" y="78" on="0"/>
        <pt x="110" y="159" on="1"/>
        <pt x="110" y="169" on="0"/>
        <pt x="112" y="191" on="1"/>
        <pt x="189" y="191" on="1"/>
        <pt x="186" y="176" on="0"/>
        <pt x="186" y="163" on="1"/>
        <pt x="186" y="114" on="0"/>
        <pt x="253" y="65" on="0"/>
        <pt x="313" y="65" on="1"/>
        <pt x="379" y="65" on="0"/>
        <pt x="452" y="158" on="0"/>
        <pt x="452" y="246" on="1"/>
        <pt x="452" y="660" on="1"/>
        <pt x="532" y="660" on="1"/>
      </contour>
      <contour>
        <pt x="188" y="287" on="1"/>
        <pt x="108" y="287" on="1"/>
        <pt x="108" y="660" on="1"/>
        <pt x="188" y="660" on="1"/>
      </contour>
    </TTGlyph>
    <TTGlyph name="Iacute" xMin="108" yMin="0" xMax="265" yMax="902">
      <component glyphName="I" x="0" y="0" flags="0x0"/>
      <component glyphName="acutecomb.cap" x="158" y="0" flags="0x0"/>
    </TTGlyph>
    <TTGlyph name="Iacute_J.loclNLD" xMin="108" yMin="-10" xMax="838" yMax="902">
      <component glyphName="I" x="0" y="0" flags="0x0"/>
      <component glyphName="acutecomb.cap" x="158" y="0" flags="0x0"/>
      <component glyphName="J" x="296" y="0" flags="0x0"/>
      <component glyphName="acutecomb.cap" x="731" y="0" flags="0x0"/>
    </TTGlyph>
    <TTGlyph name="Iacute_J.loclNLD.ss05" xMin="98" yMin="-10" xMax="602" yMax="902">
      <component glyphName="acutecomb.cap" x="495" y="0" flags="0x0"/>
      <component glyphName="acutecomb.cap" x="141" y="0" flags="0x0"/>
      <component glyphName="IJ.ss05" x="-7" y="0" flags="0x0"/>
    </TTGlyph>
    <TTGlyph name="Icircumflex" xMin="-6" yMin="0" xMax="302" yMax="898">
      <component glyphName="I" x="0" y="0" flags="0x0"/>
      <component glyphName="uni0302.cap" x="148" y="0" flags="0x0"/>
    </TTGlyph>
    <TTGlyph name="Idieresis" xMin="5" yMin="0" xMax="291" yMax="856">
      <contour>
        <pt x="88" y="856" on="0"/>
        <pt x="119" y="825" on="0"/>
        <pt x="119" y="799" on="1"/>
        <pt x="119" y="774" on="0"/>
        <pt x="88" y="742" on="0"/>
        <pt x="62" y="742" on="1"/>
        <pt x="37" y="742" on="0"/>
        <pt x="5" y="774" on="0"/>
        <pt x="5" y="799" on="1"/>
        <pt x="5" y="825" on="0"/>
        <pt x="37" y="856" on="0"/>
        <pt x="62" y="856" on="1"/>
      </contour>
      <contour>
        <pt x="260" y="856" on="0"/>
        <pt x="291" y="825" on="0"/>
        <pt x="291" y="799" on="1"/>
        <pt x="291" y="774" on="0"/>
        <pt x="260" y="742" on="0"/>
        <pt x="234" y="742" on="1"/>
        <pt x="209" y="742" on="0"/>
        <pt x="177" y="774" on="0"/>
        <pt x="177" y="799" on="1"/>
        <pt x="177" y="825" on="0"/>
        <pt x="209" y="856" on="0"/>
        <pt x="234" y="856" on="1"/>
      </contour>
      <contour>
        <pt x="188" y="0" on="1"/>
        <pt x="108" y="0" on="1"/>
        <pt x="108" y="660" on="1"/>
        <pt x="188" y="660" on="1"/>
      </contour>
    </TTGlyph>
    <TTGlyph name="Idotaccent" xMin="88" yMin="0" xMax="208" yMax="876">
      <component glyphName="I" x="0" y="0" flags="0x0"/>
      <component glyphName="dotaccent" x="-102" y="160" flags="0x4"/>
    </TTGlyph>
    <TTGlyph name="Igrave" xMin="31" yMin="0" xMax="188" yMax="902">
      <component glyphName="I" x="0" y="0" flags="0x0"/>
      <component glyphName="gravecomb.cap" x="138" y="0" flags="0x0"/>
    </TTGlyph>
    <TTGlyph name="Imacron" xMin="40" yMin="0" xMax="256" yMax="823">
      <contour>
        <pt x="256" y="756" on="1"/>
        <pt x="40" y="756" on="1"/>
        <pt x="40" y="823" on="1"/>
        <pt x="256" y="823" on="1"/>
      </contour>
      <contour>
        <pt x="188" y="0" on="1"/>
        <pt x="108" y="0" on="1"/>
        <pt x="108" y="660" on="1"/>
        <pt x="188" y="660" on="1"/>
      </contour>
    </TTGlyph>
    <TTGlyph name="Iogonek" xMin="17" yMin="-215" xMax="218" yMax="660">
      <contour>
        <pt x="218" y="-193" on="1"/>
        <pt x="186" y="-215" on="0"/>
        <pt x="133" y="-215" on="1"/>
        <pt x="80" y="-215" on="0"/>
        <pt x="17" y="-162" on="0"/>
        <pt x="17" y="-117" on="1"/>
        <pt x="17" y="-79" on="0"/>
        <pt x="63" y="-15" on="0"/>
        <pt x="108" y="7" on="1"/>
        <pt x="108" y="660" on="1"/>
        <pt x="188" y="660" on="1"/>
        <pt x="188" y="0" on="1"/>
        <pt x="128" y="-28" on="0"/>
        <pt x="81" y="-78" on="0"/>
        <pt x="81" y="-103" on="1"/>
        <pt x="81" y="-157" on="0"/>
        <pt x="140" y="-157" on="1"/>
        <pt x="177" y="-157" on="0"/>
        <pt x="199" y="-142" on="1"/>
      </contour>
    </TTGlyph>
    <TTGlyph name="J" xMin="42" yMin="-10" xMax="465" yMax="660">
      <contour>
        <pt x="465" y="226" on="1"/>
        <pt x="465" y="115" on="0"/>
        <pt x="346" y="-10" on="0"/>
        <pt x="241" y="-10" on="1"/>
        <pt x="146" y="-10" on="0"/>
        <pt x="42" y="83" on="0"/>
        <pt x="42" y="165" on="1"/>
        <pt x="42" y="194" on="0"/>
        <pt x="47" y="218" on="1"/>
        <pt x="121" y="233" on="1"/>
        <pt x="117" y="199" on="0"/>
        <pt x="117" y="185" on="1"/>
        <pt x="117" y="124" on="0"/>
        <pt x="175" y="65" on="0"/>
        <pt x="238" y="65" on="1"/>
        <pt x="320" y="65" on="0"/>
        <pt x="385" y="153" on="0"/>
        <pt x="385" y="246" on="1"/>
        <pt x="385" y="660" on="1"/>
        <pt x="465" y="660" on="1"/>
      </contour>
    </TTGlyph>
    <TTGlyph name="K" xMin="108" yMin="0" xMax="628" yMax="660">
      <contour>
        <pt x="306" y="332" on="1"/>
        <pt x="188" y="212" on="1"/>
        <pt x="188" y="0" on="1"/>
        <pt x="108" y="0" on="1"/>
        <pt x="108" y="660" on="1"/>
        <pt x="188" y="660" on="1"/>
        <pt x="188" y="320" on="1"/>
        <pt x="520" y="660" on="1"/>
        <pt x="625" y="660" on="1"/>
        <pt x="362" y="391" on="1"/>
        <pt x="628" y="0" on="1"/>
        <pt x="532" y="0" on="1"/>
      </contour>
    </TTGlyph>
    <TTGlyph name="Kcommaaccent.sc" xMin="94" yMin="-237" xMax="566" yMax="560">
      <component glyphName="k.sc" x="0" y="0" flags="0x0"/>
      <component glyphName="uni0326" x="331" y="0" flags="0x0"/>
    </TTGlyph>
    <TTGlyph name="L" xMin="108" yMin="0" xMax="566" yMax="660">
      <contour>
        <pt x="566" y="75" on="1"/>
        <pt x="566" y="0" on="1"/>
        <pt x="108" y="0" on="1"/>
        <pt x="108" y="660" on="1"/>
        <pt x="188" y="660" on="1"/>
        <pt x="188" y="75" on="1"/>
      </contour>
    </TTGlyph>
    <TTGlyph name="L.swsh" xMin="108" yMin="0" xMax="627" yMax="660">
      <contour>
        <pt x="536" y="346" on="0"/>
        <pt x="627" y="257" on="0"/>
        <pt x="627" y="179" on="1"/>
        <pt x="627" y="90" on="0"/>
        <pt x="516" y="0" on="0"/>
        <pt x="418" y="0" on="1"/>
        <pt x="108" y="0" on="1"/>
        <pt x="108" y="660" on="1"/>
        <pt x="188" y="660" on="1"/>
        <pt x="188" y="75" on="1"/>
        <pt x="401" y="75" on="1"/>
        <pt x="472" y="75" on="0"/>
        <pt x="547" y="122" on="0"/>
        <pt x="547" y="180" on="1"/>
        <pt x="547" y="231" on="0"/>
        <pt x="487" y="283" on="0"/>
        <pt x="437" y="284" on="1"/>
        <pt x="468" y="348" on="1"/>
      </contour>
    </TTGlyph>
    <TTGlyph name="Lacute" xMin="105" yMin="0" xMax="566" yMax="902">
      <component glyphName="L" x="0" y="0" flags="0x0"/>
      <component glyphName="acutecomb.cap" x="148" y="0" flags="0x0"/>
    </TTGlyph>
    <TTGlyph name="Lacute.swsh" xMin="105" yMin="0" xMax="627" yMax="902">
      <component glyphName="L.swsh" x="0" y="0" flags="0x0"/>
      <component glyphName="acutecomb.cap" x="148" y="0" flags="0x0"/>
    </TTGlyph>
    <TTGlyph name="Lcaron" xMin="108" yMin="0" xMax="566" yMax="700">
      <contour>
        <pt x="335" y="503" on="1"/>
        <pt x="280" y="503" on="1"/>
        <pt x="300" y="700" on="1"/>
        <pt x="376" y="700" on="1"/>
      </contour>
      <contour>
        <pt x="566" y="75" on="1"/>
        <pt x="566" y="0" on="1"/>
        <pt x="108" y="0" on="1"/>
        <pt x="108" y="660" on="1"/>
        <pt x="188" y="660" on="1"/>
        <pt x="188" y="75" on="1"/>
      </contour>
    </TTGlyph>
    <TTGlyph name="Lcaron.swsh" xMin="108" yMin="0" xMax="627" yMax="700">
      <contour>
        <pt x="335" y="503" on="1"/>
        <pt x="280" y="503" on="1"/>
        <pt x="300" y="700" on="1"/>
        <pt x="376" y="700" on="1"/>
      </contour>
      <contour>
        <pt x="536" y="346" on="0"/>
        <pt x="627" y="257" on="0"/>
        <pt x="627" y="179" on="1"/>
        <pt x="627" y="90" on="0"/>
        <pt x="516" y="0" on="0"/>
        <pt x="418" y="0" on="1"/>
        <pt x="108" y="0" on="1"/>
        <pt x="108" y="660" on="1"/>
        <pt x="188" y="660" on="1"/>
        <pt x="188" y="75" on="1"/>
        <pt x="401" y="75" on="1"/>
        <pt x="472" y="75" on="0"/>
        <pt x="547" y="122" on="0"/>
        <pt x="547" y="180" on="1"/>
        <pt x="547" y="231" on="0"/>
        <pt x="487" y="283" on="0"/>
        <pt x="437" y="284" on="1"/>
        <pt x="468" y="348" on="1"/>
      </contour>
    </TTGlyph>
    <TTGlyph name="Lcommaaccent.sc" xMin="94" yMin="-237" xMax="508" yMax="560">
      <component glyphName="l.sc" x="0" y="0" flags="0x0"/>
      <component glyphName="uni0326" x="328" y="0" flags="0x0"/>
    </TTGlyph>
    <TTGlyph name="Lcommaaccent.swsh" xMin="108" yMin="-237" xMax="627" yMax="660">
      <component glyphName="L.swsh" x="0" y="0" flags="0x0"/>
      <component glyphName="uni0326" x="377" y="0" flags="0x0"/>
    </TTGlyph>
    <TTGlyph name="Ldot" xMin="108" yMin="0" xMax="594" yMax="660">
      <component glyphName="L" x="0" y="0" flags="0x0"/>
      <component glyphName="period" x="396" y="287" flags="0x4"/>
    </TTGlyph>
    <TTGlyph name="Lslash" xMin="33" yMin="0" xMax="596" yMax="660">
      <contour>
        <pt x="596" y="75" on="1"/>
        <pt x="596" y="0" on="1"/>
        <pt x="138" y="0" on="1"/>
        <pt x="138" y="255" on="1"/>
        <pt x="33" y="196" on="1"/>
        <pt x="33" y="279" on="1"/>
        <pt x="138" y="338" on="1"/>
        <pt x="138" y="660" on="1"/>
        <pt x="218" y="660" on="1"/>
        <pt x="218" y="382" on="1"/>
        <pt x="395" y="481" on="1"/>
        <pt x="395" y="398" on="1"/>
        <pt x="218" y="299" on="1"/>
        <pt x="218" y="75" on="1"/>
      </contour>
    </TTGlyph>
    <TTGlyph name="Lslash.swsh" xMin="33" yMin="0" xMax="657" yMax="660">
      <contour>
        <pt x="566" y="346" on="0"/>
        <pt x="657" y="257" on="0"/>
        <pt x="657" y="179" on="1"/>
        <pt x="657" y="90" on="0"/>
        <pt x="546" y="0" on="0"/>
        <pt x="448" y="0" on="1"/>
        <pt x="138" y="0" on="1"/>
        <pt x="138" y="255" on="1"/>
        <pt x="33" y="196" on="1"/>
        <pt x="33" y="279" on="1"/>
        <pt x="138" y="338" on="1"/>
        <pt x="138" y="660" on="1"/>
        <pt x="218" y="660" on="1"/>
        <pt x="218" y="382" on="1"/>
        <pt x="395" y="481" on="1"/>
        <pt x="395" y="398" on="1"/>
        <pt x="218" y="299" on="1"/>
        <pt x="218" y="75" on="1"/>
        <pt x="431" y="75" on="1"/>
        <pt x="502" y="75" on="0"/>
        <pt x="577" y="122" on="0"/>
        <pt x="577" y="180" on="1"/>
        <pt x="577" y="231" on="0"/>
        <pt x="517" y="283" on="0"/>
        <pt x="467" y="284" on="1"/>
        <pt x="498" y="348" on="1"/>
      </contour>
    </TTGlyph>
    <TTGlyph name="M" xMin="108" yMin="0" xMax="746" yMax="660">
      <contour>
        <pt x="746" y="0" on="1"/>
        <pt x="670" y="0" on="1"/>
        <pt x="670" y="415" on="1"/>
        <pt x="679" y="589" on="1"/>
        <pt x="678" y="589" on="1"/>
        <pt x="461" y="0" on="1"/>
        <pt x="393" y="0" on="1"/>
        <pt x="176" y="589" on="1"/>
        <pt x="175" y="589" on="1"/>
        <pt x="184" y="415" on="1"/>
        <pt x="184" y="0" on="1"/>
        <pt x="108" y="0" on="1"/>
        <pt x="108" y="660" on="1"/>
        <pt x="231" y="660" on="1"/>
        <pt x="376" y="259" on="1"/>
        <pt x="426" y="94" on="1"/>
        <pt x="428" y="94" on="1"/>
        <pt x="479" y="258" on="1"/>
        <pt x="623" y="660" on="1"/>
        <pt x="746" y="660" on="1"/>
      </contour>
    </TTGlyph>
    <TTGlyph name="M.swsh" xMin="10" yMin="-110" xMax="965" yMax="660">
      <contour>
        <pt x="965" y="660" on="1"/>
        <pt x="965" y="0" on="1"/>
        <pt x="889" y="0" on="1"/>
        <pt x="889" y="415" on="1"/>
        <pt x="898" y="589" on="1"/>
        <pt x="897" y="589" on="1"/>
        <pt x="680" y="0" on="1"/>
        <pt x="612" y="0" on="1"/>
        <pt x="395" y="589" on="1"/>
        <pt x="394" y="589" on="1"/>
        <pt x="403" y="415" on="1"/>
        <pt x="403" y="66" on="1"/>
        <pt x="403" y="19" on="0"/>
        <pt x="358" y="-62" on="0"/>
        <pt x="272" y="-110" on="0"/>
        <pt x="211" y="-110" on="1"/>
        <pt x="133" y="-110" on="0"/>
        <pt x="47" y="-41" on="0"/>
        <pt x="38" y="21" on="1"/>
        <pt x="97" y="64" on="1"/>
        <pt x="106" y="8" on="0"/>
        <pt x="158" y="-41" on="0"/>
        <pt x="211" y="-41" on="1"/>
        <pt x="265" y="-41" on="0"/>
        <pt x="327" y="31" on="0"/>
        <pt x="327" y="90" on="1"/>
        <pt x="327" y="595" on="1"/>
        <pt x="236" y="595" on="1"/>
        <pt x="168" y="595" on="0"/>
        <pt x="90" y="537" on="0"/>
        <pt x="90" y="480" on="1"/>
        <pt x="90" y="435" on="0"/>
        <pt x="151" y="374" on="0"/>
        <pt x="200" y="366" on="1"/>
        <pt x="169" y="302" on="1"/>
        <pt x="102" y="312" on="0"/>
        <pt x="10" y="410" on="0"/>
        <pt x="10" y="481" on="1"/>
        <pt x="10" y="564" on="0"/>
        <pt x="123" y="660" on="0"/>
        <pt x="219" y="660" on="1"/>
        <pt x="450" y="660" on="1"/>
        <pt x="595" y="259" on="1"/>
        <pt x="645" y="94" on="1"/>
        <pt x="647" y="94" on="1"/>
        <pt x="698" y="258" on="1"/>
        <pt x="842" y="660" on="1"/>
      </contour>
    </TTGlyph>
    <TTGlyph name="M.swsh.001" xMin="10" yMin="0" xMax="965" yMax="660">
      <contour>
        <pt x="965" y="660" on="1"/>
        <pt x="965" y="0" on="1"/>
        <pt x="889" y="0" on="1"/>
        <pt x="889" y="415" on="1"/>
        <pt x="898" y="589" on="1"/>
        <pt x="897" y="589" on="1"/>
        <pt x="680" y="0" on="1"/>
        <pt x="612" y="0" on="1"/>
        <pt x="395" y="589" on="1"/>
        <pt x="394" y="589" on="1"/>
        <pt x="403" y="415" on="1"/>
        <pt x="403" y="0" on="1"/>
        <pt x="327" y="0" on="1"/>
        <pt x="327" y="595" on="1"/>
        <pt x="236" y="595" on="1"/>
        <pt x="168" y="595" on="0"/>
        <pt x="90" y="537" on="0"/>
        <pt x="90" y="480" on="1"/>
        <pt x="90" y="435" on="0"/>
        <pt x="151" y="374" on="0"/>
        <pt x="200" y="366" on="1"/>
        <pt x="169" y="302" on="1"/>
        <pt x="102" y="312" on="0"/>
        <pt x="10" y="410" on="0"/>
        <pt x="10" y="481" on="1"/>
        <pt x="10" y="564" on="0"/>
        <pt x="123" y="660" on="0"/>
        <pt x="219" y="660" on="1"/>
        <pt x="450" y="660" on="1"/>
        <pt x="595" y="259" on="1"/>
        <pt x="645" y="94" on="1"/>
        <pt x="647" y="94" on="1"/>
        <pt x="698" y="258" on="1"/>
        <pt x="842" y="660" on="1"/>
      </contour>
    </TTGlyph>
    <TTGlyph name="N" xMin="108" yMin="0" xMax="626" yMax="660">
      <contour>
        <pt x="626" y="0" on="1"/>
        <pt x="527" y="0" on="1"/>
        <pt x="251" y="442" on="1"/>
        <pt x="181" y="572" on="1"/>
        <pt x="180" y="572" on="1"/>
        <pt x="184" y="466" on="1"/>
        <pt x="184" y="0" on="1"/>
        <pt x="108" y="0" on="1"/>
        <pt x="108" y="660" on="1"/>
        <pt x="207" y="660" on="1"/>
        <pt x="482" y="220" on="1"/>
        <pt x="553" y="88" on="1"/>
        <pt x="554" y="88" on="1"/>
        <pt x="550" y="194" on="1"/>
        <pt x="550" y="660" on="1"/>
        <pt x="626" y="660" on="1"/>
      </contour>
    </TTGlyph>
    <TTGlyph name="N.swsh" xMin="108" yMin="0" xMax="915" yMax="735">
      <contour>
        <pt x="820" y="735" on="0"/>
        <pt x="906" y="666" on="0"/>
        <pt x="915" y="604" on="1"/>
        <pt x="856" y="561" on="1"/>
        <pt x="847" y="617" on="0"/>
        <pt x="795" y="666" on="0"/>
        <pt x="742" y="666" on="1"/>
        <pt x="688" y="666" on="0"/>
        <pt x="626" y="594" on="0"/>
        <pt x="626" y="535" on="1"/>
        <pt x="626" y="0" on="1"/>
        <pt x="527" y="0" on="1"/>
        <pt x="251" y="442" on="1"/>
        <pt x="181" y="572" on="1"/>
        <pt x="180" y="572" on="1"/>
        <pt x="184" y="466" on="1"/>
        <pt x="184" y="0" on="1"/>
        <pt x="108" y="0" on="1"/>
        <pt x="108" y="660" on="1"/>
        <pt x="207" y="660" on="1"/>
        <pt x="482" y="220" on="1"/>
        <pt x="553" y="88" on="1"/>
        <pt x="554" y="88" on="1"/>
        <pt x="550" y="194" on="1"/>
        <pt x="550" y="559" on="1"/>
        <pt x="550" y="606" on="0"/>
        <pt x="595" y="687" on="0"/>
        <pt x="681" y="735" on="0"/>
        <pt x="742" y="735" on="1"/>
      </contour>
    </TTGlyph>
    <TTGlyph name="Nacute" xMin="108" yMin="0" xMax="626" yMax="902">
      <component glyphName="N" x="0" y="0" flags="0x0"/>
      <component glyphName="acutecomb.cap" x="371" y="0" flags="0x0"/>
    </TTGlyph>
    <TTGlyph name="Nacute.swsh" xMin="108" yMin="0" xMax="915" yMax="902">
      <component glyphName="N.swsh" x="0" y="0" flags="0x0"/>
      <component glyphName="acutecomb.cap" x="371" y="0" flags="0x0"/>
    </TTGlyph>
    <TTGlyph name="Ncaron" xMin="108" yMin="0" xMax="626" yMax="902">
      <component glyphName="N" x="0" y="0" flags="0x0"/>
      <component glyphName="uni030C.cap" x="371" y="0" flags="0x0"/>
    </TTGlyph>
    <TTGlyph name="Ncaron.swsh" xMin="108" yMin="0" xMax="915" yMax="902">
      <component glyphName="N.swsh" x="0" y="0" flags="0x0"/>
      <component glyphName="uni030C.cap" x="371" y="0" flags="0x0"/>
    </TTGlyph>
    <TTGlyph name="Ncommaaccent.sc" xMin="94" yMin="-237" xMax="567" yMax="560">
      <component glyphName="n.sc" x="0" y="0" flags="0x0"/>
      <component glyphName="uni0326" x="352" y="0" flags="0x0"/>
    </TTGlyph>
    <TTGlyph name="Ncommaaccent.swsh" xMin="108" yMin="-237" xMax="915" yMax="735">
      <component glyphName="N.swsh" x="0" y="0" flags="0x0"/>
      <component glyphName="uni0326" x="397" y="0" flags="0x0"/>
    </TTGlyph>
    <TTGlyph name="Ntilde" xMin="108" yMin="0" xMax="626" yMax="877">
      <component glyphName="N" x="0" y="0" flags="0x0"/>
      <component glyphName="tilde" x="120" y="160" flags="0x4"/>
    </TTGlyph>
    <TTGlyph name="Ntilde.swsh" xMin="108" yMin="0" xMax="915" yMax="877">
      <component glyphName="N.swsh" x="0" y="0" flags="0x0"/>
      <component glyphName="tilde" x="120" y="160" flags="0x4"/>
    </TTGlyph>
    <TTGlyph name="O" xMin="68" yMin="-10" xMax="680" yMax="670">
      <contour>
        <pt x="467" y="670" on="0"/>
        <pt x="605" y="587" on="0"/>
        <pt x="680" y="434" on="0"/>
        <pt x="680" y="330" on="1"/>
        <pt x="680" y="226" on="0"/>
        <pt x="605" y="73" on="0"/>
        <pt x="467" y="-10" on="0"/>
        <pt x="374" y="-10" on="1"/>
        <pt x="281" y="-10" on="0"/>
        <pt x="143" y="73" on="0"/>
        <pt x="68" y="226" on="0"/>
        <pt x="68" y="330" on="1"/>
        <pt x="68" y="434" on="0"/>
        <pt x="143" y="587" on="0"/>
        <pt x="281" y="670" on="0"/>
        <pt x="374" y="670" on="1"/>
      </contour>
      <contour>
        <pt x="271" y="595" on="0"/>
        <pt x="152" y="454" on="0"/>
        <pt x="152" y="330" on="1"/>
        <pt x="152" y="206" on="0"/>
        <pt x="271" y="65" on="0"/>
        <pt x="374" y="65" on="1"/>
        <pt x="477" y="65" on="0"/>
        <pt x="596" y="206" on="0"/>
        <pt x="596" y="330" on="1"/>
        <pt x="596" y="454" on="0"/>
        <pt x="477" y="595" on="0"/>
        <pt x="374" y="595" on="1"/>
      </contour>
    </TTGlyph>
    <TTGlyph name="OE" xMin="68" yMin="-10" xMax="1028" yMax="670">
      <contour>
        <pt x="1028" y="75" on="1"/>
        <pt x="1028" y="0" on="1"/>
        <pt x="586" y="0" on="1"/>
        <pt x="586" y="99" on="1"/>
        <pt x="549" y="46" on="0"/>
        <pt x="439" y="-10" on="0"/>
        <pt x="372" y="-10" on="1"/>
        <pt x="279" y="-10" on="0"/>
        <pt x="142" y="73" on="0"/>
        <pt x="68" y="226" on="0"/>
        <pt x="68" y="330" on="1"/>
        <pt x="68" y="434" on="0"/>
        <pt x="141" y="587" on="0"/>
        <pt x="280" y="670" on="0"/>
        <pt x="376" y="670" on="1"/>
        <pt x="442" y="670" on="0"/>
        <pt x="550" y="615" on="0"/>
        <pt x="586" y="563" on="1"/>
        <pt x="586" y="660" on="1"/>
        <pt x="1013" y="660" on="1"/>
        <pt x="1013" y="585" on="1"/>
        <pt x="659" y="585" on="1"/>
        <pt x="659" y="372" on="1"/>
        <pt x="928" y="372" on="1"/>
        <pt x="928" y="297" on="1"/>
        <pt x="659" y="297" on="1"/>
        <pt x="659" y="75" on="1"/>
      </contour>
      <contour>
        <pt x="438" y="65" on="0"/>
        <pt x="533" y="129" on="0"/>
        <pt x="586" y="248" on="0"/>
        <pt x="586" y="330" on="1"/>
        <pt x="586" y="412" on="0"/>
        <pt x="533" y="531" on="0"/>
        <pt x="438" y="595" on="0"/>
        <pt x="376" y="595" on="1"/>
        <pt x="269" y="595" on="0"/>
        <pt x="152" y="455" on="0"/>
        <pt x="152" y="330" on="1"/>
        <pt x="152" y="205" on="0"/>
        <pt x="269" y="65" on="0"/>
        <pt x="376" y="65" on="1"/>
      </contour>
    </TTGlyph>
    <TTGlyph name="Oacute" xMin="68" yMin="-10" xMax="680" yMax="902">
      <component glyphName="O" x="0" y="0" flags="0x0"/>
      <component glyphName="acutecomb.cap" x="374" y="0" flags="0x0"/>
    </TTGlyph>
    <TTGlyph name="Ocircumflex" xMin="68" yMin="-10" xMax="680" yMax="898">
      <component glyphName="O" x="0" y="0" flags="0x0"/>
      <component glyphName="uni0302.cap" x="374" y="0" flags="0x0"/>
    </TTGlyph>
    <TTGlyph name="Odieresis" xMin="68" yMin="-10" xMax="680" yMax="856">
      <component glyphName="O" x="0" y="0" flags="0x0"/>
      <component glyphName="dieresis" x="121" y="160" flags="0x4"/>
    </TTGlyph>
    <TTGlyph name="Odieresis.titl" xMin="68" yMin="-10" xMax="680" yMax="670">
      <contour>
        <pt x="467" y="670" on="0"/>
        <pt x="605" y="587" on="0"/>
        <pt x="680" y="434" on="0"/>
        <pt x="680" y="330" on="1"/>
        <pt x="680" y="226" on="0"/>
        <pt x="605" y="73" on="0"/>
        <pt x="467" y="-10" on="0"/>
        <pt x="374" y="-10" on="1"/>
        <pt x="281" y="-10" on="0"/>
        <pt x="143" y="73" on="0"/>
        <pt x="68" y="226" on="0"/>
        <pt x="68" y="330" on="1"/>
        <pt x="68" y="434" on="0"/>
        <pt x="143" y="587" on="0"/>
        <pt x="281" y="670" on="0"/>
        <pt x="374" y="670" on="1"/>
      </contour>
      <contour>
        <pt x="271" y="595" on="0"/>
        <pt x="152" y="454" on="0"/>
        <pt x="152" y="330" on="1"/>
        <pt x="152" y="206" on="0"/>
        <pt x="271" y="65" on="0"/>
        <pt x="374" y="65" on="1"/>
        <pt x="477" y="65" on="0"/>
        <pt x="596" y="206" on="0"/>
        <pt x="596" y="330" on="1"/>
        <pt x="596" y="454" on="0"/>
        <pt x="477" y="595" on="0"/>
        <pt x="374" y="595" on="1"/>
      </contour>
      <contour>
        <pt x="332" y="560" on="0"/>
        <pt x="362" y="530" on="0"/>
        <pt x="362" y="506" on="1"/>
        <pt x="362" y="481" on="0"/>
        <pt x="332" y="451" on="0"/>
        <pt x="307" y="451" on="1"/>
        <pt x="283" y="451" on="0"/>
        <pt x="253" y="481" on="0"/>
        <pt x="253" y="506" on="1"/>
        <pt x="253" y="530" on="0"/>
        <pt x="283" y="560" on="0"/>
        <pt x="307" y="560" on="1"/>
      </contour>
      <contour>
        <pt x="465" y="560" on="0"/>
        <pt x="495" y="530" on="0"/>
        <pt x="495" y="506" on="1"/>
        <pt x="495" y="481" on="0"/>
        <pt x="465" y="451" on="0"/>
        <pt x="441" y="451" on="1"/>
        <pt x="416" y="451" on="0"/>
        <pt x="386" y="481" on="0"/>
        <pt x="386" y="506" on="1"/>
        <pt x="386" y="530" on="0"/>
        <pt x="416" y="560" on="0"/>
        <pt x="441" y="560" on="1"/>
      </contour>
    </TTGlyph>
    <TTGlyph name="Ograve" xMin="68" yMin="-10" xMax="680" yMax="902">
      <component glyphName="O" x="0" y="0" flags="0x0"/>
      <component glyphName="gravecomb.cap" x="364" y="0" flags="0x0"/>
    </TTGlyph>
    <TTGlyph name="Ohungarumlaut" xMin="68" yMin="-10" xMax="680" yMax="902">
      <component glyphName="O" x="0" y="0" flags="0x0"/>
      <component glyphName="acutecomb.cap" x="474" y="0" flags="0x0"/>
      <component glyphName="acutecomb.cap" x="297" y="0" flags="0x0"/>
    </TTGlyph>
    <TTGlyph name="Oinferior" xMin="35" yMin="-195" xMax="427" yMax="213">
      <component glyphName="Osuperior" x="0" y="-522" flags="0x4"/>
    </TTGlyph>
    <TTGlyph name="Omacron" xMin="68" yMin="-10" xMax="680" yMax="823">
      <component glyphName="O" x="0" y="0" flags="0x0"/>
      <component glyphName="macron" x="124" y="160" flags="0x4"/>
    </TTGlyph>
    <TTGlyph name="Oslash" xMin="68" yMin="-37" xMax="680" yMax="683">
      <contour>
        <pt x="635" y="539" on="0"/>
        <pt x="680" y="410" on="0"/>
        <pt x="680" y="330" on="1"/>
        <pt x="680" y="226" on="0"/>
        <pt x="605" y="73" on="0"/>
        <pt x="467" y="-10" on="0"/>
        <pt x="374" y="-10" on="1"/>
        <pt x="279" y="-10" on="0"/>
        <pt x="208" y="33" on="1"/>
        <pt x="159" y="-37" on="1"/>
        <pt x="88" y="-37" on="1"/>
        <pt x="162" y="70" on="1"/>
        <pt x="116" y="115" on="0"/>
        <pt x="68" y="247" on="0"/>
        <pt x="68" y="330" on="1"/>
        <pt x="68" y="434" on="0"/>
        <pt x="143" y="587" on="0"/>
        <pt x="281" y="670" on="0"/>
        <pt x="374" y="670" on="1"/>
        <pt x="474" y="670" on="0"/>
        <pt x="547" y="622" on="1"/>
        <pt x="590" y="683" on="1"/>
        <pt x="661" y="683" on="1"/>
        <pt x="592" y="584" on="1"/>
      </contour>
      <contour>
        <pt x="152" y="207" on="0"/>
        <pt x="209" y="138" on="1"/>
        <pt x="502" y="557" on="1"/>
        <pt x="449" y="595" on="0"/>
        <pt x="374" y="595" on="1"/>
        <pt x="271" y="595" on="0"/>
        <pt x="152" y="454" on="0"/>
        <pt x="152" y="330" on="1"/>
      </contour>
      <contour>
        <pt x="477" y="65" on="0"/>
        <pt x="596" y="206" on="0"/>
        <pt x="596" y="330" on="1"/>
        <pt x="596" y="446" on="0"/>
        <pt x="544" y="515" on="1"/>
        <pt x="253" y="98" on="1"/>
        <pt x="304" y="65" on="0"/>
        <pt x="374" y="65" on="1"/>
      </contour>
    </TTGlyph>
    <TTGlyph name="Osuperior" xMin="35" yMin="327" xMax="427" yMax="735">
      <contour>
        <pt x="323" y="735" on="0"/>
        <pt x="427" y="626" on="0"/>
        <pt x="427" y="531" on="1"/>
        <pt x="427" y="436" on="0"/>
        <pt x="323" y="327" on="0"/>
        <pt x="231" y="327" on="1"/>
        <pt x="139" y="327" on="0"/>
        <pt x="35" y="436" on="0"/>
        <pt x="35" y="531" on="1"/>
        <pt x="35" y="626" on="0"/>
        <pt x="139" y="735" on="0"/>
        <pt x="231" y="735" on="1"/>
      </contour>
      <contour>
        <pt x="172" y="678" on="0"/>
        <pt x="105" y="600" on="0"/>
        <pt x="105" y="531" on="1"/>
        <pt x="105" y="462" on="0"/>
        <pt x="172" y="384" on="0"/>
        <pt x="231" y="384" on="1"/>
        <pt x="290" y="384" on="0"/>
        <pt x="357" y="462" on="0"/>
        <pt x="357" y="531" on="1"/>
        <pt x="357" y="600" on="0"/>
        <pt x="290" y="678" on="0"/>
        <pt x="231" y="678" on="1"/>
      </contour>
    </TTGlyph>
    <TTGlyph name="Otilde" xMin="68" yMin="-10" xMax="680" yMax="877">
      <component glyphName="O" x="0" y="0" flags="0x0"/>
      <component glyphName="tilde" x="123" y="160" flags="0x4"/>
    </TTGlyph>
    <TTGlyph name="P" xMin="108" yMin="0" xMax="563" yMax="660">
      <contour>
        <pt x="441" y="660" on="0"/>
        <pt x="563" y="551" on="0"/>
        <pt x="563" y="459" on="1"/>
        <pt x="563" y="367" on="0"/>
        <pt x="441" y="258" on="0"/>
        <pt x="341" y="258" on="1"/>
        <pt x="188" y="258" on="1"/>
        <pt x="188" y="0" on="1"/>
        <pt x="108" y="0" on="1"/>
        <pt x="108" y="660" on="1"/>
        <pt x="341" y="660" on="1"/>
      </contour>
      <contour>
        <pt x="406" y="333" on="0"/>
        <pt x="479" y="396" on="0"/>
        <pt x="479" y="459" on="1"/>
        <pt x="479" y="522" on="0"/>
        <pt x="406" y="585" on="0"/>
        <pt x="329" y="585" on="1"/>
        <pt x="188" y="585" on="1"/>
        <pt x="188" y="333" on="1"/>
        <pt x="329" y="333" on="1"/>
      </contour>
    </TTGlyph>
    <TTGlyph name="Q" xMin="68" yMin="-195" xMax="680" yMax="670">
      <contour>
        <pt x="573" y="-114" on="0"/>
        <pt x="635" y="-94" on="0"/>
        <pt x="654" y="-77" on="1"/>
        <pt x="680" y="-151" on="1"/>
        <pt x="657" y="-171" on="0"/>
        <pt x="573" y="-195" on="0"/>
        <pt x="534" y="-195" on="1"/>
        <pt x="452" y="-195" on="0"/>
        <pt x="343" y="-108" on="0"/>
        <pt x="337" y="-8" on="1"/>
        <pt x="254" y="0" on="0"/>
        <pt x="133" y="86" on="0"/>
        <pt x="68" y="233" on="0"/>
        <pt x="68" y="330" on="1"/>
        <pt x="68" y="434" on="0"/>
        <pt x="143" y="587" on="0"/>
        <pt x="281" y="670" on="0"/>
        <pt x="374" y="670" on="1"/>
        <pt x="467" y="670" on="0"/>
        <pt x="605" y="587" on="0"/>
        <pt x="680" y="434" on="0"/>
        <pt x="680" y="330" on="1"/>
        <pt x="680" y="233" on="0"/>
        <pt x="614" y="86" on="0"/>
        <pt x="492" y="-1" on="0"/>
        <pt x="409" y="-8" on="1"/>
        <pt x="414" y="-70" on="0"/>
        <pt x="481" y="-114" on="0"/>
        <pt x="536" y="-114" on="1"/>
      </contour>
      <contour>
        <pt x="152" y="206" on="0"/>
        <pt x="271" y="65" on="0"/>
        <pt x="374" y="65" on="1"/>
        <pt x="477" y="65" on="0"/>
        <pt x="596" y="206" on="0"/>
        <pt x="596" y="330" on="1"/>
        <pt x="596" y="454" on="0"/>
        <pt x="477" y="595" on="0"/>
        <pt x="374" y="595" on="1"/>
        <pt x="271" y="595" on="0"/>
        <pt x="152" y="454" on="0"/>
        <pt x="152" y="330" on="1"/>
      </contour>
    </TTGlyph>
    <TTGlyph name="R" xMin="108" yMin="0" xMax="621" yMax="660">
      <contour>
        <pt x="346" y="274" on="1"/>
        <pt x="188" y="274" on="1"/>
        <pt x="188" y="0" on="1"/>
        <pt x="108" y="0" on="1"/>
        <pt x="108" y="660" on="1"/>
        <pt x="358" y="660" on="1"/>
        <pt x="459" y="660" on="0"/>
        <pt x="581" y="556" on="0"/>
        <pt x="581" y="467" on="1"/>
        <pt x="581" y="397" on="0"/>
        <pt x="503" y="301" on="0"/>
        <pt x="435" y="283" on="1"/>
        <pt x="621" y="0" on="1"/>
        <pt x="526" y="0" on="1"/>
      </contour>
      <contour>
        <pt x="188" y="349" on="1"/>
        <pt x="357" y="349" on="1"/>
        <pt x="497" y="349" on="0"/>
        <pt x="497" y="467" on="1"/>
        <pt x="497" y="585" on="0"/>
        <pt x="357" y="585" on="1"/>
        <pt x="188" y="585" on="1"/>
      </contour>
    </TTGlyph>
    <TTGlyph name="R.ss03" xMin="108" yMin="0" xMax="591" yMax="660">
      <contour>
        <pt x="108" y="660" on="1"/>
        <pt x="358" y="660" on="1"/>
        <pt x="459" y="660" on="0"/>
        <pt x="581" y="556" on="0"/>
        <pt x="581" y="467" on="1"/>
        <pt x="581" y="402" on="0"/>
        <pt x="510" y="316" on="0"/>
        <pt x="443" y="300" on="1"/>
        <pt x="443" y="298" on="1"/>
        <pt x="500" y="288" on="0"/>
        <pt x="558" y="219" on="0"/>
        <pt x="560" y="164" on="1"/>
        <pt x="565" y="84" on="0"/>
        <pt x="579" y="23" on="0"/>
        <pt x="591" y="3" on="1"/>
        <pt x="591" y="0" on="1"/>
        <pt x="505" y="0" on="1"/>
        <pt x="487" y="41" on="0"/>
        <pt x="481" y="156" on="1"/>
        <pt x="478" y="215" on="0"/>
        <pt x="404" y="274" on="0"/>
        <pt x="328" y="274" on="1"/>
        <pt x="188" y="274" on="1"/>
        <pt x="188" y="0" on="1"/>
        <pt x="108" y="0" on="1"/>
      </contour>
      <contour>
        <pt x="357" y="349" on="1"/>
        <pt x="497" y="349" on="0"/>
        <pt x="497" y="467" on="1"/>
        <pt x="497" y="585" on="0"/>
        <pt x="357" y="585" on="1"/>
        <pt x="188" y="585" on="1"/>
        <pt x="188" y="349" on="1"/>
      </contour>
    </TTGlyph>
    <TTGlyph name="R.swsh" xMin="10" yMin="-110" xMax="840" yMax="660">
      <contour>
        <pt x="565" y="274" on="1"/>
        <pt x="407" y="274" on="1"/>
        <pt x="407" y="66" on="1"/>
        <pt x="407" y="19" on="0"/>
        <pt x="362" y="-62" on="0"/>
        <pt x="273" y="-110" on="0"/>
        <pt x="211" y="-110" on="1"/>
        <pt x="133" y="-110" on="0"/>
        <pt x="47" y="-41" on="0"/>
        <pt x="38" y="21" on="1"/>
        <pt x="97" y="64" on="1"/>
        <pt x="106" y="8" on="0"/>
        <pt x="158" y="-41" on="0"/>
        <pt x="211" y="-41" on="1"/>
        <pt x="265" y="-41" on="0"/>
        <pt x="327" y="31" on="0"/>
        <pt x="327" y="90" on="1"/>
        <pt x="327" y="595" on="1"/>
        <pt x="236" y="595" on="1"/>
        <pt x="168" y="595" on="0"/>
        <pt x="90" y="537" on="0"/>
        <pt x="90" y="480" on="1"/>
        <pt x="90" y="435" on="0"/>
        <pt x="151" y="374" on="0"/>
        <pt x="200" y="366" on="1"/>
        <pt x="169" y="302" on="1"/>
        <pt x="102" y="312" on="0"/>
        <pt x="10" y="410" on="0"/>
        <pt x="10" y="481" on="1"/>
        <pt x="10" y="564" on="0"/>
        <pt x="123" y="660" on="0"/>
        <pt x="219" y="660" on="1"/>
        <pt x="577" y="660" on="1"/>
        <pt x="678" y="660" on="0"/>
        <pt x="800" y="556" on="0"/>
        <pt x="800" y="467" on="1"/>
        <pt x="800" y="397" on="0"/>
        <pt x="722" y="301" on="0"/>
        <pt x="654" y="283" on="1"/>
        <pt x="840" y="0" on="1"/>
        <pt x="745" y="0" on="1"/>
      </contour>
      <contour>
        <pt x="407" y="349" on="1"/>
        <pt x="576" y="349" on="1"/>
        <pt x="716" y="349" on="0"/>
        <pt x="716" y="467" on="1"/>
        <pt x="716" y="585" on="0"/>
        <pt x="576" y="585" on="1"/>
        <pt x="407" y="585" on="1"/>
      </contour>
    </TTGlyph>
    <TTGlyph name="R.swsh.001" xMin="108" yMin="-86" xMax="685" yMax="660">
      <contour>
        <pt x="559" y="57" on="0"/>
        <pt x="650" y="-19" on="0"/>
        <pt x="685" y="-31" on="1"/>
        <pt x="642" y="-86" on="1"/>
        <pt x="588" y="-59" on="0"/>
        <pt x="522" y="-11" on="0"/>
        <pt x="483" y="33" on="0"/>
        <pt x="459" y="68" on="1"/>
        <pt x="315" y="274" on="1"/>
        <pt x="188" y="274" on="1"/>
        <pt x="188" y="0" on="1"/>
        <pt x="108" y="0" on="1"/>
        <pt x="108" y="660" on="1"/>
        <pt x="358" y="660" on="1"/>
        <pt x="459" y="660" on="0"/>
        <pt x="581" y="556" on="0"/>
        <pt x="581" y="467" on="1"/>
        <pt x="581" y="388" on="0"/>
        <pt x="484" y="288" on="0"/>
        <pt x="401" y="277" on="1"/>
        <pt x="535" y="90" on="1"/>
      </contour>
      <contour>
        <pt x="188" y="349" on="1"/>
        <pt x="357" y="349" on="1"/>
        <pt x="497" y="349" on="0"/>
        <pt x="497" y="467" on="1"/>
        <pt x="497" y="585" on="0"/>
        <pt x="357" y="585" on="1"/>
        <pt x="188" y="585" on="1"/>
      </contour>
    </TTGlyph>
    <TTGlyph name="Racute" xMin="108" yMin="0" xMax="621" yMax="902">
      <component glyphName="R" x="0" y="0" flags="0x0"/>
      <component glyphName="acutecomb.cap" x="322" y="0" flags="0x0"/>
    </TTGlyph>
    <TTGlyph name="Racute.ss03" xMin="108" yMin="0" xMax="591" yMax="902">
      <component glyphName="R.ss03" x="0" y="0" flags="0x0"/>
      <component glyphName="acutecomb.cap" x="322" y="0" flags="0x0"/>
    </TTGlyph>
    <TTGlyph name="Racute.swsh" xMin="10" yMin="-110" xMax="840" yMax="902">
      <component glyphName="R.swsh" x="0" y="0" flags="0x0"/>
      <component glyphName="acutecomb.cap" x="541" y="0" flags="0x0"/>
    </TTGlyph>
    <TTGlyph name="Racute.swsh.001" xMin="108" yMin="-86" xMax="685" yMax="902">
      <component glyphName="R.swsh.001" x="0" y="0" flags="0x0"/>
      <component glyphName="acutecomb.cap" x="322" y="0" flags="0x0"/>
    </TTGlyph>
    <TTGlyph name="Rcaron" xMin="108" yMin="0" xMax="621" yMax="902">
      <component glyphName="R" x="0" y="0" flags="0x0"/>
      <component glyphName="uni030C.cap" x="322" y="0" flags="0x0"/>
    </TTGlyph>
    <TTGlyph name="Rcaron.ss03" xMin="108" yMin="0" xMax="591" yMax="902">
      <component glyphName="R.ss03" x="0" y="0" flags="0x0"/>
      <component glyphName="uni030C.cap" x="322" y="0" flags="0x0"/>
    </TTGlyph>
    <TTGlyph name="Rcaron.swsh" xMin="10" yMin="-110" xMax="840" yMax="902">
      <component glyphName="R.swsh" x="0" y="0" flags="0x0"/>
      <component glyphName="uni030C.cap" x="541" y="0" flags="0x0"/>
    </TTGlyph>
    <TTGlyph name="Rcaron.swsh.001" xMin="108" yMin="-86" xMax="685" yMax="902">
      <component glyphName="R.swsh.001" x="0" y="0" flags="0x0"/>
      <component glyphName="uni030C.cap" x="322" y="0" flags="0x0"/>
    </TTGlyph>
    <TTGlyph name="Rcommaaccent.sc" xMin="94" yMin="-237" xMax="563" yMax="560">
      <component glyphName="r.sc" x="0" y="0" flags="0x0"/>
      <component glyphName="uni0326" x="328" y="0" flags="0x0"/>
    </TTGlyph>
    <TTGlyph name="Rcommaaccent.sc.ss03" xMin="94" yMin="-237" xMax="538" yMax="560">
      <component glyphName="r.sc.ss03" x="0" y="0" flags="0x0"/>
      <component glyphName="uni0326" x="328" y="0" flags="0x0"/>
    </TTGlyph>
    <TTGlyph name="Rcommaaccent.ss03" xMin="108" yMin="-237" xMax="591" yMax="660">
      <component glyphName="R.ss03" x="0" y="0" flags="0x0"/>
      <component glyphName="uni0326" x="365" y="0" flags="0x0"/>
    </TTGlyph>
    <TTGlyph name="Rcommaaccent.swsh" xMin="10" yMin="-237" xMax="840" yMax="660">
      <component glyphName="R.swsh" x="0" y="0" flags="0x0"/>
      <component glyphName="uni0326" x="584" y="0" flags="0x0"/>
    </TTGlyph>
    <TTGlyph name="Rcommaaccent.swsh.001" xMin="108" yMin="-237" xMax="685" yMax="660">
      <component glyphName="R.swsh.001" x="0" y="0" flags="0x0"/>
      <component glyphName="uni0326" x="365" y="0" flags="0x0"/>
    </TTGlyph>
    <TTGlyph name="S" xMin="48" yMin="-10" xMax="581" yMax="670">
      <contour>
        <pt x="497" y="670" on="0"/>
        <pt x="575" y="530" on="1"/>
        <pt x="506" y="474" on="1"/>
        <pt x="476" y="540" on="0"/>
        <pt x="393" y="595" on="0"/>
        <pt x="321" y="595" on="1"/>
        <pt x="245" y="595" on="0"/>
        <pt x="158" y="532" on="0"/>
        <pt x="158" y="483" on="1"/>
        <pt x="158" y="451" on="0"/>
        <pt x="192" y="409" on="0"/>
        <pt x="271" y="378" on="0"/>
        <pt x="341" y="366" on="1"/>
        <pt x="472" y="344" on="0"/>
        <pt x="581" y="256" on="0"/>
        <pt x="581" y="178" on="1"/>
        <pt x="581" y="122" on="0"/>
        <pt x="518" y="37" on="0"/>
        <pt x="402" y="-10" on="0"/>
        <pt x="326" y="-10" on="1"/>
        <pt x="226" y="-10" on="0"/>
        <pt x="85" y="68" on="0"/>
        <pt x="48" y="133" on="1"/>
        <pt x="117" y="189" on="1"/>
        <pt x="144" y="130" on="0"/>
        <pt x="249" y="65" on="0"/>
        <pt x="328" y="65" on="1"/>
        <pt x="406" y="65" on="0"/>
        <pt x="498" y="122" on="0"/>
        <pt x="498" y="174" on="1"/>
        <pt x="498" y="218" on="0"/>
        <pt x="418" y="270" on="0"/>
        <pt x="316" y="288" on="1"/>
        <pt x="184" y="311" on="0"/>
        <pt x="74" y="397" on="0"/>
        <pt x="74" y="474" on="1"/>
        <pt x="74" y="527" on="0"/>
        <pt x="134" y="617" on="0"/>
        <pt x="246" y="670" on="0"/>
        <pt x="320" y="670" on="1"/>
      </contour>
    </TTGlyph>
    <TTGlyph name="S.swsh" xMin="66" yMin="-110" xMax="585" yMax="670">
      <contour>
        <pt x="201" y="-110" on="0"/>
        <pt x="66" y="-14" on="0"/>
        <pt x="66" y="75" on="1"/>
        <pt x="66" y="93" on="0"/>
        <pt x="69" y="114" on="1"/>
        <pt x="144" y="136" on="1"/>
        <pt x="141" y="115" on="0"/>
        <pt x="141" y="97" on="1"/>
        <pt x="141" y="30" on="0"/>
        <pt x="233" y="-35" on="0"/>
        <pt x="329" y="-35" on="1"/>
        <pt x="414" y="-35" on="0"/>
        <pt x="502" y="36" on="0"/>
        <pt x="502" y="104" on="1"/>
        <pt x="502" y="137" on="0"/>
        <pt x="468" y="184" on="0"/>
        <pt x="388" y="223" on="0"/>
        <pt x="318" y="241" on="1"/>
        <pt x="188" y="274" on="0"/>
        <pt x="79" y="372" on="0"/>
        <pt x="79" y="450" on="1"/>
        <pt x="79" y="516" on="0"/>
        <pt x="141" y="616" on="0"/>
        <pt x="254" y="670" on="0"/>
        <pt x="330" y="670" on="1"/>
        <pt x="438" y="670" on="0"/>
        <pt x="562" y="574" on="0"/>
        <pt x="572" y="482" on="1"/>
        <pt x="493" y="451" on="1"/>
        <pt x="490" y="528" on="0"/>
        <pt x="414" y="595" on="0"/>
        <pt x="331" y="595" on="1"/>
        <pt x="251" y="595" on="0"/>
        <pt x="163" y="524" on="0"/>
        <pt x="163" y="459" on="1"/>
        <pt x="163" y="423" on="0"/>
        <pt x="198" y="372" on="0"/>
        <pt x="281" y="331" on="0"/>
        <pt x="353" y="312" on="1"/>
        <pt x="441" y="289" on="0"/>
        <pt x="541" y="235" on="0"/>
        <pt x="585" y="161" on="0"/>
        <pt x="585" y="108" on="1"/>
        <pt x="585" y="43" on="0"/>
        <pt x="521" y="-56" on="0"/>
        <pt x="403" y="-110" on="0"/>
        <pt x="326" y="-110" on="1"/>
      </contour>
    </TTGlyph>
    <TTGlyph name="Sacute" xMin="48" yMin="-10" xMax="581" yMax="902">
      <component glyphName="S" x="0" y="0" flags="0x0"/>
      <component glyphName="acutecomb.cap" x="326" y="0" flags="0x0"/>
    </TTGlyph>
    <TTGlyph name="Sacute.swsh" xMin="66" yMin="-110" xMax="585" yMax="902">
      <component glyphName="S.swsh" x="0" y="0" flags="0x0"/>
      <component glyphName="acutecomb.cap" x="326" y="0" flags="0x0"/>
    </TTGlyph>
    <TTGlyph name="Scaron" xMin="48" yMin="-10" xMax="581" yMax="902">
      <component glyphName="S" x="0" y="0" flags="0x0"/>
      <component glyphName="uni030C.cap" x="326" y="0" flags="0x0"/>
    </TTGlyph>
    <TTGlyph name="Scaron.swsh" xMin="66" yMin="-110" xMax="585" yMax="902">
      <component glyphName="S.swsh" x="0" y="0" flags="0x0"/>
      <component glyphName="uni030C.cap" x="326" y="0" flags="0x0"/>
    </TTGlyph>
    <TTGlyph name="Scedilla.sc" xMin="43" yMin="-215" xMax="525" yMax="568">
      <contour>
        <pt x="525" y="89" on="0"/>
        <pt x="430" y="6" on="0"/>
        <pt x="349" y="-5" on="1"/>
        <pt x="377" y="-25" on="0"/>
        <pt x="406" y="-80" on="0"/>
        <pt x="406" y="-108" on="1"/>
        <pt x="406" y="-152" on="0"/>
        <pt x="343" y="-215" on="0"/>
        <pt x="290" y="-215" on="1"/>
        <pt x="219" y="-215" on="0"/>
        <pt x="180" y="-180" on="1"/>
        <pt x="210" y="-125" on="1"/>
        <pt x="223" y="-138" on="0"/>
        <pt x="259" y="-155" on="0"/>
        <pt x="279" y="-155" on="1"/>
        <pt x="303" y="-155" on="0"/>
        <pt x="336" y="-123" on="0"/>
        <pt x="336" y="-97" on="1"/>
        <pt x="336" y="-68" on="0"/>
        <pt x="302" y="-28" on="0"/>
        <pt x="257" y="-7" on="1"/>
        <pt x="180" y="0" on="0"/>
        <pt x="73" y="61" on="0"/>
        <pt x="43" y="110" on="1"/>
        <pt x="103" y="165" on="1"/>
        <pt x="127" y="115" on="0"/>
        <pt x="223" y="61" on="0"/>
        <pt x="295" y="61" on="1"/>
        <pt x="363" y="61" on="0"/>
        <pt x="445" y="107" on="0"/>
        <pt x="445" y="148" on="1"/>
        <pt x="445" y="177" on="0"/>
        <pt x="403" y="212" on="0"/>
        <pt x="341" y="229" on="0"/>
        <pt x="286" y="240" on="1"/>
        <pt x="216" y="253" on="0"/>
        <pt x="127" y="281" on="0"/>
        <pt x="65" y="345" on="0"/>
        <pt x="65" y="400" on="1"/>
        <pt x="65" y="446" on="0"/>
        <pt x="119" y="523" on="0"/>
        <pt x="222" y="568" on="0"/>
        <pt x="290" y="568" on="1"/>
        <pt x="371" y="568" on="0"/>
        <pt x="485" y="511" on="0"/>
        <pt x="521" y="452" on="1"/>
        <pt x="461" y="398" on="1"/>
        <pt x="434" y="452" on="0"/>
        <pt x="356" y="499" on="0"/>
        <pt x="291" y="499" on="1"/>
        <pt x="224" y="499" on="0"/>
        <pt x="145" y="447" on="0"/>
        <pt x="145" y="408" on="1"/>
        <pt x="145" y="378" on="0"/>
        <pt x="187" y="342" on="0"/>
        <pt x="251" y="323" on="0"/>
        <pt x="306" y="313" on="1"/>
        <pt x="377" y="299" on="0"/>
        <pt x="463" y="271" on="0"/>
        <pt x="525" y="207" on="0"/>
        <pt x="525" y="152" on="1"/>
      </contour>
    </TTGlyph>
    <TTGlyph name="Scedilla.swsh" xMin="66" yMin="-315" xMax="585" yMax="670">
      <contour>
        <pt x="585" y="18" on="0"/>
        <pt x="466" y="-98" on="0"/>
        <pt x="365" y="-108" on="1"/>
        <pt x="391" y="-129" on="0"/>
        <pt x="418" y="-181" on="0"/>
        <pt x="418" y="-208" on="1"/>
        <pt x="418" y="-252" on="0"/>
        <pt x="355" y="-315" on="0"/>
        <pt x="302" y="-315" on="1"/>
        <pt x="231" y="-315" on="0"/>
        <pt x="192" y="-280" on="1"/>
        <pt x="222" y="-225" on="1"/>
        <pt x="235" y="-238" on="0"/>
        <pt x="271" y="-255" on="0"/>
        <pt x="291" y="-255" on="1"/>
        <pt x="315" y="-255" on="0"/>
        <pt x="348" y="-223" on="0"/>
        <pt x="348" y="-197" on="1"/>
        <pt x="348" y="-168" on="0"/>
        <pt x="315" y="-129" on="0"/>
        <pt x="271" y="-107" on="1"/>
        <pt x="172" y="-97" on="0"/>
        <pt x="66" y="-4" on="0"/>
        <pt x="66" y="75" on="1"/>
        <pt x="66" y="93" on="0"/>
        <pt x="69" y="114" on="1"/>
        <pt x="144" y="136" on="1"/>
        <pt x="141" y="115" on="0"/>
        <pt x="141" y="97" on="1"/>
        <pt x="141" y="30" on="0"/>
        <pt x="233" y="-35" on="0"/>
        <pt x="329" y="-35" on="1"/>
        <pt x="414" y="-35" on="0"/>
        <pt x="502" y="36" on="0"/>
        <pt x="502" y="104" on="1"/>
        <pt x="502" y="137" on="0"/>
        <pt x="468" y="184" on="0"/>
        <pt x="388" y="223" on="0"/>
        <pt x="318" y="241" on="1"/>
        <pt x="188" y="274" on="0"/>
        <pt x="79" y="372" on="0"/>
        <pt x="79" y="450" on="1"/>
        <pt x="79" y="516" on="0"/>
        <pt x="141" y="616" on="0"/>
        <pt x="254" y="670" on="0"/>
        <pt x="330" y="670" on="1"/>
        <pt x="438" y="670" on="0"/>
        <pt x="562" y="574" on="0"/>
        <pt x="572" y="482" on="1"/>
        <pt x="493" y="451" on="1"/>
        <pt x="490" y="528" on="0"/>
        <pt x="414" y="595" on="0"/>
        <pt x="331" y="595" on="1"/>
        <pt x="251" y="595" on="0"/>
        <pt x="163" y="524" on="0"/>
        <pt x="163" y="459" on="1"/>
        <pt x="163" y="423" on="0"/>
        <pt x="198" y="372" on="0"/>
        <pt x="281" y="331" on="0"/>
        <pt x="353" y="312" on="1"/>
        <pt x="441" y="289" on="0"/>
        <pt x="541" y="235" on="0"/>
        <pt x="585" y="161" on="0"/>
        <pt x="585" y="108" on="1"/>
      </contour>
    </TTGlyph>
    <TTGlyph name="Scommaaccent.sc" xMin="43" yMin="-237" xMax="525" yMax="568">
      <component glyphName="s.sc" x="0" y="0" flags="0x0"/>
      <component glyphName="uni0326" x="319" y="0" flags="0x0"/>
    </TTGlyph>
    <TTGlyph name="Scommaaccent.swsh" xMin="66" yMin="-337" xMax="585" yMax="670">
      <component glyphName="S.swsh" x="0" y="0" flags="0x0"/>
      <component glyphName="uni0326" x="336" y="-100" flags="0x4"/>
    </TTGlyph>
    <TTGlyph name="T" xMin="32" yMin="0" xMax="572" yMax="660">
      <contour>
        <pt x="572" y="585" on="1"/>
        <pt x="342" y="585" on="1"/>
        <pt x="342" y="0" on="1"/>
        <pt x="262" y="0" on="1"/>
        <pt x="262" y="585" on="1"/>
        <pt x="32" y="585" on="1"/>
        <pt x="32" y="660" on="1"/>
        <pt x="572" y="660" on="1"/>
      </contour>
    </TTGlyph>
    <TTGlyph name="T.swsh" xMin="10" yMin="0" xMax="677" yMax="660">
      <contour>
        <pt x="677" y="585" on="1"/>
        <pt x="447" y="585" on="1"/>
        <pt x="447" y="0" on="1"/>
        <pt x="367" y="0" on="1"/>
        <pt x="367" y="585" on="1"/>
        <pt x="236" y="585" on="1"/>
        <pt x="90" y="585" on="0"/>
        <pt x="90" y="480" on="1"/>
        <pt x="90" y="435" on="0"/>
        <pt x="151" y="374" on="0"/>
        <pt x="200" y="366" on="1"/>
        <pt x="169" y="302" on="1"/>
        <pt x="102" y="312" on="0"/>
        <pt x="10" y="410" on="0"/>
        <pt x="10" y="481" on="1"/>
        <pt x="10" y="564" on="0"/>
        <pt x="123" y="660" on="0"/>
        <pt x="219" y="660" on="1"/>
        <pt x="677" y="660" on="1"/>
      </contour>
    </TTGlyph>
    <TTGlyph name="Tcaron" xMin="32" yMin="0" xMax="572" yMax="902">
      <component glyphName="T" x="0" y="0" flags="0x0"/>
      <component glyphName="uni030C.cap" x="302" y="0" flags="0x0"/>
    </TTGlyph>
    <TTGlyph name="Tcaron.swsh" xMin="10" yMin="0" xMax="677" yMax="902">
      <component glyphName="T.swsh" x="0" y="0" flags="0x0"/>
      <component glyphName="uni030C.cap" x="407" y="0" flags="0x0"/>
    </TTGlyph>
    <TTGlyph name="Thorn" xMin="108" yMin="0" xMax="573" yMax="660">
      <contour>
        <pt x="449" y="542" on="0"/>
        <pt x="573" y="437" on="0"/>
        <pt x="573" y="337" on="1"/>
        <pt x="573" y="238" on="0"/>
        <pt x="449" y="132" on="0"/>
        <pt x="327" y="132" on="1"/>
        <pt x="188" y="132" on="1"/>
        <pt x="188" y="0" on="1"/>
        <pt x="108" y="0" on="1"/>
        <pt x="108" y="660" on="1"/>
        <pt x="188" y="660" on="1"/>
        <pt x="188" y="542" on="1"/>
        <pt x="327" y="542" on="1"/>
      </contour>
      <contour>
        <pt x="413" y="207" on="0"/>
        <pt x="489" y="271" on="0"/>
        <pt x="489" y="337" on="1"/>
        <pt x="489" y="403" on="0"/>
        <pt x="413" y="467" on="0"/>
        <pt x="335" y="467" on="1"/>
        <pt x="188" y="467" on="1"/>
        <pt x="188" y="207" on="1"/>
        <pt x="335" y="207" on="1"/>
      </contour>
    </TTGlyph>
    <TTGlyph name="U" xMin="101" yMin="-10" xMax="619" yMax="660">
      <contour>
        <pt x="619" y="246" on="1"/>
        <pt x="619" y="119" on="0"/>
        <pt x="486" y="-10" on="0"/>
        <pt x="360" y="-10" on="1"/>
        <pt x="234" y="-10" on="0"/>
        <pt x="101" y="120" on="0"/>
        <pt x="101" y="246" on="1"/>
        <pt x="101" y="660" on="1"/>
        <pt x="181" y="660" on="1"/>
        <pt x="181" y="266" on="1"/>
        <pt x="181" y="162" on="0"/>
        <pt x="268" y="65" on="0"/>
        <pt x="360" y="65" on="1"/>
        <pt x="452" y="65" on="0"/>
        <pt x="539" y="162" on="0"/>
        <pt x="539" y="266" on="1"/>
        <pt x="539" y="660" on="1"/>
        <pt x="619" y="660" on="1"/>
      </contour>
    </TTGlyph>
    <TTGlyph name="Uacute" xMin="101" yMin="-10" xMax="619" yMax="902">
      <component glyphName="U" x="0" y="0" flags="0x0"/>
      <component glyphName="acutecomb.cap" x="360" y="0" flags="0x0"/>
    </TTGlyph>
    <TTGlyph name="Ucircumflex" xMin="101" yMin="-10" xMax="619" yMax="898">
      <component glyphName="U" x="0" y="0" flags="0x0"/>
      <component glyphName="uni0302.cap" x="360" y="0" flags="0x0"/>
    </TTGlyph>
    <TTGlyph name="Udieresis" xMin="101" yMin="-10" xMax="619" yMax="856">
      <component glyphName="U" x="0" y="0" flags="0x0"/>
      <component glyphName="dieresis" x="107" y="160" flags="0x4"/>
    </TTGlyph>
    <TTGlyph name="Udieresis.titl" xMin="101" yMin="-10" xMax="619" yMax="662">
      <contour>
        <pt x="264" y="553" on="0"/>
        <pt x="234" y="583" on="0"/>
        <pt x="234" y="608" on="1"/>
        <pt x="234" y="632" on="0"/>
        <pt x="264" y="662" on="0"/>
        <pt x="288" y="662" on="1"/>
        <pt x="313" y="662" on="0"/>
        <pt x="343" y="632" on="0"/>
        <pt x="343" y="608" on="1"/>
        <pt x="343" y="583" on="0"/>
        <pt x="313" y="553" on="0"/>
        <pt x="288" y="553" on="1"/>
      </contour>
      <contour>
        <pt x="407" y="553" on="0"/>
        <pt x="377" y="583" on="0"/>
        <pt x="377" y="608" on="1"/>
        <pt x="377" y="632" on="0"/>
        <pt x="407" y="662" on="0"/>
        <pt x="432" y="662" on="1"/>
        <pt x="456" y="662" on="0"/>
        <pt x="486" y="632" on="0"/>
        <pt x="486" y="608" on="1"/>
        <pt x="486" y="583" on="0"/>
        <pt x="456" y="553" on="0"/>
        <pt x="432" y="553" on="1"/>
      </contour>
      <contour>
        <pt x="619" y="246" on="1"/>
        <pt x="619" y="119" on="0"/>
        <pt x="486" y="-10" on="0"/>
        <pt x="360" y="-10" on="1"/>
        <pt x="234" y="-10" on="0"/>
        <pt x="101" y="120" on="0"/>
        <pt x="101" y="246" on="1"/>
        <pt x="101" y="660" on="1"/>
        <pt x="181" y="660" on="1"/>
        <pt x="181" y="266" on="1"/>
        <pt x="181" y="162" on="0"/>
        <pt x="268" y="65" on="0"/>
        <pt x="360" y="65" on="1"/>
        <pt x="452" y="65" on="0"/>
        <pt x="539" y="162" on="0"/>
        <pt x="539" y="266" on="1"/>
        <pt x="539" y="660" on="1"/>
        <pt x="619" y="660" on="1"/>
      </contour>
    </TTGlyph>
    <TTGlyph name="Ugrave" xMin="101" yMin="-10" xMax="619" yMax="902">
      <component glyphName="U" x="0" y="0" flags="0x0"/>
      <component glyphName="gravecomb.cap" x="375" y="0" flags="0x0"/>
    </TTGlyph>
    <TTGlyph name="Uhungarumlaut" xMin="101" yMin="-10" xMax="619" yMax="902">
      <component glyphName="U" x="0" y="0" flags="0x0"/>
      <component glyphName="acutecomb.cap" x="457" y="0" flags="0x0"/>
      <component glyphName="acutecomb.cap" x="280" y="0" flags="0x0"/>
    </TTGlyph>
    <TTGlyph name="Umacron" xMin="101" yMin="-10" xMax="619" yMax="823">
      <component glyphName="U" x="0" y="0" flags="0x0"/>
      <component glyphName="macron" x="110" y="160" flags="0x4"/>
    </TTGlyph>
    <TTGlyph name="Uogonek" xMin="101" yMin="-215" xMax="619" yMax="660">
      <contour>
        <pt x="619" y="660" on="1"/>
        <pt x="619" y="246" on="1"/>
        <pt x="619" y="143" on="0"/>
        <pt x="529" y="18" on="0"/>
        <pt x="443" y="-2" on="1"/>
        <pt x="346" y="-52" on="0"/>
        <pt x="346" y="-105" on="1"/>
        <pt x="346" y="-129" on="0"/>
        <pt x="381" y="-158" on="0"/>
        <pt x="410" y="-158" on="1"/>
        <pt x="446" y="-158" on="0"/>
        <pt x="465" y="-146" on="1"/>
        <pt x="481" y="-197" on="1"/>
        <pt x="467" y="-206" on="0"/>
        <pt x="423" y="-215" on="0"/>
        <pt x="400" y="-215" on="1"/>
        <pt x="346" y="-215" on="0"/>
        <pt x="281" y="-160" on="0"/>
        <pt x="281" y="-116" on="1"/>
        <pt x="281" y="-82" on="0"/>
        <pt x="310" y="-32" on="0"/>
        <pt x="339" y="-10" on="1"/>
        <pt x="223" y="-4" on="0"/>
        <pt x="101" y="125" on="0"/>
        <pt x="101" y="246" on="1"/>
        <pt x="101" y="660" on="1"/>
        <pt x="181" y="660" on="1"/>
        <pt x="181" y="266" on="1"/>
        <pt x="181" y="162" on="0"/>
        <pt x="268" y="65" on="0"/>
        <pt x="360" y="65" on="1"/>
        <pt x="452" y="65" on="0"/>
        <pt x="539" y="162" on="0"/>
        <pt x="539" y="266" on="1"/>
        <pt x="539" y="660" on="1"/>
      </contour>
    </TTGlyph>
    <TTGlyph name="Uring" xMin="101" yMin="-10" xMax="619" yMax="892">
      <component glyphName="U" x="0" y="0" flags="0x0"/>
      <component glyphName="ring" x="111" y="80" flags="0x4"/>
    </TTGlyph>
    <TTGlyph name="V" xMin="28" yMin="0" xMax="620" yMax="660">
      <contour>
        <pt x="370" y="0" on="1"/>
        <pt x="279" y="0" on="1"/>
        <pt x="28" y="660" on="1"/>
        <pt x="114" y="660" on="1"/>
        <pt x="282" y="204" on="1"/>
        <pt x="324" y="73" on="1"/>
        <pt x="366" y="203" on="1"/>
        <pt x="534" y="660" on="1"/>
        <pt x="620" y="660" on="1"/>
      </contour>
    </TTGlyph>
    <TTGlyph name="W" xMin="36" yMin="0" xMax="925" yMax="660">
      <contour>
        <pt x="330" y="0" on="1"/>
        <pt x="231" y="0" on="1"/>
        <pt x="36" y="660" on="1"/>
        <pt x="122" y="660" on="1"/>
        <pt x="281" y="63" on="1"/>
        <pt x="437" y="660" on="1"/>
        <pt x="528" y="660" on="1"/>
        <pt x="684" y="61" on="1"/>
        <pt x="844" y="660" on="1"/>
        <pt x="925" y="660" on="1"/>
        <pt x="731" y="0" on="1"/>
        <pt x="632" y="0" on="1"/>
        <pt x="515" y="428" on="1"/>
        <pt x="481" y="577" on="1"/>
        <pt x="480" y="577" on="1"/>
        <pt x="446" y="428" on="1"/>
      </contour>
    </TTGlyph>
    <TTGlyph name="W.swsh" xMin="10" yMin="0" xMax="1180" yMax="660">
      <contour>
        <pt x="1180" y="660" on="1"/>
        <pt x="986" y="0" on="1"/>
        <pt x="887" y="0" on="1"/>
        <pt x="770" y="428" on="1"/>
        <pt x="736" y="577" on="1"/>
        <pt x="735" y="577" on="1"/>
        <pt x="701" y="428" on="1"/>
        <pt x="585" y="0" on="1"/>
        <pt x="486" y="0" on="1"/>
        <pt x="310" y="595" on="1"/>
        <pt x="236" y="595" on="1"/>
        <pt x="168" y="595" on="0"/>
        <pt x="90" y="537" on="0"/>
        <pt x="90" y="480" on="1"/>
        <pt x="90" y="435" on="0"/>
        <pt x="151" y="374" on="0"/>
        <pt x="200" y="366" on="1"/>
        <pt x="169" y="302" on="1"/>
        <pt x="102" y="312" on="0"/>
        <pt x="10" y="410" on="0"/>
        <pt x="10" y="481" on="1"/>
        <pt x="10" y="564" on="0"/>
        <pt x="123" y="660" on="0"/>
        <pt x="219" y="660" on="1"/>
        <pt x="377" y="660" on="1"/>
        <pt x="536" y="63" on="1"/>
        <pt x="692" y="660" on="1"/>
        <pt x="783" y="660" on="1"/>
        <pt x="939" y="61" on="1"/>
        <pt x="1099" y="660" on="1"/>
      </contour>
    </TTGlyph>
    <TTGlyph name="X" xMin="25" yMin="0" xMax="569" yMax="660">
      <contour>
        <pt x="476" y="0" on="1"/>
        <pt x="297" y="273" on="1"/>
        <pt x="118" y="0" on="1"/>
        <pt x="25" y="0" on="1"/>
        <pt x="256" y="336" on="1"/>
        <pt x="45" y="660" on="1"/>
        <pt x="140" y="660" on="1"/>
        <pt x="308" y="402" on="1"/>
        <pt x="477" y="660" on="1"/>
        <pt x="562" y="660" on="1"/>
        <pt x="349" y="340" on="1"/>
        <pt x="569" y="0" on="1"/>
      </contour>
    </TTGlyph>
    <TTGlyph name="Y" xMin="10" yMin="0" xMax="562" yMax="660">
      <contour>
        <pt x="326" y="258" on="1"/>
        <pt x="326" y="0" on="1"/>
        <pt x="246" y="0" on="1"/>
        <pt x="246" y="258" on="1"/>
        <pt x="10" y="660" on="1"/>
        <pt x="105" y="660" on="1"/>
        <pt x="286" y="340" on="1"/>
        <pt x="467" y="660" on="1"/>
        <pt x="562" y="660" on="1"/>
      </contour>
    </TTGlyph>
    <TTGlyph name="Yacute" xMin="10" yMin="0" xMax="562" yMax="902">
      <component glyphName="Y" x="0" y="0" flags="0x0"/>
      <component glyphName="acutecomb.cap" x="286" y="0" flags="0x0"/>
    </TTGlyph>
    <TTGlyph name="Ydieresis" xMin="10" yMin="0" xMax="562" yMax="856">
      <component glyphName="Y" x="0" y="0" flags="0x0"/>
      <component glyphName="dieresis" x="33" y="160" flags="0x4"/>
    </TTGlyph>
    <TTGlyph name="Z" xMin="56" yMin="0" xMax="575" yMax="660">
      <contour>
        <pt x="575" y="75" on="1"/>
        <pt x="575" y="0" on="1"/>
        <pt x="56" y="0" on="1"/>
        <pt x="56" y="71" on="1"/>
        <pt x="467" y="585" on="1"/>
        <pt x="66" y="585" on="1"/>
        <pt x="66" y="660" on="1"/>
        <pt x="562" y="660" on="1"/>
        <pt x="562" y="589" on="1"/>
        <pt x="151" y="75" on="1"/>
      </contour>
    </TTGlyph>
    <TTGlyph name="Zacute" xMin="56" yMin="0" xMax="575" yMax="902">
      <component glyphName="Z" x="0" y="0" flags="0x0"/>
      <component glyphName="acutecomb.cap" x="306" y="0" flags="0x0"/>
    </TTGlyph>
    <TTGlyph name="Zcaron" xMin="56" yMin="0" xMax="575" yMax="902">
      <component glyphName="Z" x="0" y="0" flags="0x0"/>
      <component glyphName="uni030C.cap" x="306" y="0" flags="0x0"/>
    </TTGlyph>
    <TTGlyph name="Zdotaccent" xMin="56" yMin="0" xMax="575" yMax="876">
      <component glyphName="Z" x="0" y="0" flags="0x0"/>
      <component glyphName="dotaccent" x="56" y="160" flags="0x4"/>
    </TTGlyph>
    <TTGlyph name="a" xMin="57" yMin="-10" xMax="543" yMax="510">
      <contour>
        <pt x="523" y="58" on="0"/>
        <pt x="543" y="63" on="1"/>
        <pt x="538" y="0" on="1"/>
        <pt x="510" y="-10" on="0"/>
        <pt x="478" y="-10" on="1"/>
        <pt x="439" y="-10" on="0"/>
        <pt x="394" y="24" on="0"/>
        <pt x="388" y="64" on="1"/>
        <pt x="365" y="29" on="0"/>
        <pt x="276" y="-10" on="0"/>
        <pt x="227" y="-10" on="1"/>
        <pt x="153" y="-10" on="0"/>
        <pt x="57" y="59" on="0"/>
        <pt x="57" y="124" on="1"/>
        <pt x="57" y="181" on="0"/>
        <pt x="157" y="264" on="0"/>
        <pt x="252" y="280" on="1"/>
        <pt x="385" y="302" on="1"/>
        <pt x="385" y="330" on="1"/>
        <pt x="385" y="380" on="0"/>
        <pt x="323" y="440" on="0"/>
        <pt x="268" y="440" on="1"/>
        <pt x="218" y="440" on="0"/>
        <pt x="145" y="392" on="0"/>
        <pt x="125" y="345" on="1"/>
        <pt x="66" y="388" on="1"/>
        <pt x="86" y="444" on="0"/>
        <pt x="195" y="510" on="0"/>
        <pt x="268" y="510" on="1"/>
        <pt x="357" y="510" on="0"/>
        <pt x="465" y="424" on="0"/>
        <pt x="465" y="340" on="1"/>
        <pt x="465" y="94" on="1"/>
        <pt x="465" y="76" on="0"/>
        <pt x="483" y="58" on="0"/>
        <pt x="503" y="58" on="1"/>
      </contour>
      <contour>
        <pt x="294" y="60" on="0"/>
        <pt x="385" y="120" on="0"/>
        <pt x="385" y="168" on="1"/>
        <pt x="385" y="237" on="1"/>
        <pt x="273" y="216" on="1"/>
        <pt x="206" y="204" on="0"/>
        <pt x="140" y="159" on="0"/>
        <pt x="140" y="124" on="1"/>
        <pt x="140" y="93" on="0"/>
        <pt x="188" y="60" on="0"/>
        <pt x="231" y="60" on="1"/>
      </contour>
    </TTGlyph>
    <TTGlyph name="a.sc" xMin="23" yMin="0" xMax="572" yMax="560">
      <contour>
        <pt x="427" y="153" on="1"/>
        <pt x="168" y="153" on="1"/>
        <pt x="107" y="0" on="1"/>
        <pt x="23" y="0" on="1"/>
        <pt x="250" y="560" on="1"/>
        <pt x="345" y="560" on="1"/>
        <pt x="572" y="0" on="1"/>
        <pt x="488" y="0" on="1"/>
      </contour>
      <contour>
        <pt x="400" y="222" on="1"/>
        <pt x="323" y="415" on="1"/>
        <pt x="298" y="489" on="1"/>
        <pt x="297" y="489" on="1"/>
        <pt x="272" y="415" on="1"/>
        <pt x="195" y="222" on="1"/>
      </contour>
    </TTGlyph>
    <TTGlyph name="aacute" xMin="57" yMin="-10" xMax="543" yMax="750">
      <component glyphName="a" x="0" y="0" flags="0x0"/>
      <component glyphName="acute" x="19" y="0" flags="0x0"/>
    </TTGlyph>
    <TTGlyph name="aacute.sc" xMin="23" yMin="0" xMax="572" yMax="802">
      <component glyphName="a.sc" x="0" y="0" flags="0x0"/>
      <component glyphName="acutecomb.cap" x="297" y="-100" flags="0x4"/>
    </TTGlyph>
    <TTGlyph name="abreve" xMin="57" yMin="-10" xMax="543" yMax="725">
      <component glyphName="a" x="0" y="0" flags="0x0"/>
      <component glyphName="breve" x="26" y="0" flags="0x0"/>
    </TTGlyph>
    <TTGlyph name="abreve.sc" xMin="23" yMin="0" xMax="572" yMax="785">
      <component glyphName="a.sc" x="0" y="0" flags="0x0"/>
      <component glyphName="breve" x="47" y="60" flags="0x4"/>
    </TTGlyph>
    <TTGlyph name="acircumflex" xMin="57" yMin="-10" xMax="543" yMax="743">
      <component glyphName="a" x="0" y="0" flags="0x0"/>
      <component glyphName="circumflex" x="26" y="0" flags="0x0"/>
    </TTGlyph>
    <TTGlyph name="acircumflex.sc" xMin="23" yMin="0" xMax="572" yMax="798">
      <component glyphName="a.sc" x="0" y="0" flags="0x0"/>
      <component glyphName="uni0302.cap" x="297" y="-100" flags="0x4"/>
    </TTGlyph>
    <TTGlyph name="acute" xMin="208" yMin="583" xMax="371" yMax="750">
      <contour>
        <pt x="371" y="750" on="1"/>
        <pt x="273" y="583" on="1"/>
        <pt x="208" y="583" on="1"/>
        <pt x="284" y="750" on="1"/>
      </contour>
    </TTGlyph>
    <TTGlyph name="acutecmb" xMin="-49" yMin="583" xMax="114" yMax="750">
      <component glyphName="acute" x="-257" y="0" flags="0x0"/>
    </TTGlyph>
    <TTGlyph name="acutecomb.asc" xMin="-24" yMin="800" xMax="111" yMax="930">
      <contour>
        <pt x="111" y="930" on="1"/>
        <pt x="38" y="800" on="1"/>
        <pt x="-24" y="800" on="1"/>
        <pt x="28" y="930" on="1"/>
      </contour>
    </TTGlyph>
    <TTGlyph name="acutecomb.cap" xMin="-43" yMin="743" xMax="107" yMax="902">
      <contour>
        <pt x="107" y="902" on="1"/>
        <pt x="21" y="743" on="1"/>
        <pt x="-43" y="743" on="1"/>
        <pt x="23" y="902" on="1"/>
      </contour>
    </TTGlyph>
    <TTGlyph name="adieresis" xMin="57" yMin="-10" xMax="543" yMax="696">
      <component glyphName="a" x="0" y="0" flags="0x0"/>
      <component glyphName="dieresis" x="23" y="0" flags="0x0"/>
    </TTGlyph>
    <TTGlyph name="adieresis.sc" xMin="23" yMin="0" xMax="572" yMax="756">
      <component glyphName="a.sc" x="0" y="0" flags="0x0"/>
      <component glyphName="dieresis" x="44" y="60" flags="0x4"/>
    </TTGlyph>
    <TTGlyph name="ae" xMin="57" yMin="-10" xMax="825" yMax="510">
      <contour>
        <pt x="825" y="248" on="0"/>
        <pt x="821" y="220" on="1"/>
        <pt x="464" y="220" on="1"/>
        <pt x="472" y="145" on="0"/>
        <pt x="555" y="60" on="0"/>
        <pt x="617" y="60" on="1"/>
        <pt x="671" y="60" on="0"/>
        <pt x="734" y="97" on="0"/>
        <pt x="748" y="134" on="1"/>
        <pt x="815" y="99" on="1"/>
        <pt x="784" y="44" on="0"/>
        <pt x="694" y="-10" on="0"/>
        <pt x="617" y="-10" on="1"/>
        <pt x="548" y="-10" on="0"/>
        <pt x="448" y="51" on="0"/>
        <pt x="424" y="113" on="1"/>
        <pt x="404" y="53" on="0"/>
        <pt x="294" y="-10" on="0"/>
        <pt x="220" y="-10" on="1"/>
        <pt x="146" y="-10" on="0"/>
        <pt x="57" y="63" on="0"/>
        <pt x="57" y="124" on="1"/>
        <pt x="57" y="182" on="0"/>
        <pt x="153" y="261" on="0"/>
        <pt x="243" y="273" on="1"/>
        <pt x="392" y="292" on="1"/>
        <pt x="392" y="330" on="1"/>
        <pt x="392" y="380" on="0"/>
        <pt x="327" y="440" on="0"/>
        <pt x="269" y="440" on="1"/>
        <pt x="219" y="440" on="0"/>
        <pt x="145" y="392" on="0"/>
        <pt x="125" y="345" on="1"/>
        <pt x="66" y="388" on="1"/>
        <pt x="88" y="445" on="0"/>
        <pt x="198" y="510" on="0"/>
        <pt x="271" y="510" on="1"/>
        <pt x="330" y="510" on="0"/>
        <pt x="416" y="458" on="0"/>
        <pt x="438" y="408" on="1"/>
        <pt x="466" y="456" on="0"/>
        <pt x="554" y="510" on="0"/>
        <pt x="611" y="510" on="1"/>
        <pt x="715" y="510" on="0"/>
        <pt x="825" y="378" on="0"/>
        <pt x="825" y="276" on="1"/>
      </contour>
      <contour>
        <pt x="552" y="440" on="0"/>
        <pt x="475" y="361" on="0"/>
        <pt x="466" y="291" on="1"/>
        <pt x="748" y="291" on="1"/>
        <pt x="741" y="362" on="0"/>
        <pt x="673" y="440" on="0"/>
        <pt x="611" y="440" on="1"/>
      </contour>
      <contour>
        <pt x="276" y="60" on="0"/>
        <pt x="348" y="94" on="0"/>
        <pt x="392" y="157" on="0"/>
        <pt x="392" y="198" on="1"/>
        <pt x="392" y="229" on="1"/>
        <pt x="264" y="209" on="1"/>
        <pt x="198" y="198" on="0"/>
        <pt x="140" y="159" on="0"/>
        <pt x="140" y="124" on="1"/>
        <pt x="140" y="60" on="0"/>
        <pt x="234" y="60" on="1"/>
      </contour>
    </TTGlyph>
    <TTGlyph name="ae.sc" xMin="-10" yMin="0" xMax="768" yMax="560">
      <contour>
        <pt x="768" y="69" on="1"/>
        <pt x="768" y="0" on="1"/>
        <pt x="364" y="0" on="1"/>
        <pt x="364" y="181" on="1"/>
        <pt x="170" y="181" on="1"/>
        <pt x="71" y="0" on="1"/>
        <pt x="-10" y="0" on="1"/>
        <pt x="302" y="560" on="1"/>
        <pt x="755" y="560" on="1"/>
        <pt x="755" y="491" on="1"/>
        <pt x="442" y="491" on="1"/>
        <pt x="442" y="318" on="1"/>
        <pt x="682" y="318" on="1"/>
        <pt x="682" y="249" on="1"/>
        <pt x="442" y="249" on="1"/>
        <pt x="442" y="69" on="1"/>
      </contour>
      <contour>
        <pt x="364" y="250" on="1"/>
        <pt x="364" y="492" on="1"/>
        <pt x="341" y="492" on="1"/>
        <pt x="208" y="250" on="1"/>
      </contour>
    </TTGlyph>
    <TTGlyph name="agrave" xMin="57" yMin="-10" xMax="543" yMax="750">
      <component glyphName="a" x="0" y="0" flags="0x0"/>
      <component glyphName="grave" x="26" y="0" flags="0x0"/>
    </TTGlyph>
    <TTGlyph name="agrave.sc" xMin="23" yMin="0" xMax="572" yMax="802">
      <component glyphName="a.sc" x="0" y="0" flags="0x0"/>
      <component glyphName="gravecomb.cap" x="287" y="-100" flags="0x4"/>
    </TTGlyph>
    <TTGlyph name="amacron" xMin="57" yMin="-10" xMax="543" yMax="663">
      <component glyphName="a" x="0" y="0" flags="0x0"/>
      <component glyphName="macron" x="26" y="0" flags="0x0"/>
    </TTGlyph>
    <TTGlyph name="amacron.sc" xMin="23" yMin="0" xMax="572" yMax="723">
      <component glyphName="a.sc" x="0" y="0" flags="0x0"/>
      <component glyphName="macron" x="47" y="60" flags="0x4"/>
    </TTGlyph>
    <TTGlyph name="ampersand" xMin="48" yMin="-10" xMax="627" yMax="670">
      <contour>
        <pt x="538" y="77" on="0"/>
        <pt x="591" y="50" on="0"/>
        <pt x="627" y="50" on="1"/>
        <pt x="607" y="-10" on="1"/>
        <pt x="567" y="-10" on="0"/>
        <pt x="503" y="20" on="0"/>
        <pt x="456" y="67" on="1"/>
        <pt x="417" y="30" on="0"/>
        <pt x="317" y="-10" on="0"/>
        <pt x="258" y="-10" on="1"/>
        <pt x="197" y="-10" on="0"/>
        <pt x="101" y="34" on="0"/>
        <pt x="48" y="112" on="0"/>
        <pt x="48" y="161" on="1"/>
        <pt x="48" y="223" on="0"/>
        <pt x="121" y="320" on="0"/>
        <pt x="206" y="365" on="1"/>
        <pt x="163" y="421" on="0"/>
        <pt x="130" y="487" on="0"/>
        <pt x="130" y="524" on="1"/>
        <pt x="130" y="561" on="0"/>
        <pt x="166" y="628" on="0"/>
        <pt x="236" y="670" on="0"/>
        <pt x="285" y="670" on="1"/>
        <pt x="350" y="670" on="0"/>
        <pt x="439" y="603" on="0"/>
        <pt x="439" y="534" on="1"/>
        <pt x="439" y="477" on="0"/>
        <pt x="386" y="393" on="0"/>
        <pt x="309" y="348" on="1"/>
        <pt x="326" y="325" on="0"/>
        <pt x="375" y="265" on="1"/>
        <pt x="411" y="220" on="1"/>
        <pt x="455" y="167" on="1"/>
        <pt x="497" y="236" on="0"/>
        <pt x="497" y="328" on="1"/>
        <pt x="497" y="346" on="0"/>
        <pt x="496" y="355" on="1"/>
        <pt x="560" y="347" on="1"/>
        <pt x="561" y="323" on="1"/>
        <pt x="561" y="267" on="0"/>
        <pt x="529" y="162" on="0"/>
        <pt x="499" y="118" on="1"/>
      </contour>
      <contour>
        <pt x="246" y="602" on="0"/>
        <pt x="205" y="558" on="0"/>
        <pt x="205" y="525" on="1"/>
        <pt x="205" y="499" on="0"/>
        <pt x="229" y="450" on="0"/>
        <pt x="270" y="397" on="1"/>
        <pt x="331" y="430" on="0"/>
        <pt x="368" y="492" on="0"/>
        <pt x="368" y="532" on="1"/>
        <pt x="368" y="602" on="0"/>
        <pt x="284" y="602" on="1"/>
      </contour>
      <contour>
        <pt x="300" y="55" on="0"/>
        <pt x="380" y="85" on="0"/>
        <pt x="412" y="114" on="1"/>
        <pt x="378" y="151" on="0"/>
        <pt x="321" y="222" on="1"/>
        <pt x="247" y="313" on="1"/>
        <pt x="174" y="271" on="0"/>
        <pt x="123" y="206" on="0"/>
        <pt x="123" y="167" on="1"/>
        <pt x="123" y="119" on="0"/>
        <pt x="201" y="55" on="0"/>
        <pt x="255" y="55" on="1"/>
      </contour>
    </TTGlyph>
    <TTGlyph name="ampersand.sc" xMin="43" yMin="-8" xMax="562" yMax="568">
      <contour>
        <pt x="547" y="-8" on="1"/>
        <pt x="510" y="-8" on="0"/>
        <pt x="453" y="17" on="0"/>
        <pt x="412" y="55" on="1"/>
        <pt x="339" y="-8" on="0"/>
        <pt x="232" y="-8" on="1"/>
        <pt x="177" y="-8" on="0"/>
        <pt x="91" y="28" on="0"/>
        <pt x="43" y="93" on="0"/>
        <pt x="43" y="134" on="1"/>
        <pt x="43" y="187" on="0"/>
        <pt x="106" y="265" on="0"/>
        <pt x="181" y="304" on="1"/>
        <pt x="143" y="350" on="0"/>
        <pt x="115" y="409" on="0"/>
        <pt x="115" y="441" on="1"/>
        <pt x="115" y="474" on="0"/>
        <pt x="148" y="532" on="0"/>
        <pt x="214" y="568" on="0"/>
        <pt x="259" y="568" on="1"/>
        <pt x="321" y="568" on="0"/>
        <pt x="402" y="507" on="0"/>
        <pt x="402" y="450" on="1"/>
        <pt x="402" y="401" on="0"/>
        <pt x="351" y="329" on="0"/>
        <pt x="280" y="290" on="1"/>
        <pt x="337" y="226" on="1"/>
        <pt x="411" y="143" on="1"/>
        <pt x="453" y="205" on="0"/>
        <pt x="449" y="310" on="1"/>
        <pt x="507" y="294" on="1"/>
        <pt x="509" y="241" on="0"/>
        <pt x="481" y="141" on="0"/>
        <pt x="452" y="100" on="1"/>
        <pt x="485" y="68" on="0"/>
        <pt x="531" y="47" on="0"/>
        <pt x="562" y="49" on="1"/>
      </contour>
      <contour>
        <pt x="225" y="506" on="0"/>
        <pt x="187" y="469" on="0"/>
        <pt x="187" y="439" on="1"/>
        <pt x="187" y="416" on="0"/>
        <pt x="208" y="376" on="0"/>
        <pt x="243" y="334" on="1"/>
        <pt x="299" y="363" on="0"/>
        <pt x="333" y="413" on="0"/>
        <pt x="333" y="446" on="1"/>
        <pt x="333" y="476" on="0"/>
        <pt x="294" y="506" on="0"/>
        <pt x="259" y="506" on="1"/>
      </contour>
      <contour>
        <pt x="115" y="101" on="0"/>
        <pt x="184" y="50" on="0"/>
        <pt x="232" y="50" on="1"/>
        <pt x="314" y="50" on="0"/>
        <pt x="369" y="97" on="1"/>
        <pt x="289" y="183" on="1"/>
        <pt x="220" y="259" on="1"/>
        <pt x="160" y="225" on="0"/>
        <pt x="115" y="174" on="0"/>
        <pt x="115" y="141" on="1"/>
      </contour>
    </TTGlyph>
    <TTGlyph name="aogonek" xMin="57" yMin="-215" xMax="543" yMax="510">
      <contour>
        <pt x="508" y="-158" on="0"/>
        <pt x="527" y="-146" on="1"/>
        <pt x="543" y="-197" on="1"/>
        <pt x="515" y="-215" on="0"/>
        <pt x="466" y="-215" on="1"/>
        <pt x="412" y="-215" on="0"/>
        <pt x="349" y="-163" on="0"/>
        <pt x="349" y="-119" on="1"/>
        <pt x="349" y="-79" on="0"/>
        <pt x="395" y="-20" on="0"/>
        <pt x="439" y="3" on="1"/>
        <pt x="402" y="24" on="0"/>
        <pt x="390" y="68" on="1"/>
        <pt x="368" y="32" on="0"/>
        <pt x="277" y="-10" on="0"/>
        <pt x="227" y="-10" on="1"/>
        <pt x="153" y="-10" on="0"/>
        <pt x="57" y="59" on="0"/>
        <pt x="57" y="124" on="1"/>
        <pt x="57" y="181" on="0"/>
        <pt x="157" y="264" on="0"/>
        <pt x="252" y="280" on="1"/>
        <pt x="385" y="302" on="1"/>
        <pt x="385" y="330" on="1"/>
        <pt x="385" y="380" on="0"/>
        <pt x="323" y="440" on="0"/>
        <pt x="268" y="440" on="1"/>
        <pt x="218" y="440" on="0"/>
        <pt x="145" y="392" on="0"/>
        <pt x="125" y="345" on="1"/>
        <pt x="66" y="388" on="1"/>
        <pt x="86" y="444" on="0"/>
        <pt x="195" y="510" on="0"/>
        <pt x="268" y="510" on="1"/>
        <pt x="357" y="510" on="0"/>
        <pt x="465" y="424" on="0"/>
        <pt x="465" y="340" on="1"/>
        <pt x="465" y="94" on="1"/>
        <pt x="465" y="76" on="0"/>
        <pt x="483" y="58" on="0"/>
        <pt x="503" y="58" on="1"/>
        <pt x="523" y="58" on="0"/>
        <pt x="543" y="63" on="1"/>
        <pt x="538" y="0" on="1"/>
        <pt x="529" y="-3" on="0"/>
        <pt x="527" y="-4" on="1"/>
        <pt x="464" y="-24" on="0"/>
        <pt x="414" y="-74" on="0"/>
        <pt x="414" y="-105" on="1"/>
        <pt x="414" y="-130" on="0"/>
        <pt x="444" y="-158" on="0"/>
        <pt x="472" y="-158" on="1"/>
      </contour>
      <contour>
        <pt x="294" y="60" on="0"/>
        <pt x="385" y="120" on="0"/>
        <pt x="385" y="168" on="1"/>
        <pt x="385" y="237" on="1"/>
        <pt x="273" y="216" on="1"/>
        <pt x="205" y="202" on="0"/>
        <pt x="140" y="158" on="0"/>
        <pt x="140" y="124" on="1"/>
        <pt x="140" y="93" on="0"/>
        <pt x="188" y="60" on="0"/>
        <pt x="231" y="60" on="1"/>
      </contour>
    </TTGlyph>
    <TTGlyph name="aogonek.sc" xMin="23" yMin="-215" xMax="584" yMax="560">
      <contour>
        <pt x="584" y="-196" on="1"/>
        <pt x="570" y="-205" on="0"/>
        <pt x="525" y="-215" on="0"/>
        <pt x="502" y="-215" on="1"/>
        <pt x="447" y="-215" on="0"/>
        <pt x="383" y="-160" on="0"/>
        <pt x="383" y="-111" on="1"/>
        <pt x="383" y="-69" on="0"/>
        <pt x="431" y="-7" on="0"/>
        <pt x="482" y="15" on="1"/>
        <pt x="427" y="153" on="1"/>
        <pt x="168" y="153" on="1"/>
        <pt x="107" y="0" on="1"/>
        <pt x="23" y="0" on="1"/>
        <pt x="250" y="560" on="1"/>
        <pt x="345" y="560" on="1"/>
        <pt x="572" y="0" on="1"/>
        <pt x="501" y="-23" on="0"/>
        <pt x="448" y="-74" on="0"/>
        <pt x="448" y="-106" on="1"/>
        <pt x="448" y="-131" on="0"/>
        <pt x="482" y="-158" on="0"/>
        <pt x="512" y="-158" on="1"/>
        <pt x="549" y="-158" on="0"/>
        <pt x="568" y="-145" on="1"/>
      </contour>
      <contour>
        <pt x="400" y="222" on="1"/>
        <pt x="323" y="415" on="1"/>
        <pt x="298" y="489" on="1"/>
        <pt x="297" y="489" on="1"/>
        <pt x="272" y="415" on="1"/>
        <pt x="195" y="222" on="1"/>
      </contour>
    </TTGlyph>
    <TTGlyph name="approxequal" xMin="59" yMin="152" xMax="545" yMax="495">
      <contour>
        <pt x="220" y="495" on="0"/>
        <pt x="274" y="476" on="0"/>
        <pt x="313" y="458" on="1"/>
        <pt x="347" y="442" on="0"/>
        <pt x="394" y="425" on="0"/>
        <pt x="417" y="425" on="1"/>
        <pt x="453" y="425" on="0"/>
        <pt x="512" y="449" on="0"/>
        <pt x="545" y="480" on="1"/>
        <pt x="545" y="407" on="1"/>
        <pt x="515" y="379" on="0"/>
        <pt x="453" y="352" on="0"/>
        <pt x="416" y="352" on="1"/>
        <pt x="389" y="352" on="0"/>
        <pt x="338" y="370" on="0"/>
        <pt x="301" y="388" on="1"/>
        <pt x="262" y="406" on="0"/>
        <pt x="216" y="422" on="0"/>
        <pt x="191" y="422" on="1"/>
        <pt x="148" y="422" on="0"/>
        <pt x="90" y="397" on="0"/>
        <pt x="59" y="367" on="1"/>
        <pt x="59" y="440" on="1"/>
        <pt x="92" y="470" on="0"/>
        <pt x="149" y="495" on="0"/>
        <pt x="191" y="495" on="1"/>
      </contour>
      <contour>
        <pt x="220" y="295" on="0"/>
        <pt x="274" y="276" on="0"/>
        <pt x="313" y="258" on="1"/>
        <pt x="347" y="242" on="0"/>
        <pt x="394" y="225" on="0"/>
        <pt x="417" y="225" on="1"/>
        <pt x="453" y="225" on="0"/>
        <pt x="512" y="249" on="0"/>
        <pt x="545" y="280" on="1"/>
        <pt x="545" y="207" on="1"/>
        <pt x="515" y="179" on="0"/>
        <pt x="453" y="152" on="0"/>
        <pt x="416" y="152" on="1"/>
        <pt x="389" y="152" on="0"/>
        <pt x="338" y="170" on="0"/>
        <pt x="301" y="188" on="1"/>
        <pt x="262" y="206" on="0"/>
        <pt x="216" y="222" on="0"/>
        <pt x="191" y="222" on="1"/>
        <pt x="148" y="222" on="0"/>
        <pt x="90" y="197" on="0"/>
        <pt x="59" y="167" on="1"/>
        <pt x="59" y="240" on="1"/>
        <pt x="92" y="270" on="0"/>
        <pt x="149" y="295" on="0"/>
        <pt x="191" y="295" on="1"/>
      </contour>
    </TTGlyph>
    <TTGlyph name="aring" xMin="57" yMin="-10" xMax="543" yMax="812">
      <component glyphName="a" x="0" y="0" flags="0x0"/>
      <component glyphName="ring" x="23" y="0" flags="0x0"/>
    </TTGlyph>
    <TTGlyph name="aring.sc" xMin="23" yMin="0" xMax="572" yMax="752">
      <contour>
        <pt x="427" y="153" on="1"/>
        <pt x="168" y="153" on="1"/>
        <pt x="107" y="0" on="1"/>
        <pt x="23" y="0" on="1"/>
        <pt x="237" y="528" on="1"/>
        <pt x="207" y="542" on="0"/>
        <pt x="172" y="598" on="0"/>
        <pt x="172" y="634" on="1"/>
        <pt x="172" y="687" on="0"/>
        <pt x="242" y="752" on="0"/>
        <pt x="298" y="752" on="1"/>
        <pt x="354" y="752" on="0"/>
        <pt x="423" y="687" on="0"/>
        <pt x="423" y="634" on="1"/>
        <pt x="423" y="597" on="0"/>
        <pt x="389" y="541" on="0"/>
        <pt x="358" y="527" on="1"/>
        <pt x="572" y="0" on="1"/>
        <pt x="488" y="0" on="1"/>
      </contour>
      <contour>
        <pt x="266" y="703" on="0"/>
        <pt x="226" y="664" on="0"/>
        <pt x="226" y="634" on="1"/>
        <pt x="226" y="604" on="0"/>
        <pt x="266" y="565" on="0"/>
        <pt x="297" y="565" on="1"/>
        <pt x="328" y="565" on="0"/>
        <pt x="368" y="604" on="0"/>
        <pt x="368" y="634" on="1"/>
        <pt x="368" y="664" on="0"/>
        <pt x="328" y="703" on="0"/>
        <pt x="297" y="703" on="1"/>
      </contour>
      <contour>
        <pt x="400" y="222" on="1"/>
        <pt x="323" y="415" on="1"/>
        <pt x="298" y="489" on="1"/>
        <pt x="297" y="489" on="1"/>
        <pt x="272" y="415" on="1"/>
        <pt x="195" y="222" on="1"/>
      </contour>
    </TTGlyph>
    <TTGlyph name="arrowboth" xMin="35" yMin="17" xMax="1027" yMax="681">
      <contour>
        <pt x="802" y="566" on="0"/>
        <pt x="939" y="415" on="0"/>
        <pt x="1027" y="352" on="1"/>
        <pt x="1027" y="346" on="1"/>
        <pt x="939" y="283" on="0"/>
        <pt x="802" y="132" on="0"/>
        <pt x="732" y="17" on="1"/>
        <pt x="662" y="59" on="1"/>
        <pt x="781" y="239" on="0"/>
        <pt x="889" y="316" on="1"/>
        <pt x="826" y="309" on="0"/>
        <pt x="756" y="309" on="1"/>
        <pt x="306" y="309" on="1"/>
        <pt x="236" y="309" on="0"/>
        <pt x="173" y="316" on="1"/>
        <pt x="281" y="239" on="0"/>
        <pt x="400" y="59" on="1"/>
        <pt x="330" y="17" on="1"/>
        <pt x="260" y="132" on="0"/>
        <pt x="123" y="283" on="0"/>
        <pt x="35" y="346" on="1"/>
        <pt x="35" y="352" on="1"/>
        <pt x="123" y="415" on="0"/>
        <pt x="260" y="566" on="0"/>
        <pt x="330" y="681" on="1"/>
        <pt x="400" y="639" on="1"/>
        <pt x="281" y="459" on="0"/>
        <pt x="173" y="382" on="1"/>
        <pt x="236" y="389" on="0"/>
        <pt x="306" y="389" on="1"/>
        <pt x="756" y="389" on="1"/>
        <pt x="826" y="389" on="0"/>
        <pt x="889" y="382" on="1"/>
        <pt x="781" y="459" on="0"/>
        <pt x="662" y="639" on="1"/>
        <pt x="732" y="681" on="1"/>
      </contour>
    </TTGlyph>
    <TTGlyph name="arrowdown" xMin="44" yMin="-6" xMax="708" yMax="660">
      <contour>
        <pt x="708" y="289" on="1"/>
        <pt x="593" y="219" on="0"/>
        <pt x="442" y="82" on="0"/>
        <pt x="379" y="-6" on="1"/>
        <pt x="373" y="-6" on="1"/>
        <pt x="310" y="82" on="0"/>
        <pt x="159" y="219" on="0"/>
        <pt x="44" y="289" on="1"/>
        <pt x="96" y="352" on="1"/>
        <pt x="267" y="239" on="0"/>
        <pt x="344" y="132" on="1"/>
        <pt x="336" y="222" on="0"/>
        <pt x="336" y="305" on="1"/>
        <pt x="336" y="660" on="1"/>
        <pt x="416" y="660" on="1"/>
        <pt x="416" y="305" on="1"/>
        <pt x="416" y="222" on="0"/>
        <pt x="408" y="132" on="1"/>
        <pt x="485" y="239" on="0"/>
        <pt x="656" y="352" on="1"/>
      </contour>
    </TTGlyph>
    <TTGlyph name="arrowleft" xMin="35" yMin="-1" xMax="701" yMax="663">
      <contour>
        <pt x="346" y="291" on="1"/>
        <pt x="263" y="291" on="0"/>
        <pt x="173" y="299" on="1"/>
        <pt x="280" y="222" on="0"/>
        <pt x="393" y="51" on="1"/>
        <pt x="330" y="-1" on="1"/>
        <pt x="260" y="114" on="0"/>
        <pt x="123" y="265" on="0"/>
        <pt x="35" y="328" on="1"/>
        <pt x="35" y="334" on="1"/>
        <pt x="123" y="397" on="0"/>
        <pt x="260" y="548" on="0"/>
        <pt x="330" y="663" on="1"/>
        <pt x="393" y="611" on="1"/>
        <pt x="280" y="440" on="0"/>
        <pt x="173" y="363" on="1"/>
        <pt x="263" y="371" on="0"/>
        <pt x="346" y="371" on="1"/>
        <pt x="701" y="371" on="1"/>
        <pt x="701" y="291" on="1"/>
      </contour>
    </TTGlyph>
    <TTGlyph name="arrowright" xMin="49" yMin="-1" xMax="715" yMax="663">
      <contour>
        <pt x="490" y="548" on="0"/>
        <pt x="627" y="397" on="0"/>
        <pt x="715" y="334" on="1"/>
        <pt x="715" y="328" on="1"/>
        <pt x="627" y="265" on="0"/>
        <pt x="490" y="114" on="0"/>
        <pt x="420" y="-1" on="1"/>
        <pt x="357" y="51" on="1"/>
        <pt x="470" y="222" on="0"/>
        <pt x="577" y="299" on="1"/>
        <pt x="487" y="291" on="0"/>
        <pt x="404" y="291" on="1"/>
        <pt x="49" y="291" on="1"/>
        <pt x="49" y="371" on="1"/>
        <pt x="404" y="371" on="1"/>
        <pt x="487" y="371" on="0"/>
        <pt x="577" y="363" on="1"/>
        <pt x="470" y="440" on="0"/>
        <pt x="357" y="611" on="1"/>
        <pt x="420" y="663" on="1"/>
      </contour>
    </TTGlyph>
    <TTGlyph name="arrowup" xMin="42" yMin="0" xMax="706" yMax="666">
      <contour>
        <pt x="440" y="578" on="0"/>
        <pt x="591" y="441" on="0"/>
        <pt x="706" y="371" on="1"/>
        <pt x="654" y="308" on="1"/>
        <pt x="483" y="421" on="0"/>
        <pt x="406" y="528" on="1"/>
        <pt x="414" y="438" on="0"/>
        <pt x="414" y="355" on="1"/>
        <pt x="414" y="0" on="1"/>
        <pt x="334" y="0" on="1"/>
        <pt x="334" y="355" on="1"/>
        <pt x="334" y="438" on="0"/>
        <pt x="342" y="528" on="1"/>
        <pt x="265" y="421" on="0"/>
        <pt x="94" y="308" on="1"/>
        <pt x="42" y="371" on="1"/>
        <pt x="157" y="441" on="0"/>
        <pt x="308" y="578" on="0"/>
        <pt x="371" y="666" on="1"/>
        <pt x="377" y="666" on="1"/>
      </contour>
    </TTGlyph>
    <TTGlyph name="arrowupdn" xMin="42" yMin="-166" xMax="706" yMax="826">
      <contour>
        <pt x="484" y="80" on="0"/>
        <pt x="664" y="199" on="1"/>
        <pt x="706" y="129" on="1"/>
        <pt x="591" y="59" on="0"/>
        <pt x="440" y="-78" on="0"/>
        <pt x="377" y="-166" on="1"/>
        <pt x="371" y="-166" on="1"/>
        <pt x="308" y="-78" on="0"/>
        <pt x="157" y="59" on="0"/>
        <pt x="42" y="129" on="1"/>
        <pt x="84" y="199" on="1"/>
        <pt x="264" y="80" on="0"/>
        <pt x="341" y="-28" on="1"/>
        <pt x="334" y="35" on="0"/>
        <pt x="334" y="105" on="1"/>
        <pt x="334" y="555" on="1"/>
        <pt x="334" y="625" on="0"/>
        <pt x="341" y="688" on="1"/>
        <pt x="264" y="580" on="0"/>
        <pt x="84" y="461" on="1"/>
        <pt x="42" y="531" on="1"/>
        <pt x="157" y="601" on="0"/>
        <pt x="308" y="738" on="0"/>
        <pt x="371" y="826" on="1"/>
        <pt x="377" y="826" on="1"/>
        <pt x="440" y="738" on="0"/>
        <pt x="591" y="601" on="0"/>
        <pt x="706" y="531" on="1"/>
        <pt x="664" y="461" on="1"/>
        <pt x="484" y="580" on="0"/>
        <pt x="407" y="688" on="1"/>
        <pt x="414" y="625" on="0"/>
        <pt x="414" y="555" on="1"/>
        <pt x="414" y="105" on="1"/>
        <pt x="414" y="35" on="0"/>
        <pt x="407" y="-28" on="1"/>
      </contour>
    </TTGlyph>
    <TTGlyph name="asciicircum" xMin="27" yMin="355" xMax="533" yMax="730">
      <contour>
        <pt x="452" y="355" on="1"/>
        <pt x="280" y="662" on="1"/>
        <pt x="108" y="355" on="1"/>
        <pt x="27" y="355" on="1"/>
        <pt x="242" y="730" on="1"/>
        <pt x="318" y="730" on="1"/>
        <pt x="533" y="355" on="1"/>
      </contour>
    </TTGlyph>
    <TTGlyph name="asciitilde" xMin="43" yMin="235" xMax="497" yMax="384">
      <contour>
        <pt x="491" y="310" on="0"/>
        <pt x="425" y="235" on="0"/>
        <pt x="367" y="235" on="1"/>
        <pt x="334" y="235" on="0"/>
        <pt x="286" y="257" on="0"/>
        <pt x="256" y="277" on="1"/>
        <pt x="233" y="293" on="0"/>
        <pt x="201" y="309" on="0"/>
        <pt x="181" y="309" on="1"/>
        <pt x="132" y="309" on="0"/>
        <pt x="119" y="235" on="1"/>
        <pt x="43" y="235" on="1"/>
        <pt x="55" y="384" on="0"/>
        <pt x="174" y="384" on="1"/>
        <pt x="206" y="384" on="0"/>
        <pt x="254" y="363" on="0"/>
        <pt x="285" y="342" on="1"/>
        <pt x="308" y="326" on="0"/>
        <pt x="340" y="310" on="0"/>
        <pt x="359" y="310" on="1"/>
        <pt x="408" y="310" on="0"/>
        <pt x="421" y="384" on="1"/>
        <pt x="497" y="384" on="1"/>
      </contour>
    </TTGlyph>
    <TTGlyph name="asterisk" xMin="53" yMin="286" xMax="519" yMax="730">
      <contour>
        <pt x="380" y="422" on="1"/>
        <pt x="450" y="324" on="1"/>
        <pt x="398" y="286" on="1"/>
        <pt x="326" y="383" on="1"/>
        <pt x="286" y="456" on="1"/>
        <pt x="246" y="383" on="1"/>
        <pt x="174" y="286" on="1"/>
        <pt x="122" y="324" on="1"/>
        <pt x="192" y="422" on="1"/>
        <pt x="249" y="483" on="1"/>
        <pt x="167" y="499" on="1"/>
        <pt x="53" y="537" on="1"/>
        <pt x="72" y="598" on="1"/>
        <pt x="188" y="562" on="1"/>
        <pt x="263" y="527" on="1"/>
        <pt x="253" y="609" on="1"/>
        <pt x="253" y="730" on="1"/>
        <pt x="319" y="730" on="1"/>
        <pt x="319" y="609" on="1"/>
        <pt x="309" y="527" on="1"/>
        <pt x="384" y="562" on="1"/>
        <pt x="500" y="598" on="1"/>
        <pt x="519" y="537" on="1"/>
        <pt x="405" y="499" on="1"/>
        <pt x="323" y="483" on="1"/>
      </contour>
    </TTGlyph>
    <TTGlyph name="at" xMin="66" yMin="-195" xMax="915" yMax="660">
      <contour>
        <pt x="642" y="660" on="0"/>
        <pt x="826" y="554" on="0"/>
        <pt x="915" y="374" on="0"/>
        <pt x="915" y="260" on="1"/>
        <pt x="915" y="179" on="0"/>
        <pt x="869" y="59" on="0"/>
        <pt x="786" y="-5" on="0"/>
        <pt x="731" y="-5" on="1"/>
        <pt x="680" y="-5" on="0"/>
        <pt x="624" y="48" on="0"/>
        <pt x="615" y="87" on="1"/>
        <pt x="588" y="46" on="0"/>
        <pt x="497" y="0" on="0"/>
        <pt x="438" y="0" on="1"/>
        <pt x="391" y="0" on="0"/>
        <pt x="313" y="49" on="0"/>
        <pt x="267" y="141" on="0"/>
        <pt x="267" y="203" on="1"/>
        <pt x="267" y="283" on="0"/>
        <pt x="333" y="402" on="0"/>
        <pt x="439" y="465" on="0"/>
        <pt x="498" y="465" on="1"/>
        <pt x="614" y="465" on="0"/>
        <pt x="648" y="378" on="1"/>
        <pt x="668" y="459" on="1"/>
        <pt x="720" y="459" on="1"/>
        <pt x="681" y="148" on="1"/>
        <pt x="680" y="140" on="0"/>
        <pt x="680" y="125" on="1"/>
        <pt x="680" y="51" on="0"/>
        <pt x="743" y="51" on="1"/>
        <pt x="797" y="51" on="0"/>
        <pt x="853" y="157" on="0"/>
        <pt x="853" y="260" on="1"/>
        <pt x="853" y="361" on="0"/>
        <pt x="775" y="514" on="0"/>
        <pt x="619" y="601" on="0"/>
        <pt x="507" y="601" on="1"/>
        <pt x="392" y="601" on="0"/>
        <pt x="223" y="508" on="0"/>
        <pt x="133" y="338" on="0"/>
        <pt x="133" y="223" on="1"/>
        <pt x="133" y="114" on="0"/>
        <pt x="224" y="-49" on="0"/>
        <pt x="384" y="-136" on="0"/>
        <pt x="484" y="-136" on="1"/>
        <pt x="562" y="-136" on="0"/>
        <pt x="657" y="-102" on="0"/>
        <pt x="700" y="-71" on="1"/>
        <pt x="735" y="-117" on="1"/>
        <pt x="681" y="-155" on="0"/>
        <pt x="572" y="-195" on="0"/>
        <pt x="484" y="-195" on="1"/>
        <pt x="359" y="-195" on="0"/>
        <pt x="170" y="-91" on="0"/>
        <pt x="66" y="99" on="0"/>
        <pt x="66" y="223" on="1"/>
        <pt x="66" y="351" on="0"/>
        <pt x="175" y="550" on="0"/>
        <pt x="375" y="660" on="0"/>
        <pt x="507" y="660" on="1"/>
      </contour>
      <contour>
        <pt x="429" y="406" on="0"/>
        <pt x="339" y="300" on="0"/>
        <pt x="339" y="207" on="1"/>
        <pt x="339" y="138" on="0"/>
        <pt x="403" y="60" on="0"/>
        <pt x="462" y="60" on="1"/>
        <pt x="522" y="60" on="0"/>
        <pt x="612" y="136" on="0"/>
        <pt x="621" y="206" on="1"/>
        <pt x="627" y="255" on="1"/>
        <pt x="629" y="275" on="0"/>
        <pt x="629" y="285" on="1"/>
        <pt x="629" y="341" on="0"/>
        <pt x="570" y="406" on="0"/>
        <pt x="506" y="406" on="1"/>
      </contour>
    </TTGlyph>
    <TTGlyph name="at.case" xMin="66" yMin="-97" xMax="915" yMax="758">
      <component glyphName="at" x="0" y="98" flags="0x4"/>
    </TTGlyph>
    <TTGlyph name="atilde" xMin="57" yMin="-10" xMax="543" yMax="717">
      <component glyphName="a" x="0" y="0" flags="0x0"/>
      <component glyphName="tilde" x="25" y="0" flags="0x0"/>
    </TTGlyph>
    <TTGlyph name="atilde.sc" xMin="23" yMin="0" xMax="572" yMax="777">
      <component glyphName="a.sc" x="0" y="0" flags="0x0"/>
      <component glyphName="tilde" x="46" y="60" flags="0x4"/>
    </TTGlyph>
    <TTGlyph name="b" xMin="93" yMin="-10" xMax="567" yMax="730">
      <contour>
        <pt x="444" y="510" on="0"/>
        <pt x="567" y="371" on="0"/>
        <pt x="567" y="250" on="1"/>
        <pt x="567" y="129" on="0"/>
        <pt x="444" y="-10" on="0"/>
        <pt x="339" y="-10" on="1"/>
        <pt x="281" y="-10" on="0"/>
        <pt x="190" y="43" on="0"/>
        <pt x="168" y="87" on="1"/>
        <pt x="163" y="0" on="1"/>
        <pt x="93" y="0" on="1"/>
        <pt x="93" y="730" on="1"/>
        <pt x="173" y="730" on="1"/>
        <pt x="173" y="422" on="1"/>
        <pt x="197" y="462" on="0"/>
        <pt x="284" y="510" on="0"/>
        <pt x="339" y="510" on="1"/>
      </contour>
      <contour>
        <pt x="403" y="60" on="0"/>
        <pt x="487" y="163" on="0"/>
        <pt x="487" y="250" on="1"/>
        <pt x="487" y="337" on="0"/>
        <pt x="403" y="440" on="0"/>
        <pt x="330" y="440" on="1"/>
        <pt x="258" y="440" on="0"/>
        <pt x="173" y="340" on="0"/>
        <pt x="173" y="256" on="1"/>
        <pt x="173" y="244" on="1"/>
        <pt x="173" y="160" on="0"/>
        <pt x="258" y="60" on="0"/>
        <pt x="330" y="60" on="1"/>
      </contour>
    </TTGlyph>
    <TTGlyph name="b.sc" xMin="94" yMin="0" xMax="535" yMax="560">
      <contour>
        <pt x="94" y="560" on="1"/>
        <pt x="319" y="560" on="1"/>
        <pt x="420" y="560" on="0"/>
        <pt x="519" y="481" on="0"/>
        <pt x="519" y="407" on="1"/>
        <pt x="519" y="362" on="0"/>
        <pt x="465" y="295" on="0"/>
        <pt x="418" y="284" on="1"/>
        <pt x="418" y="283" on="1"/>
        <pt x="474" y="278" on="0"/>
        <pt x="535" y="204" on="0"/>
        <pt x="535" y="154" on="1"/>
        <pt x="535" y="82" on="0"/>
        <pt x="423" y="0" on="0"/>
        <pt x="320" y="0" on="1"/>
        <pt x="94" y="0" on="1"/>
      </contour>
      <contour>
        <pt x="325" y="316" on="1"/>
        <pt x="439" y="316" on="0"/>
        <pt x="439" y="404" on="1"/>
        <pt x="439" y="492" on="0"/>
        <pt x="325" y="492" on="1"/>
        <pt x="174" y="492" on="1"/>
        <pt x="174" y="316" on="1"/>
      </contour>
      <contour>
        <pt x="332" y="68" on="1"/>
        <pt x="393" y="68" on="0"/>
        <pt x="455" y="114" on="0"/>
        <pt x="455" y="158" on="1"/>
        <pt x="455" y="202" on="0"/>
        <pt x="393" y="248" on="0"/>
        <pt x="332" y="248" on="1"/>
        <pt x="174" y="248" on="1"/>
        <pt x="174" y="68" on="1"/>
      </contour>
    </TTGlyph>
    <TTGlyph name="backslash" xMin="29" yMin="-70" xMax="410" yMax="730">
      <contour>
        <pt x="104" y="730" on="1"/>
        <pt x="410" y="-70" on="1"/>
        <pt x="335" y="-70" on="1"/>
        <pt x="29" y="730" on="1"/>
      </contour>
    </TTGlyph>
    <TTGlyph name="bar" xMin="87" yMin="-168" xMax="156" yMax="730">
      <contour>
        <pt x="156" y="-168" on="1"/>
        <pt x="87" y="-168" on="1"/>
        <pt x="87" y="730" on="1"/>
        <pt x="156" y="730" on="1"/>
      </contour>
    </TTGlyph>
    <TTGlyph name="bar.case" xMin="87" yMin="-97" xMax="156" yMax="752">
      <contour>
        <pt x="156" y="-97" on="1"/>
        <pt x="87" y="-97" on="1"/>
        <pt x="87" y="752" on="1"/>
        <pt x="156" y="752" on="1"/>
      </contour>
    </TTGlyph>
    <TTGlyph name="braceleft" xMin="28" yMin="-189" xMax="310" yMax="751">
      <contour>
        <pt x="215" y="-98" on="0"/>
        <pt x="260" y="-124" on="0"/>
        <pt x="310" y="-124" on="1"/>
        <pt x="297" y="-189" on="1"/>
        <pt x="213" y="-189" on="0"/>
        <pt x="140" y="-127" on="0"/>
        <pt x="140" y="-65" on="1"/>
        <pt x="140" y="142" on="1"/>
        <pt x="140" y="198" on="0"/>
        <pt x="89" y="246" on="0"/>
        <pt x="28" y="246" on="1"/>
        <pt x="28" y="316" on="1"/>
        <pt x="89" y="316" on="0"/>
        <pt x="140" y="364" on="0"/>
        <pt x="140" y="420" on="1"/>
        <pt x="140" y="627" on="1"/>
        <pt x="140" y="689" on="0"/>
        <pt x="213" y="751" on="0"/>
        <pt x="297" y="751" on="1"/>
        <pt x="310" y="686" on="1"/>
        <pt x="260" y="686" on="0"/>
        <pt x="215" y="660" on="0"/>
        <pt x="215" y="633" on="1"/>
        <pt x="215" y="413" on="1"/>
        <pt x="215" y="306" on="0"/>
        <pt x="101" y="281" on="1"/>
        <pt x="215" y="256" on="0"/>
        <pt x="215" y="149" on="1"/>
        <pt x="215" y="-71" on="1"/>
      </contour>
    </TTGlyph>
    <TTGlyph name="braceleft.case" xMin="28" yMin="-118" xMax="310" yMax="773">
      <contour>
        <pt x="215" y="-27" on="0"/>
        <pt x="260" y="-53" on="0"/>
        <pt x="310" y="-53" on="1"/>
        <pt x="297" y="-118" on="1"/>
        <pt x="213" y="-118" on="0"/>
        <pt x="140" y="-56" on="0"/>
        <pt x="140" y="6" on="1"/>
        <pt x="140" y="189" on="1"/>
        <pt x="140" y="245" on="0"/>
        <pt x="89" y="293" on="0"/>
        <pt x="28" y="293" on="1"/>
        <pt x="28" y="363" on="1"/>
        <pt x="89" y="363" on="0"/>
        <pt x="140" y="411" on="0"/>
        <pt x="140" y="467" on="1"/>
        <pt x="140" y="649" on="1"/>
        <pt x="140" y="711" on="0"/>
        <pt x="213" y="773" on="0"/>
        <pt x="297" y="773" on="1"/>
        <pt x="310" y="708" on="1"/>
        <pt x="260" y="708" on="0"/>
        <pt x="215" y="682" on="0"/>
        <pt x="215" y="655" on="1"/>
        <pt x="215" y="460" on="1"/>
        <pt x="215" y="353" on="0"/>
        <pt x="101" y="328" on="1"/>
        <pt x="215" y="303" on="0"/>
        <pt x="215" y="196" on="1"/>
        <pt x="215" y="0" on="1"/>
      </contour>
    </TTGlyph>
    <TTGlyph name="braceright" xMin="41" yMin="-189" xMax="323" yMax="751">
      <contour>
        <pt x="211" y="364" on="0"/>
        <pt x="262" y="316" on="0"/>
        <pt x="323" y="316" on="1"/>
        <pt x="323" y="246" on="1"/>
        <pt x="262" y="246" on="0"/>
        <pt x="211" y="198" on="0"/>
        <pt x="211" y="142" on="1"/>
        <pt x="211" y="-65" on="1"/>
        <pt x="211" y="-127" on="0"/>
        <pt x="138" y="-189" on="0"/>
        <pt x="54" y="-189" on="1"/>
        <pt x="41" y="-124" on="1"/>
        <pt x="91" y="-124" on="0"/>
        <pt x="136" y="-98" on="0"/>
        <pt x="136" y="-71" on="1"/>
        <pt x="136" y="149" on="1"/>
        <pt x="136" y="256" on="0"/>
        <pt x="250" y="281" on="1"/>
        <pt x="136" y="306" on="0"/>
        <pt x="136" y="413" on="1"/>
        <pt x="136" y="633" on="1"/>
        <pt x="136" y="660" on="0"/>
        <pt x="91" y="686" on="0"/>
        <pt x="41" y="686" on="1"/>
        <pt x="54" y="751" on="1"/>
        <pt x="138" y="751" on="0"/>
        <pt x="211" y="689" on="0"/>
        <pt x="211" y="627" on="1"/>
        <pt x="211" y="420" on="1"/>
      </contour>
    </TTGlyph>
    <TTGlyph name="braceright.case" xMin="41" yMin="-118" xMax="323" yMax="773">
      <contour>
        <pt x="211" y="411" on="0"/>
        <pt x="262" y="363" on="0"/>
        <pt x="323" y="363" on="1"/>
        <pt x="323" y="293" on="1"/>
        <pt x="262" y="293" on="0"/>
        <pt x="211" y="245" on="0"/>
        <pt x="211" y="189" on="1"/>
        <pt x="211" y="6" on="1"/>
        <pt x="211" y="-56" on="0"/>
        <pt x="138" y="-118" on="0"/>
        <pt x="54" y="-118" on="1"/>
        <pt x="41" y="-53" on="1"/>
        <pt x="91" y="-53" on="0"/>
        <pt x="136" y="-27" on="0"/>
        <pt x="136" y="0" on="1"/>
        <pt x="136" y="196" on="1"/>
        <pt x="136" y="303" on="0"/>
        <pt x="250" y="328" on="1"/>
        <pt x="136" y="353" on="0"/>
        <pt x="136" y="460" on="1"/>
        <pt x="136" y="655" on="1"/>
        <pt x="136" y="682" on="0"/>
        <pt x="91" y="708" on="0"/>
        <pt x="41" y="708" on="1"/>
        <pt x="54" y="773" on="1"/>
        <pt x="138" y="773" on="0"/>
        <pt x="211" y="711" on="0"/>
        <pt x="211" y="649" on="1"/>
        <pt x="211" y="467" on="1"/>
      </contour>
    </TTGlyph>
    <TTGlyph name="bracketleft" xMin="87" yMin="-168" xMax="315" yMax="730">
      <contour>
        <pt x="162" y="660" on="1"/>
        <pt x="162" y="-98" on="1"/>
        <pt x="315" y="-98" on="1"/>
        <pt x="315" y="-168" on="1"/>
        <pt x="87" y="-168" on="1"/>
        <pt x="87" y="730" on="1"/>
        <pt x="315" y="730" on="1"/>
        <pt x="315" y="660" on="1"/>
      </contour>
    </TTGlyph>
    <TTGlyph name="bracketleft.case" xMin="87" yMin="-97" xMax="315" yMax="752">
      <contour>
        <pt x="162" y="682" on="1"/>
        <pt x="162" y="-27" on="1"/>
        <pt x="315" y="-27" on="1"/>
        <pt x="315" y="-97" on="1"/>
        <pt x="87" y="-97" on="1"/>
        <pt x="87" y="752" on="1"/>
        <pt x="315" y="752" on="1"/>
        <pt x="315" y="682" on="1"/>
      </contour>
    </TTGlyph>
    <TTGlyph name="bracketleftinferior" xMin="64" yMin="-269" xMax="200" yMax="288">
      <component glyphName="bracketleftsuperior" x="0" y="-522" flags="0x4"/>
    </TTGlyph>
    <TTGlyph name="bracketleftsuperior" xMin="64" yMin="253" xMax="200" yMax="810">
      <contour>
        <pt x="125" y="757" on="1"/>
        <pt x="125" y="306" on="1"/>
        <pt x="200" y="306" on="1"/>
        <pt x="200" y="253" on="1"/>
        <pt x="64" y="253" on="1"/>
        <pt x="64" y="810" on="1"/>
        <pt x="200" y="810" on="1"/>
        <pt x="200" y="757" on="1"/>
      </contour>
    </TTGlyph>
    <TTGlyph name="bracketright" xMin="33" yMin="-168" xMax="261" yMax="730">
      <contour>
        <pt x="261" y="-168" on="1"/>
        <pt x="33" y="-168" on="1"/>
        <pt x="33" y="-98" on="1"/>
        <pt x="186" y="-98" on="1"/>
        <pt x="186" y="660" on="1"/>
        <pt x="33" y="660" on="1"/>
        <pt x="33" y="730" on="1"/>
        <pt x="261" y="730" on="1"/>
      </contour>
    </TTGlyph>
    <TTGlyph name="bracketright.case" xMin="33" yMin="-97" xMax="261" yMax="752">
      <contour>
        <pt x="261" y="-97" on="1"/>
        <pt x="33" y="-97" on="1"/>
        <pt x="33" y="-27" on="1"/>
        <pt x="186" y="-27" on="1"/>
        <pt x="186" y="682" on="1"/>
        <pt x="33" y="682" on="1"/>
        <pt x="33" y="752" on="1"/>
        <pt x="261" y="752" on="1"/>
      </contour>
    </TTGlyph>
    <TTGlyph name="bracketrightinferior" xMin="2" yMin="-269" xMax="138" yMax="288">
      <component glyphName="bracketrightsuperior" x="0" y="-522" flags="0x4"/>
    </TTGlyph>
    <TTGlyph name="bracketrightsuperior" xMin="2" yMin="253" xMax="138" yMax="810">
      <contour>
        <pt x="138" y="253" on="1"/>
        <pt x="2" y="253" on="1"/>
        <pt x="2" y="306" on="1"/>
        <pt x="77" y="306" on="1"/>
        <pt x="77" y="757" on="1"/>
        <pt x="2" y="757" on="1"/>
        <pt x="2" y="810" on="1"/>
        <pt x="138" y="810" on="1"/>
      </contour>
    </TTGlyph>
    <TTGlyph name="breve" xMin="102" yMin="577" xMax="398" yMax="725">
      <contour>
        <pt x="398" y="659" on="0"/>
        <pt x="316" y="577" on="0"/>
        <pt x="250" y="577" on="1"/>
        <pt x="184" y="577" on="0"/>
        <pt x="102" y="659" on="0"/>
        <pt x="102" y="725" on="1"/>
        <pt x="168" y="725" on="1"/>
        <pt x="168" y="689" on="0"/>
        <pt x="215" y="637" on="0"/>
        <pt x="250" y="637" on="1"/>
        <pt x="285" y="637" on="0"/>
        <pt x="332" y="689" on="0"/>
        <pt x="332" y="725" on="1"/>
        <pt x="398" y="725" on="1"/>
      </contour>
    </TTGlyph>
    <TTGlyph name="brokenbar" xMin="93" yMin="-168" xMax="162" yMax="730">
      <contour>
        <pt x="162" y="367" on="1"/>
        <pt x="93" y="367" on="1"/>
        <pt x="93" y="730" on="1"/>
        <pt x="162" y="730" on="1"/>
      </contour>
      <contour>
        <pt x="162" y="-168" on="1"/>
        <pt x="93" y="-168" on="1"/>
        <pt x="93" y="195" on="1"/>
        <pt x="162" y="195" on="1"/>
      </contour>
    </TTGlyph>
    <TTGlyph name="bullet" xMin="90" yMin="216" xMax="340" yMax="458">
      <contour>
        <pt x="270" y="458" on="0"/>
        <pt x="340" y="390" on="0"/>
        <pt x="340" y="337" on="1"/>
        <pt x="340" y="284" on="0"/>
        <pt x="270" y="216" on="0"/>
        <pt x="215" y="216" on="1"/>
        <pt x="161" y="216" on="0"/>
        <pt x="90" y="285" on="0"/>
        <pt x="90" y="337" on="1"/>
        <pt x="90" y="389" on="0"/>
        <pt x="161" y="458" on="0"/>
        <pt x="215" y="458" on="1"/>
      </contour>
    </TTGlyph>
    <TTGlyph name="c" xMin="62" yMin="-10" xMax="516" yMax="510">
      <contour>
        <pt x="379" y="510" on="0"/>
        <pt x="482" y="441" on="0"/>
        <pt x="511" y="377" on="1"/>
        <pt x="435" y="341" on="1"/>
        <pt x="403" y="440" on="0"/>
        <pt x="302" y="440" on="1"/>
        <pt x="227" y="440" on="0"/>
        <pt x="142" y="339" on="0"/>
        <pt x="142" y="250" on="1"/>
        <pt x="142" y="161" on="0"/>
        <pt x="227" y="60" on="0"/>
        <pt x="302" y="60" on="1"/>
        <pt x="360" y="60" on="0"/>
        <pt x="431" y="113" on="0"/>
        <pt x="442" y="163" on="1"/>
        <pt x="516" y="137" on="1"/>
        <pt x="490" y="67" on="0"/>
        <pt x="382" y="-10" on="0"/>
        <pt x="304" y="-10" on="1"/>
        <pt x="191" y="-10" on="0"/>
        <pt x="62" y="128" on="0"/>
        <pt x="62" y="250" on="1"/>
        <pt x="62" y="372" on="0"/>
        <pt x="191" y="510" on="0"/>
        <pt x="304" y="510" on="1"/>
      </contour>
    </TTGlyph>
    <TTGlyph name="c.sc" xMin="60" yMin="-8" xMax="578" yMax="568">
      <contour>
        <pt x="558" y="74" on="0"/>
        <pt x="426" y="-8" on="0"/>
        <pt x="331" y="-8" on="1"/>
        <pt x="250" y="-8" on="0"/>
        <pt x="128" y="62" on="0"/>
        <pt x="60" y="192" on="0"/>
        <pt x="60" y="280" on="1"/>
        <pt x="60" y="368" on="0"/>
        <pt x="128" y="498" on="0"/>
        <pt x="251" y="568" on="0"/>
        <pt x="334" y="568" on="1"/>
        <pt x="424" y="568" on="0"/>
        <pt x="545" y="491" on="0"/>
        <pt x="568" y="416" on="1"/>
        <pt x="492" y="382" on="1"/>
        <pt x="477" y="443" on="0"/>
        <pt x="401" y="499" on="0"/>
        <pt x="332" y="499" on="1"/>
        <pt x="245" y="499" on="0"/>
        <pt x="140" y="382" on="0"/>
        <pt x="140" y="280" on="1"/>
        <pt x="140" y="213" on="0"/>
        <pt x="188" y="113" on="0"/>
        <pt x="274" y="61" on="0"/>
        <pt x="328" y="61" on="1"/>
        <pt x="405" y="61" on="0"/>
        <pt x="490" y="118" on="0"/>
        <pt x="501" y="177" on="1"/>
        <pt x="578" y="151" on="1"/>
      </contour>
    </TTGlyph>
    <TTGlyph name="c_t" xMin="62" yMin="-10" xMax="887" yMax="731">
      <contour>
        <pt x="887" y="35" on="1"/>
        <pt x="837" y="-10" on="0"/>
        <pt x="758" y="-10" on="1"/>
        <pt x="697" y="-10" on="0"/>
        <pt x="619" y="56" on="0"/>
        <pt x="619" y="124" on="1"/>
        <pt x="619" y="542" on="1"/>
        <pt x="619" y="603" on="0"/>
        <pt x="575" y="662" on="0"/>
        <pt x="536" y="662" on="1"/>
        <pt x="497" y="662" on="0"/>
        <pt x="454" y="614" on="0"/>
        <pt x="454" y="557" on="1"/>
        <pt x="454" y="476" on="0"/>
        <pt x="509" y="377" on="1"/>
        <pt x="433" y="341" on="1"/>
        <pt x="417" y="389" on="0"/>
        <pt x="350" y="440" on="0"/>
        <pt x="302" y="440" on="1"/>
        <pt x="227" y="440" on="0"/>
        <pt x="142" y="339" on="0"/>
        <pt x="142" y="250" on="1"/>
        <pt x="142" y="161" on="0"/>
        <pt x="227" y="60" on="0"/>
        <pt x="302" y="60" on="1"/>
        <pt x="356" y="60" on="0"/>
        <pt x="427" y="113" on="0"/>
        <pt x="442" y="163" on="1"/>
        <pt x="514" y="138" on="1"/>
        <pt x="490" y="68" on="0"/>
        <pt x="382" y="-10" on="0"/>
        <pt x="304" y="-10" on="1"/>
        <pt x="191" y="-10" on="0"/>
        <pt x="62" y="128" on="0"/>
        <pt x="62" y="250" on="1"/>
        <pt x="62" y="372" on="0"/>
        <pt x="191" y="510" on="0"/>
        <pt x="304" y="510" on="1"/>
        <pt x="357" y="510" on="0"/>
        <pt x="395" y="491" on="1"/>
        <pt x="382" y="525" on="0"/>
        <pt x="382" y="567" on="1"/>
        <pt x="382" y="651" on="0"/>
        <pt x="472" y="731" on="0"/>
        <pt x="541" y="731" on="1"/>
        <pt x="610" y="731" on="0"/>
        <pt x="699" y="652" on="0"/>
        <pt x="699" y="573" on="1"/>
        <pt x="699" y="500" on="1"/>
        <pt x="884" y="500" on="1"/>
        <pt x="884" y="431" on="1"/>
        <pt x="699" y="431" on="1"/>
        <pt x="699" y="138" on="1"/>
        <pt x="699" y="102" on="0"/>
        <pt x="740" y="65" on="0"/>
        <pt x="774" y="65" on="1"/>
        <pt x="822" y="65" on="0"/>
        <pt x="859" y="102" on="1"/>
      </contour>
    </TTGlyph>
    <TTGlyph name="cacute" xMin="62" yMin="-10" xMax="516" yMax="750">
      <component glyphName="c" x="0" y="0" flags="0x0"/>
      <component glyphName="acute" x="39" y="0" flags="0x0"/>
    </TTGlyph>
    <TTGlyph name="cacute.sc" xMin="60" yMin="-8" xMax="578" yMax="802">
      <component glyphName="c.sc" x="0" y="0" flags="0x0"/>
      <component glyphName="acutecomb.cap" x="333" y="-100" flags="0x4"/>
    </TTGlyph>
    <TTGlyph name="caron" xMin="91" yMin="583" xMax="409" yMax="750">
      <contour>
        <pt x="295" y="583" on="1"/>
        <pt x="205" y="583" on="1"/>
        <pt x="91" y="750" on="1"/>
        <pt x="164" y="750" on="1"/>
        <pt x="250" y="635" on="1"/>
        <pt x="336" y="750" on="1"/>
        <pt x="409" y="750" on="1"/>
      </contour>
    </TTGlyph>
    <TTGlyph name="ccaron" xMin="62" yMin="-10" xMax="516" yMax="750">
      <component glyphName="c" x="0" y="0" flags="0x0"/>
      <component glyphName="caron" x="46" y="0" flags="0x0"/>
    </TTGlyph>
    <TTGlyph name="ccaron.sc" xMin="60" yMin="-8" xMax="578" yMax="802">
      <component glyphName="c.sc" x="0" y="0" flags="0x0"/>
      <component glyphName="uni030C.cap" x="333" y="-100" flags="0x4"/>
    </TTGlyph>
    <TTGlyph name="ccedilla" xMin="62" yMin="-215" xMax="516" yMax="510">
      <contour>
        <pt x="495" y="79" on="0"/>
        <pt x="414" y="6" on="0"/>
        <pt x="356" y="-5" on="1"/>
        <pt x="383" y="-26" on="0"/>
        <pt x="412" y="-80" on="0"/>
        <pt x="412" y="-108" on="1"/>
        <pt x="412" y="-152" on="0"/>
        <pt x="349" y="-215" on="0"/>
        <pt x="296" y="-215" on="1"/>
        <pt x="225" y="-215" on="0"/>
        <pt x="186" y="-180" on="1"/>
        <pt x="216" y="-125" on="1"/>
        <pt x="229" y="-138" on="0"/>
        <pt x="265" y="-155" on="0"/>
        <pt x="285" y="-155" on="1"/>
        <pt x="309" y="-155" on="0"/>
        <pt x="342" y="-123" on="0"/>
        <pt x="342" y="-97" on="1"/>
        <pt x="342" y="-68" on="0"/>
        <pt x="310" y="-29" on="0"/>
        <pt x="266" y="-8" on="1"/>
        <pt x="170" y="4" on="0"/>
        <pt x="62" y="139" on="0"/>
        <pt x="62" y="250" on="1"/>
        <pt x="62" y="372" on="0"/>
        <pt x="191" y="510" on="0"/>
        <pt x="304" y="510" on="1"/>
        <pt x="379" y="510" on="0"/>
        <pt x="482" y="441" on="0"/>
        <pt x="511" y="377" on="1"/>
        <pt x="435" y="341" on="1"/>
        <pt x="403" y="440" on="0"/>
        <pt x="302" y="440" on="1"/>
        <pt x="227" y="440" on="0"/>
        <pt x="142" y="339" on="0"/>
        <pt x="142" y="250" on="1"/>
        <pt x="142" y="161" on="0"/>
        <pt x="227" y="60" on="0"/>
        <pt x="302" y="60" on="1"/>
        <pt x="360" y="60" on="0"/>
        <pt x="431" y="113" on="0"/>
        <pt x="442" y="163" on="1"/>
        <pt x="516" y="137" on="1"/>
      </contour>
    </TTGlyph>
    <TTGlyph name="ccedilla.sc" xMin="60" yMin="-215" xMax="578" yMax="568">
      <contour>
        <pt x="561" y="86" on="0"/>
        <pt x="461" y="7" on="0"/>
        <pt x="387" y="-4" on="1"/>
        <pt x="416" y="-25" on="0"/>
        <pt x="445" y="-80" on="0"/>
        <pt x="445" y="-108" on="1"/>
        <pt x="445" y="-152" on="0"/>
        <pt x="382" y="-215" on="0"/>
        <pt x="329" y="-215" on="1"/>
        <pt x="258" y="-215" on="0"/>
        <pt x="219" y="-180" on="1"/>
        <pt x="249" y="-125" on="1"/>
        <pt x="262" y="-138" on="0"/>
        <pt x="298" y="-155" on="0"/>
        <pt x="318" y="-155" on="1"/>
        <pt x="342" y="-155" on="0"/>
        <pt x="375" y="-123" on="0"/>
        <pt x="375" y="-97" on="1"/>
        <pt x="375" y="-68" on="0"/>
        <pt x="342" y="-28" on="0"/>
        <pt x="296" y="-6" on="1"/>
        <pt x="188" y="5" on="0"/>
        <pt x="60" y="157" on="0"/>
        <pt x="60" y="280" on="1"/>
        <pt x="60" y="368" on="0"/>
        <pt x="128" y="498" on="0"/>
        <pt x="251" y="568" on="0"/>
        <pt x="334" y="568" on="1"/>
        <pt x="424" y="568" on="0"/>
        <pt x="545" y="491" on="0"/>
        <pt x="568" y="416" on="1"/>
        <pt x="492" y="382" on="1"/>
        <pt x="477" y="443" on="0"/>
        <pt x="401" y="499" on="0"/>
        <pt x="332" y="499" on="1"/>
        <pt x="245" y="499" on="0"/>
        <pt x="140" y="382" on="0"/>
        <pt x="140" y="280" on="1"/>
        <pt x="140" y="213" on="0"/>
        <pt x="188" y="113" on="0"/>
        <pt x="274" y="61" on="0"/>
        <pt x="328" y="61" on="1"/>
        <pt x="405" y="61" on="0"/>
        <pt x="490" y="118" on="0"/>
        <pt x="501" y="177" on="1"/>
        <pt x="578" y="151" on="1"/>
      </contour>
    </TTGlyph>
    <TTGlyph name="cedilla" xMin="146" yMin="-215" xMax="372" yMax="29">
      <contour>
        <pt x="247" y="29" on="1"/>
        <pt x="307" y="11" on="0"/>
        <pt x="372" y="-65" on="0"/>
        <pt x="372" y="-108" on="1"/>
        <pt x="372" y="-152" on="0"/>
        <pt x="309" y="-215" on="0"/>
        <pt x="256" y="-215" on="1"/>
        <pt x="185" y="-215" on="0"/>
        <pt x="146" y="-180" on="1"/>
        <pt x="176" y="-125" on="1"/>
        <pt x="189" y="-138" on="0"/>
        <pt x="225" y="-155" on="0"/>
        <pt x="245" y="-155" on="1"/>
        <pt x="269" y="-155" on="0"/>
        <pt x="302" y="-123" on="0"/>
        <pt x="302" y="-97" on="1"/>
        <pt x="302" y="-65" on="0"/>
        <pt x="261" y="-23" on="0"/>
        <pt x="203" y="3" on="1"/>
      </contour>
    </TTGlyph>
    <TTGlyph name="cent" xMin="68" yMin="-100" xMax="520" yMax="600">
      <contour>
        <pt x="498" y="74" on="0"/>
        <pt x="404" y="-2" on="0"/>
        <pt x="337" y="-9" on="1"/>
        <pt x="337" y="-100" on="1"/>
        <pt x="270" y="-100" on="1"/>
        <pt x="270" y="-8" on="1"/>
        <pt x="174" y="5" on="0"/>
        <pt x="68" y="140" on="0"/>
        <pt x="68" y="250" on="1"/>
        <pt x="68" y="360" on="0"/>
        <pt x="174" y="495" on="0"/>
        <pt x="270" y="508" on="1"/>
        <pt x="270" y="600" on="1"/>
        <pt x="337" y="600" on="1"/>
        <pt x="337" y="509" on="1"/>
        <pt x="464" y="497" on="0"/>
        <pt x="515" y="377" on="1"/>
        <pt x="439" y="341" on="1"/>
        <pt x="411" y="428" on="0"/>
        <pt x="337" y="442" on="1"/>
        <pt x="337" y="57" on="1"/>
        <pt x="422" y="70" on="0"/>
        <pt x="448" y="163" on="1"/>
        <pt x="520" y="138" on="1"/>
      </contour>
      <contour>
        <pt x="143" y="169" on="0"/>
        <pt x="209" y="70" on="0"/>
        <pt x="270" y="58" on="1"/>
        <pt x="270" y="442" on="1"/>
        <pt x="209" y="430" on="0"/>
        <pt x="143" y="331" on="0"/>
        <pt x="143" y="250" on="1"/>
      </contour>
    </TTGlyph>
    <TTGlyph name="cent.tf" xMin="70" yMin="-100" xMax="522" yMax="600">
      <component glyphName="cent" x="2" y="0" flags="0x0"/>
    </TTGlyph>
    <TTGlyph name="circle" xMin="40" yMin="-10" xMax="560" yMax="510">
      <contour>
        <pt x="227" y="-10" on="0"/>
        <pt x="108" y="58" on="0"/>
        <pt x="40" y="177" on="0"/>
        <pt x="40" y="250" on="1"/>
        <pt x="40" y="323" on="0"/>
        <pt x="108" y="442" on="0"/>
        <pt x="227" y="510" on="0"/>
        <pt x="300" y="510" on="1"/>
        <pt x="373" y="510" on="0"/>
        <pt x="492" y="442" on="0"/>
        <pt x="560" y="323" on="0"/>
        <pt x="560" y="250" on="1"/>
        <pt x="560" y="177" on="0"/>
        <pt x="492" y="58" on="0"/>
        <pt x="373" y="-10" on="0"/>
        <pt x="300" y="-10" on="1"/>
      </contour>
      <contour>
        <pt x="351" y="65" on="0"/>
        <pt x="433" y="114" on="0"/>
        <pt x="480" y="198" on="0"/>
        <pt x="480" y="250" on="1"/>
        <pt x="480" y="302" on="0"/>
        <pt x="433" y="386" on="0"/>
        <pt x="351" y="435" on="0"/>
        <pt x="300" y="435" on="1"/>
        <pt x="249" y="435" on="0"/>
        <pt x="167" y="386" on="0"/>
        <pt x="120" y="302" on="0"/>
        <pt x="120" y="250" on="1"/>
        <pt x="120" y="198" on="0"/>
        <pt x="167" y="114" on="0"/>
        <pt x="249" y="65" on="0"/>
        <pt x="300" y="65" on="1"/>
      </contour>
    </TTGlyph>
    <TTGlyph name="circle.case" xMin="50" yMin="-10" xMax="730" yMax="670">
      <contour>
        <pt x="294" y="-10" on="0"/>
        <pt x="139" y="79" on="0"/>
        <pt x="50" y="234" on="0"/>
        <pt x="50" y="330" on="1"/>
        <pt x="50" y="426" on="0"/>
        <pt x="139" y="581" on="0"/>
        <pt x="294" y="670" on="0"/>
        <pt x="390" y="670" on="1"/>
        <pt x="486" y="670" on="0"/>
        <pt x="641" y="581" on="0"/>
        <pt x="730" y="426" on="0"/>
        <pt x="730" y="330" on="1"/>
        <pt x="730" y="234" on="0"/>
        <pt x="641" y="79" on="0"/>
        <pt x="486" y="-10" on="0"/>
        <pt x="390" y="-10" on="1"/>
      </contour>
      <contour>
        <pt x="464" y="65" on="0"/>
        <pt x="583" y="134" on="0"/>
        <pt x="650" y="255" on="0"/>
        <pt x="650" y="330" on="1"/>
        <pt x="650" y="405" on="0"/>
        <pt x="583" y="526" on="0"/>
        <pt x="464" y="595" on="0"/>
        <pt x="390" y="595" on="1"/>
        <pt x="316" y="595" on="0"/>
        <pt x="197" y="526" on="0"/>
        <pt x="130" y="405" on="0"/>
        <pt x="130" y="330" on="1"/>
        <pt x="130" y="255" on="0"/>
        <pt x="197" y="134" on="0"/>
        <pt x="316" y="65" on="0"/>
        <pt x="390" y="65" on="1"/>
      </contour>
    </TTGlyph>
    <TTGlyph name="circumflex" xMin="91" yMin="576" xMax="409" yMax="743">
      <contour>
        <pt x="336" y="576" on="1"/>
        <pt x="250" y="691" on="1"/>
        <pt x="164" y="576" on="1"/>
        <pt x="91" y="576" on="1"/>
        <pt x="205" y="743" on="1"/>
        <pt x="295" y="743" on="1"/>
        <pt x="409" y="576" on="1"/>
      </contour>
    </TTGlyph>
    <TTGlyph name="colon" xMin="83" yMin="-10" xMax="213" yMax="510">
      <component glyphName="period" x="15" y="390" flags="0x4"/>
      <component glyphName="period" x="15" y="0" flags="0x0"/>
    </TTGlyph>
    <TTGlyph name="colon.tf" xMin="86" yMin="-10" xMax="216" yMax="510">
      <component glyphName="period" x="18" y="390" flags="0x4"/>
      <component glyphName="period" x="18" y="0" flags="0x0"/>
    </TTGlyph>
    <TTGlyph name="coloninferior" xMin="48" yMin="-195" xMax="138" yMax="148">
      <component glyphName="periodsuperior" x="0" y="-522" flags="0x4"/>
      <component glyphName="periodsuperior" x="0" y="-269" flags="0x4"/>
    </TTGlyph>
    <TTGlyph name="colonsuperior" xMin="48" yMin="327" xMax="138" yMax="670">
      <component glyphName="periodsuperior" x="0" y="0" flags="0x0"/>
      <component glyphName="periodsuperior" x="0" y="253" flags="0x4"/>
    </TTGlyph>
    <TTGlyph name="comma" xMin="57" yMin="-146" xMax="208" yMax="120">
      <contour>
        <pt x="168" y="120" on="0"/>
        <pt x="208" y="66" on="0"/>
        <pt x="208" y="23" on="1"/>
        <pt x="208" y="-30" on="0"/>
        <pt x="154" y="-120" on="0"/>
        <pt x="99" y="-146" on="1"/>
        <pt x="57" y="-107" on="1"/>
        <pt x="96" y="-94" on="0"/>
        <pt x="148" y="-38" on="0"/>
        <pt x="155" y="-5" on="1"/>
        <pt x="151" y="-3" on="1"/>
        <pt x="142" y="-10" on="0"/>
        <pt x="123" y="-10" on="1"/>
        <pt x="102" y="-10" on="0"/>
        <pt x="68" y="23" on="0"/>
        <pt x="68" y="53" on="1"/>
        <pt x="68" y="80" on="0"/>
        <pt x="106" y="120" on="0"/>
        <pt x="133" y="120" on="1"/>
      </contour>
    </TTGlyph>
    <TTGlyph name="comma.tf" xMin="76" yMin="-146" xMax="227" yMax="120">
      <component glyphName="comma" x="19" y="0" flags="0x0"/>
    </TTGlyph>
    <TTGlyph name="commainferior" xMin="42" yMin="-290" xMax="147" yMax="-105">
      <component glyphName="commasuperior" x="0" y="-522" flags="0x4"/>
    </TTGlyph>
    <TTGlyph name="commasuperior" xMin="42" yMin="232" xMax="147" yMax="417">
      <contour>
        <pt x="118" y="417" on="0"/>
        <pt x="147" y="380" on="0"/>
        <pt x="147" y="350" on="1"/>
        <pt x="147" y="313" on="0"/>
        <pt x="109" y="250" on="0"/>
        <pt x="71" y="232" on="1"/>
        <pt x="42" y="259" on="1"/>
        <pt x="68" y="269" on="0"/>
        <pt x="106" y="311" on="0"/>
        <pt x="106" y="330" on="1"/>
        <pt x="103" y="331" on="1"/>
        <pt x="99" y="327" on="0"/>
        <pt x="90" y="327" on="1"/>
        <pt x="74" y="327" on="0"/>
        <pt x="48" y="352" on="0"/>
        <pt x="48" y="373" on="1"/>
        <pt x="48" y="393" on="0"/>
        <pt x="73" y="417" on="0"/>
        <pt x="94" y="417" on="1"/>
      </contour>
    </TTGlyph>
    <TTGlyph name="copyright" xMin="68" yMin="-10" xMax="752" yMax="670">
      <contour>
        <pt x="513" y="670" on="0"/>
        <pt x="668" y="586" on="0"/>
        <pt x="752" y="432" on="0"/>
        <pt x="752" y="330" on="1"/>
        <pt x="752" y="228" on="0"/>
        <pt x="668" y="74" on="0"/>
        <pt x="513" y="-10" on="0"/>
        <pt x="410" y="-10" on="1"/>
        <pt x="307" y="-10" on="0"/>
        <pt x="152" y="74" on="0"/>
        <pt x="68" y="228" on="0"/>
        <pt x="68" y="330" on="1"/>
        <pt x="68" y="432" on="0"/>
        <pt x="152" y="586" on="0"/>
        <pt x="307" y="670" on="0"/>
        <pt x="410" y="670" on="1"/>
      </contour>
      <contour>
        <pt x="328" y="605" on="0"/>
        <pt x="206" y="537" on="0"/>
        <pt x="139" y="413" on="0"/>
        <pt x="139" y="330" on="1"/>
        <pt x="139" y="247" on="0"/>
        <pt x="206" y="123" on="0"/>
        <pt x="328" y="55" on="0"/>
        <pt x="410" y="55" on="1"/>
        <pt x="492" y="55" on="0"/>
        <pt x="614" y="123" on="0"/>
        <pt x="681" y="247" on="0"/>
        <pt x="681" y="330" on="1"/>
        <pt x="681" y="413" on="0"/>
        <pt x="614" y="537" on="0"/>
        <pt x="492" y="605" on="0"/>
        <pt x="410" y="605" on="1"/>
      </contour>
      <contour>
        <pt x="475" y="513" on="0"/>
        <pt x="553" y="464" on="0"/>
        <pt x="573" y="418" on="1"/>
        <pt x="515" y="389" on="1"/>
        <pt x="490" y="453" on="0"/>
        <pt x="416" y="453" on="1"/>
        <pt x="363" y="453" on="0"/>
        <pt x="302" y="387" on="0"/>
        <pt x="302" y="328" on="1"/>
        <pt x="302" y="269" on="0"/>
        <pt x="363" y="203" on="0"/>
        <pt x="416" y="203" on="1"/>
        <pt x="497" y="203" on="0"/>
        <pt x="522" y="270" on="1"/>
        <pt x="577" y="248" on="1"/>
        <pt x="558" y="198" on="0"/>
        <pt x="476" y="143" on="0"/>
        <pt x="417" y="143" on="1"/>
        <pt x="332" y="143" on="0"/>
        <pt x="235" y="242" on="0"/>
        <pt x="235" y="328" on="1"/>
        <pt x="235" y="414" on="0"/>
        <pt x="332" y="513" on="0"/>
        <pt x="417" y="513" on="1"/>
      </contour>
    </TTGlyph>
    <TTGlyph name="currency" xMin="70" yMin="66" xMax="595" yMax="591">
      <contour>
        <pt x="543" y="259" on="0"/>
        <pt x="506" y="204" on="1"/>
        <pt x="595" y="117" on="1"/>
        <pt x="544" y="66" on="1"/>
        <pt x="454" y="153" on="1"/>
        <pt x="401" y="118" on="0"/>
        <pt x="333" y="118" on="1"/>
        <pt x="263" y="118" on="0"/>
        <pt x="208" y="156" on="1"/>
        <pt x="121" y="66" on="1"/>
        <pt x="70" y="117" on="1"/>
        <pt x="158" y="207" on="1"/>
        <pt x="122" y="259" on="0"/>
        <pt x="122" y="329" on="1"/>
        <pt x="122" y="398" on="0"/>
        <pt x="159" y="453" on="1"/>
        <pt x="70" y="540" on="1"/>
        <pt x="121" y="591" on="1"/>
        <pt x="210" y="503" on="1"/>
        <pt x="263" y="539" on="0"/>
        <pt x="333" y="539" on="1"/>
        <pt x="405" y="539" on="0"/>
        <pt x="457" y="502" on="1"/>
        <pt x="544" y="591" on="1"/>
        <pt x="595" y="540" on="1"/>
        <pt x="508" y="451" on="1"/>
        <pt x="543" y="397" on="0"/>
        <pt x="543" y="329" on="1"/>
      </contour>
      <contour>
        <pt x="389" y="190" on="0"/>
        <pt x="463" y="268" on="0"/>
        <pt x="463" y="329" on="1"/>
        <pt x="463" y="389" on="0"/>
        <pt x="389" y="467" on="0"/>
        <pt x="333" y="467" on="1"/>
        <pt x="276" y="467" on="0"/>
        <pt x="202" y="389" on="0"/>
        <pt x="202" y="329" on="1"/>
        <pt x="202" y="268" on="0"/>
        <pt x="276" y="190" on="0"/>
        <pt x="333" y="190" on="1"/>
      </contour>
    </TTGlyph>
    <TTGlyph name="currency.tf" xMin="39" yMin="66" xMax="564" yMax="591">
      <component glyphName="currency" x="-31" y="0" flags="0x0"/>
    </TTGlyph>
    <TTGlyph name="d" xMin="63" yMin="-10" xMax="537" yMax="730">
      <contour>
        <pt x="537" y="730" on="1"/>
        <pt x="537" y="0" on="1"/>
        <pt x="467" y="0" on="1"/>
        <pt x="462" y="87" on="1"/>
        <pt x="440" y="43" on="0"/>
        <pt x="349" y="-10" on="0"/>
        <pt x="291" y="-10" on="1"/>
        <pt x="186" y="-10" on="0"/>
        <pt x="63" y="129" on="0"/>
        <pt x="63" y="250" on="1"/>
        <pt x="63" y="371" on="0"/>
        <pt x="186" y="510" on="0"/>
        <pt x="291" y="510" on="1"/>
        <pt x="346" y="510" on="0"/>
        <pt x="433" y="462" on="0"/>
        <pt x="457" y="422" on="1"/>
        <pt x="457" y="730" on="1"/>
      </contour>
      <contour>
        <pt x="372" y="60" on="0"/>
        <pt x="457" y="160" on="0"/>
        <pt x="457" y="244" on="1"/>
        <pt x="457" y="256" on="1"/>
        <pt x="457" y="340" on="0"/>
        <pt x="372" y="440" on="0"/>
        <pt x="300" y="440" on="1"/>
        <pt x="227" y="440" on="0"/>
        <pt x="143" y="337" on="0"/>
        <pt x="143" y="250" on="1"/>
        <pt x="143" y="163" on="0"/>
        <pt x="227" y="60" on="0"/>
        <pt x="300" y="60" on="1"/>
      </contour>
    </TTGlyph>
    <TTGlyph name="d.sc" xMin="94" yMin="0" xMax="588" yMax="560">
      <contour>
        <pt x="434" y="560" on="0"/>
        <pt x="588" y="415" on="0"/>
        <pt x="588" y="281" on="1"/>
        <pt x="588" y="146" on="0"/>
        <pt x="434" y="0" on="0"/>
        <pt x="294" y="0" on="1"/>
        <pt x="94" y="0" on="1"/>
        <pt x="94" y="560" on="1"/>
        <pt x="294" y="560" on="1"/>
      </contour>
      <contour>
        <pt x="400" y="69" on="0"/>
        <pt x="508" y="180" on="0"/>
        <pt x="508" y="281" on="1"/>
        <pt x="508" y="382" on="0"/>
        <pt x="400" y="491" on="0"/>
        <pt x="300" y="491" on="1"/>
        <pt x="174" y="491" on="1"/>
        <pt x="174" y="69" on="1"/>
        <pt x="300" y="69" on="1"/>
      </contour>
    </TTGlyph>
    <TTGlyph name="dagger" xMin="39" yMin="-100" xMax="474" yMax="660">
      <contour>
        <pt x="474" y="381" on="1"/>
        <pt x="297" y="381" on="1"/>
        <pt x="297" y="-100" on="1"/>
        <pt x="217" y="-100" on="1"/>
        <pt x="217" y="381" on="1"/>
        <pt x="39" y="381" on="1"/>
        <pt x="39" y="450" on="1"/>
        <pt x="217" y="450" on="1"/>
        <pt x="217" y="660" on="1"/>
        <pt x="297" y="660" on="1"/>
        <pt x="297" y="450" on="1"/>
        <pt x="474" y="450" on="1"/>
      </contour>
    </TTGlyph>
    <TTGlyph name="daggerdbl" xMin="39" yMin="-100" xMax="474" yMax="660">
      <contour>
        <pt x="297" y="381" on="1"/>
        <pt x="297" y="179" on="1"/>
        <pt x="474" y="179" on="1"/>
        <pt x="474" y="110" on="1"/>
        <pt x="297" y="110" on="1"/>
        <pt x="297" y="-100" on="1"/>
        <pt x="217" y="-100" on="1"/>
        <pt x="217" y="110" on="1"/>
        <pt x="39" y="110" on="1"/>
        <pt x="39" y="179" on="1"/>
        <pt x="217" y="179" on="1"/>
        <pt x="217" y="381" on="1"/>
        <pt x="39" y="381" on="1"/>
        <pt x="39" y="450" on="1"/>
        <pt x="217" y="450" on="1"/>
        <pt x="217" y="660" on="1"/>
        <pt x="297" y="660" on="1"/>
        <pt x="297" y="450" on="1"/>
        <pt x="474" y="450" on="1"/>
        <pt x="474" y="381" on="1"/>
      </contour>
    </TTGlyph>
    <TTGlyph name="daggerdblsuperior" xMin="29" yMin="244" xMax="385" yMax="730">
      <contour>
        <pt x="241" y="536" on="1"/>
        <pt x="241" y="438" on="1"/>
        <pt x="385" y="438" on="1"/>
        <pt x="385" y="379" on="1"/>
        <pt x="241" y="379" on="1"/>
        <pt x="241" y="244" on="1"/>
        <pt x="173" y="244" on="1"/>
        <pt x="173" y="379" on="1"/>
        <pt x="29" y="379" on="1"/>
        <pt x="29" y="438" on="1"/>
        <pt x="173" y="438" on="1"/>
        <pt x="173" y="536" on="1"/>
        <pt x="29" y="536" on="1"/>
        <pt x="29" y="595" on="1"/>
        <pt x="173" y="595" on="1"/>
        <pt x="173" y="730" on="1"/>
        <pt x="241" y="730" on="1"/>
        <pt x="241" y="595" on="1"/>
        <pt x="385" y="595" on="1"/>
        <pt x="385" y="536" on="1"/>
      </contour>
    </TTGlyph>
    <TTGlyph name="daggersuperior" xMin="29" yMin="244" xMax="385" yMax="730">
      <contour>
        <pt x="385" y="536" on="1"/>
        <pt x="241" y="536" on="1"/>
        <pt x="241" y="244" on="1"/>
        <pt x="173" y="244" on="1"/>
        <pt x="173" y="536" on="1"/>
        <pt x="29" y="536" on="1"/>
        <pt x="29" y="595" on="1"/>
        <pt x="173" y="595" on="1"/>
        <pt x="173" y="730" on="1"/>
        <pt x="241" y="730" on="1"/>
        <pt x="241" y="595" on="1"/>
        <pt x="385" y="595" on="1"/>
      </contour>
    </TTGlyph>
    <TTGlyph name="dcaron" xMin="63" yMin="-10" xMax="689" yMax="730">
      <contour>
        <pt x="457" y="730" on="1"/>
        <pt x="537" y="730" on="1"/>
        <pt x="537" y="0" on="1"/>
        <pt x="467" y="0" on="1"/>
        <pt x="462" y="87" on="1"/>
        <pt x="440" y="43" on="0"/>
        <pt x="349" y="-10" on="0"/>
        <pt x="291" y="-10" on="1"/>
        <pt x="186" y="-10" on="0"/>
        <pt x="63" y="129" on="0"/>
        <pt x="63" y="250" on="1"/>
        <pt x="63" y="371" on="0"/>
        <pt x="186" y="510" on="0"/>
        <pt x="291" y="510" on="1"/>
        <pt x="346" y="510" on="0"/>
        <pt x="433" y="462" on="0"/>
        <pt x="457" y="422" on="1"/>
      </contour>
      <contour>
        <pt x="689" y="730" on="1"/>
        <pt x="648" y="533" on="1"/>
        <pt x="593" y="533" on="1"/>
        <pt x="613" y="730" on="1"/>
      </contour>
      <contour>
        <pt x="372" y="60" on="0"/>
        <pt x="457" y="160" on="0"/>
        <pt x="457" y="244" on="1"/>
        <pt x="457" y="256" on="1"/>
        <pt x="457" y="340" on="0"/>
        <pt x="372" y="440" on="0"/>
        <pt x="300" y="440" on="1"/>
        <pt x="227" y="440" on="0"/>
        <pt x="143" y="337" on="0"/>
        <pt x="143" y="250" on="1"/>
        <pt x="143" y="163" on="0"/>
        <pt x="227" y="60" on="0"/>
        <pt x="300" y="60" on="1"/>
      </contour>
    </TTGlyph>
    <TTGlyph name="dcaron.sc" xMin="94" yMin="0" xMax="588" yMax="802">
      <component glyphName="d.sc" x="0" y="0" flags="0x0"/>
      <component glyphName="uni030C.cap" x="293" y="-100" flags="0x4"/>
    </TTGlyph>
    <TTGlyph name="dcroat" xMin="63" yMin="-10" xMax="614" yMax="730">
      <contour>
        <pt x="614" y="566" on="1"/>
        <pt x="537" y="566" on="1"/>
        <pt x="537" y="0" on="1"/>
        <pt x="467" y="0" on="1"/>
        <pt x="462" y="87" on="1"/>
        <pt x="440" y="43" on="0"/>
        <pt x="349" y="-10" on="0"/>
        <pt x="291" y="-10" on="1"/>
        <pt x="186" y="-10" on="0"/>
        <pt x="63" y="129" on="0"/>
        <pt x="63" y="250" on="1"/>
        <pt x="63" y="371" on="0"/>
        <pt x="186" y="510" on="0"/>
        <pt x="291" y="510" on="1"/>
        <pt x="346" y="510" on="0"/>
        <pt x="433" y="462" on="0"/>
        <pt x="457" y="422" on="1"/>
        <pt x="457" y="566" on="1"/>
        <pt x="300" y="566" on="1"/>
        <pt x="300" y="627" on="1"/>
        <pt x="457" y="627" on="1"/>
        <pt x="457" y="730" on="1"/>
        <pt x="537" y="730" on="1"/>
        <pt x="537" y="627" on="1"/>
        <pt x="614" y="627" on="1"/>
      </contour>
      <contour>
        <pt x="372" y="60" on="0"/>
        <pt x="457" y="160" on="0"/>
        <pt x="457" y="244" on="1"/>
        <pt x="457" y="256" on="1"/>
        <pt x="457" y="340" on="0"/>
        <pt x="372" y="440" on="0"/>
        <pt x="300" y="440" on="1"/>
        <pt x="227" y="440" on="0"/>
        <pt x="143" y="337" on="0"/>
        <pt x="143" y="250" on="1"/>
        <pt x="143" y="163" on="0"/>
        <pt x="227" y="60" on="0"/>
        <pt x="300" y="60" on="1"/>
      </contour>
    </TTGlyph>
    <TTGlyph name="dcroat.sc" xMin="24" yMin="0" xMax="607" yMax="560">
      <contour>
        <pt x="453" y="560" on="0"/>
        <pt x="607" y="415" on="0"/>
        <pt x="607" y="281" on="1"/>
        <pt x="607" y="146" on="0"/>
        <pt x="453" y="0" on="0"/>
        <pt x="313" y="0" on="1"/>
        <pt x="113" y="0" on="1"/>
        <pt x="113" y="253" on="1"/>
        <pt x="24" y="253" on="1"/>
        <pt x="24" y="311" on="1"/>
        <pt x="113" y="311" on="1"/>
        <pt x="113" y="560" on="1"/>
        <pt x="313" y="560" on="1"/>
      </contour>
      <contour>
        <pt x="419" y="69" on="0"/>
        <pt x="527" y="180" on="0"/>
        <pt x="527" y="281" on="1"/>
        <pt x="527" y="382" on="0"/>
        <pt x="419" y="491" on="0"/>
        <pt x="319" y="491" on="1"/>
        <pt x="193" y="491" on="1"/>
        <pt x="193" y="311" on="1"/>
        <pt x="356" y="311" on="1"/>
        <pt x="356" y="253" on="1"/>
        <pt x="193" y="253" on="1"/>
        <pt x="193" y="69" on="1"/>
        <pt x="319" y="69" on="1"/>
      </contour>
    </TTGlyph>
    <TTGlyph name="degree" xMin="60" yMin="340" xMax="400" yMax="670">
      <contour>
        <pt x="181" y="340" on="0"/>
        <pt x="104" y="382" on="0"/>
        <pt x="60" y="458" on="0"/>
        <pt x="60" y="505" on="1"/>
        <pt x="60" y="552" on="0"/>
        <pt x="104" y="628" on="0"/>
        <pt x="181" y="670" on="0"/>
        <pt x="230" y="670" on="1"/>
        <pt x="279" y="670" on="0"/>
        <pt x="356" y="628" on="0"/>
        <pt x="400" y="552" on="0"/>
        <pt x="400" y="505" on="1"/>
        <pt x="400" y="458" on="0"/>
        <pt x="356" y="382" on="0"/>
        <pt x="279" y="340" on="0"/>
        <pt x="230" y="340" on="1"/>
      </contour>
      <contour>
        <pt x="274" y="405" on="0"/>
        <pt x="330" y="462" on="0"/>
        <pt x="330" y="505" on="1"/>
        <pt x="330" y="549" on="0"/>
        <pt x="274" y="605" on="0"/>
        <pt x="230" y="605" on="1"/>
        <pt x="187" y="605" on="0"/>
        <pt x="130" y="549" on="0"/>
        <pt x="130" y="505" on="1"/>
        <pt x="130" y="462" on="0"/>
        <pt x="187" y="405" on="0"/>
        <pt x="230" y="405" on="1"/>
      </contour>
    </TTGlyph>
    <TTGlyph name="dieresis" xMin="99" yMin="582" xMax="407" yMax="696">
      <contour>
        <pt x="182" y="696" on="0"/>
        <pt x="213" y="665" on="0"/>
        <pt x="213" y="639" on="1"/>
        <pt x="213" y="614" on="0"/>
        <pt x="182" y="582" on="0"/>
        <pt x="156" y="582" on="1"/>
        <pt x="131" y="582" on="0"/>
        <pt x="99" y="614" on="0"/>
        <pt x="99" y="639" on="1"/>
        <pt x="99" y="665" on="0"/>
        <pt x="131" y="696" on="0"/>
        <pt x="156" y="696" on="1"/>
      </contour>
      <contour>
        <pt x="376" y="696" on="0"/>
        <pt x="407" y="665" on="0"/>
        <pt x="407" y="639" on="1"/>
        <pt x="407" y="614" on="0"/>
        <pt x="376" y="582" on="0"/>
        <pt x="350" y="582" on="1"/>
        <pt x="325" y="582" on="0"/>
        <pt x="293" y="614" on="0"/>
        <pt x="293" y="639" on="1"/>
        <pt x="293" y="665" on="0"/>
        <pt x="325" y="696" on="0"/>
        <pt x="350" y="696" on="1"/>
      </contour>
    </TTGlyph>
    <TTGlyph name="divide" xMin="59" yMin="55" xMax="545" yMax="576">
      <contour>
        <pt x="331" y="576" on="0"/>
        <pt x="367" y="540" on="0"/>
        <pt x="367" y="511" on="1"/>
        <pt x="367" y="482" on="0"/>
        <pt x="331" y="446" on="0"/>
        <pt x="302" y="446" on="1"/>
        <pt x="273" y="446" on="0"/>
        <pt x="237" y="482" on="0"/>
        <pt x="237" y="511" on="1"/>
        <pt x="237" y="540" on="0"/>
        <pt x="273" y="576" on="0"/>
        <pt x="302" y="576" on="1"/>
      </contour>
      <contour>
        <pt x="545" y="279" on="1"/>
        <pt x="59" y="279" on="1"/>
        <pt x="59" y="354" on="1"/>
        <pt x="545" y="354" on="1"/>
      </contour>
      <contour>
        <pt x="331" y="185" on="0"/>
        <pt x="367" y="149" on="0"/>
        <pt x="367" y="120" on="1"/>
        <pt x="367" y="91" on="0"/>
        <pt x="331" y="55" on="0"/>
        <pt x="302" y="55" on="1"/>
        <pt x="273" y="55" on="0"/>
        <pt x="237" y="91" on="0"/>
        <pt x="237" y="120" on="1"/>
        <pt x="237" y="149" on="0"/>
        <pt x="273" y="185" on="0"/>
        <pt x="302" y="185" on="1"/>
      </contour>
    </TTGlyph>
    <TTGlyph name="dollar" xMin="47" yMin="-100" xMax="555" yMax="760">
      <contour>
        <pt x="279" y="1" on="1"/>
        <pt x="192" y="9" on="0"/>
        <pt x="73" y="95" on="0"/>
        <pt x="47" y="171" on="1"/>
        <pt x="121" y="209" on="1"/>
        <pt x="132" y="155" on="0"/>
        <pt x="220" y="80" on="0"/>
        <pt x="279" y="69" on="1"/>
        <pt x="279" y="301" on="1"/>
        <pt x="214" y="315" on="0"/>
        <pt x="129" y="348" on="0"/>
        <pt x="73" y="414" on="0"/>
        <pt x="73" y="469" on="1"/>
        <pt x="73" y="519" on="0"/>
        <pt x="123" y="601" on="0"/>
        <pt x="216" y="654" on="0"/>
        <pt x="279" y="659" on="1"/>
        <pt x="279" y="760" on="1"/>
        <pt x="348" y="760" on="1"/>
        <pt x="348" y="658" on="1"/>
        <pt x="422" y="652" on="0"/>
        <pt x="519" y="585" on="0"/>
        <pt x="554" y="520" on="1"/>
        <pt x="489" y="469" on="1"/>
        <pt x="464" y="527" on="0"/>
        <pt x="400" y="583" on="0"/>
        <pt x="348" y="590" on="1"/>
        <pt x="348" y="355" on="1"/>
        <pt x="413" y="341" on="0"/>
        <pt x="498" y="308" on="0"/>
        <pt x="555" y="240" on="0"/>
        <pt x="555" y="183" on="1"/>
        <pt x="555" y="106" on="0"/>
        <pt x="443" y="9" on="0"/>
        <pt x="348" y="1" on="1"/>
        <pt x="348" y="-100" on="1"/>
        <pt x="279" y="-100" on="1"/>
      </contour>
      <contour>
        <pt x="279" y="591" on="1"/>
        <pt x="215" y="585" on="0"/>
        <pt x="149" y="525" on="0"/>
        <pt x="149" y="475" on="1"/>
        <pt x="149" y="430" on="0"/>
        <pt x="216" y="384" on="0"/>
        <pt x="279" y="369" on="1"/>
      </contour>
      <contour>
        <pt x="480" y="78" on="0"/>
        <pt x="480" y="177" on="1"/>
        <pt x="480" y="223" on="0"/>
        <pt x="411" y="271" on="0"/>
        <pt x="348" y="286" on="1"/>
        <pt x="348" y="67" on="1"/>
      </contour>
    </TTGlyph>
    <TTGlyph name="dollar.tf" xMin="48" yMin="-100" xMax="556" yMax="760">
      <contour>
        <pt x="556" y="106" on="0"/>
        <pt x="444" y="9" on="0"/>
        <pt x="349" y="1" on="1"/>
        <pt x="349" y="-100" on="1"/>
        <pt x="280" y="-100" on="1"/>
        <pt x="280" y="1" on="1"/>
        <pt x="193" y="9" on="0"/>
        <pt x="74" y="95" on="0"/>
        <pt x="48" y="171" on="1"/>
        <pt x="122" y="209" on="1"/>
        <pt x="133" y="155" on="0"/>
        <pt x="221" y="80" on="0"/>
        <pt x="280" y="69" on="1"/>
        <pt x="280" y="301" on="1"/>
        <pt x="215" y="315" on="0"/>
        <pt x="130" y="348" on="0"/>
        <pt x="74" y="414" on="0"/>
        <pt x="74" y="469" on="1"/>
        <pt x="74" y="519" on="0"/>
        <pt x="124" y="601" on="0"/>
        <pt x="217" y="654" on="0"/>
        <pt x="280" y="659" on="1"/>
        <pt x="280" y="760" on="1"/>
        <pt x="349" y="760" on="1"/>
        <pt x="349" y="658" on="1"/>
        <pt x="423" y="652" on="0"/>
        <pt x="520" y="585" on="0"/>
        <pt x="555" y="520" on="1"/>
        <pt x="490" y="469" on="1"/>
        <pt x="465" y="527" on="0"/>
        <pt x="401" y="583" on="0"/>
        <pt x="349" y="590" on="1"/>
        <pt x="349" y="355" on="1"/>
        <pt x="414" y="341" on="0"/>
        <pt x="499" y="308" on="0"/>
        <pt x="556" y="240" on="0"/>
        <pt x="556" y="183" on="1"/>
      </contour>
      <contour>
        <pt x="150" y="430" on="0"/>
        <pt x="217" y="384" on="0"/>
        <pt x="280" y="369" on="1"/>
        <pt x="280" y="591" on="1"/>
        <pt x="216" y="585" on="0"/>
        <pt x="150" y="525" on="0"/>
        <pt x="150" y="475" on="1"/>
      </contour>
      <contour>
        <pt x="481" y="78" on="0"/>
        <pt x="481" y="177" on="1"/>
        <pt x="481" y="223" on="0"/>
        <pt x="412" y="271" on="0"/>
        <pt x="349" y="286" on="1"/>
        <pt x="349" y="67" on="1"/>
      </contour>
    </TTGlyph>
    <TTGlyph name="dotaccent" xMin="190" yMin="596" xMax="310" yMax="716">
      <contour>
        <pt x="277" y="716" on="0"/>
        <pt x="310" y="683" on="0"/>
        <pt x="310" y="656" on="1"/>
        <pt x="310" y="629" on="0"/>
        <pt x="277" y="596" on="0"/>
        <pt x="250" y="596" on="1"/>
        <pt x="223" y="596" on="0"/>
        <pt x="190" y="629" on="0"/>
        <pt x="190" y="656" on="1"/>
        <pt x="190" y="683" on="0"/>
        <pt x="223" y="716" on="0"/>
        <pt x="250" y="716" on="1"/>
      </contour>
    </TTGlyph>
    <TTGlyph name="dotlessi" xMin="93" yMin="0" xMax="173" yMax="500">
      <contour>
        <pt x="173" y="0" on="1"/>
        <pt x="93" y="0" on="1"/>
        <pt x="93" y="500" on="1"/>
        <pt x="173" y="500" on="1"/>
      </contour>
    </TTGlyph>
    <TTGlyph name="e" xMin="62" yMin="-10" xMax="522" yMax="510">
      <contour>
        <pt x="522" y="248" on="0"/>
        <pt x="518" y="220" on="1"/>
        <pt x="141" y="220" on="1"/>
        <pt x="148" y="144" on="0"/>
        <pt x="235" y="60" on="0"/>
        <pt x="304" y="60" on="1"/>
        <pt x="359" y="60" on="0"/>
        <pt x="432" y="98" on="0"/>
        <pt x="445" y="134" on="1"/>
        <pt x="512" y="99" on="1"/>
        <pt x="482" y="46" on="0"/>
        <pt x="382" y="-10" on="0"/>
        <pt x="304" y="-10" on="1"/>
        <pt x="191" y="-10" on="0"/>
        <pt x="62" y="128" on="0"/>
        <pt x="62" y="250" on="1"/>
        <pt x="62" y="372" on="0"/>
        <pt x="185" y="510" on="0"/>
        <pt x="298" y="510" on="1"/>
        <pt x="368" y="510" on="0"/>
        <pt x="470" y="448" on="0"/>
        <pt x="522" y="342" on="0"/>
        <pt x="522" y="276" on="1"/>
      </contour>
      <contour>
        <pt x="232" y="440" on="0"/>
        <pt x="151" y="362" on="0"/>
        <pt x="142" y="291" on="1"/>
        <pt x="445" y="291" on="1"/>
        <pt x="437" y="361" on="0"/>
        <pt x="361" y="440" on="0"/>
        <pt x="298" y="440" on="1"/>
      </contour>
    </TTGlyph>
    <TTGlyph name="e.sc" xMin="94" yMin="0" xMax="527" yMax="560">
      <contour>
        <pt x="527" y="69" on="1"/>
        <pt x="527" y="0" on="1"/>
        <pt x="94" y="0" on="1"/>
        <pt x="94" y="560" on="1"/>
        <pt x="514" y="560" on="1"/>
        <pt x="514" y="491" on="1"/>
        <pt x="174" y="491" on="1"/>
        <pt x="174" y="318" on="1"/>
        <pt x="440" y="318" on="1"/>
        <pt x="440" y="249" on="1"/>
        <pt x="174" y="249" on="1"/>
        <pt x="174" y="69" on="1"/>
      </contour>
    </TTGlyph>
    <TTGlyph name="eacute" xMin="62" yMin="-10" xMax="522" yMax="750">
      <component glyphName="e" x="0" y="0" flags="0x0"/>
      <component glyphName="acute" x="38" y="0" flags="0x0"/>
    </TTGlyph>
    <TTGlyph name="eacute.sc" xMin="94" yMin="0" xMax="527" yMax="802">
      <component glyphName="e.sc" x="0" y="0" flags="0x0"/>
      <component glyphName="acutecomb.cap" x="305" y="-100" flags="0x4"/>
    </TTGlyph>
    <TTGlyph name="ecaron" xMin="62" yMin="-10" xMax="522" yMax="750">
      <component glyphName="e" x="0" y="0" flags="0x0"/>
      <component glyphName="caron" x="45" y="0" flags="0x0"/>
    </TTGlyph>
    <TTGlyph name="ecaron.sc" xMin="94" yMin="0" xMax="527" yMax="802">
      <component glyphName="e.sc" x="0" y="0" flags="0x0"/>
      <component glyphName="uni030C.cap" x="298" y="-100" flags="0x4"/>
    </TTGlyph>
    <TTGlyph name="ecircumflex" xMin="62" yMin="-10" xMax="522" yMax="743">
      <component glyphName="e" x="0" y="0" flags="0x0"/>
      <component glyphName="circumflex" x="45" y="0" flags="0x0"/>
    </TTGlyph>
    <TTGlyph name="ecircumflex.sc" xMin="94" yMin="0" xMax="527" yMax="798">
      <component glyphName="e.sc" x="0" y="0" flags="0x0"/>
      <component glyphName="uni0302.cap" x="298" y="-100" flags="0x4"/>
    </TTGlyph>
    <TTGlyph name="edieresis" xMin="62" yMin="-10" xMax="522" yMax="696">
      <component glyphName="e" x="0" y="0" flags="0x0"/>
      <component glyphName="dieresis" x="42" y="0" flags="0x0"/>
    </TTGlyph>
    <TTGlyph name="edieresis.sc" xMin="94" yMin="0" xMax="527" yMax="756">
      <component glyphName="e.sc" x="0" y="0" flags="0x0"/>
      <component glyphName="dieresis" x="45" y="60" flags="0x4"/>
    </TTGlyph>
    <TTGlyph name="edotaccent" xMin="62" yMin="-10" xMax="522" yMax="716">
      <component glyphName="e" x="0" y="0" flags="0x0"/>
      <component glyphName="dotaccent" x="45" y="0" flags="0x0"/>
    </TTGlyph>
    <TTGlyph name="edotaccent.sc" xMin="94" yMin="0" xMax="527" yMax="776">
      <component glyphName="e.sc" x="0" y="0" flags="0x0"/>
      <component glyphName="dotaccent" x="48" y="60" flags="0x4"/>
    </TTGlyph>
    <TTGlyph name="egrave" xMin="62" yMin="-10" xMax="522" yMax="750">
      <component glyphName="e" x="0" y="0" flags="0x0"/>
      <component glyphName="grave" x="45" y="0" flags="0x0"/>
    </TTGlyph>
    <TTGlyph name="egrave.sc" xMin="94" yMin="0" xMax="527" yMax="802">
      <component glyphName="e.sc" x="0" y="0" flags="0x0"/>
      <component glyphName="gravecomb.cap" x="298" y="-100" flags="0x4"/>
    </TTGlyph>
    <TTGlyph name="eight" xMin="68" yMin="-10" xMax="548" yMax="669">
      <contour>
        <pt x="404" y="669" on="0"/>
        <pt x="518" y="576" on="0"/>
        <pt x="518" y="496" on="1"/>
        <pt x="518" y="445" on="0"/>
        <pt x="469" y="368" on="0"/>
        <pt x="425" y="348" on="1"/>
        <pt x="425" y="347" on="1"/>
        <pt x="483" y="325" on="0"/>
        <pt x="548" y="239" on="0"/>
        <pt x="548" y="178" on="1"/>
        <pt x="548" y="121" on="0"/>
        <pt x="489" y="36" on="0"/>
        <pt x="380" y="-10" on="0"/>
        <pt x="308" y="-10" on="1"/>
        <pt x="236" y="-10" on="0"/>
        <pt x="128" y="36" on="0"/>
        <pt x="68" y="121" on="0"/>
        <pt x="68" y="178" on="1"/>
        <pt x="68" y="238" on="0"/>
        <pt x="133" y="326" on="0"/>
        <pt x="192" y="347" on="1"/>
        <pt x="192" y="348" on="1"/>
        <pt x="148" y="367" on="0"/>
        <pt x="98" y="445" on="0"/>
        <pt x="98" y="496" on="1"/>
        <pt x="98" y="576" on="0"/>
        <pt x="212" y="669" on="0"/>
        <pt x="308" y="669" on="1"/>
      </contour>
      <contour>
        <pt x="249" y="594" on="0"/>
        <pt x="181" y="538" on="0"/>
        <pt x="181" y="488" on="1"/>
        <pt x="181" y="440" on="0"/>
        <pt x="251" y="383" on="0"/>
        <pt x="308" y="383" on="1"/>
        <pt x="365" y="383" on="0"/>
        <pt x="435" y="440" on="0"/>
        <pt x="435" y="488" on="1"/>
        <pt x="435" y="538" on="0"/>
        <pt x="367" y="594" on="0"/>
        <pt x="308" y="594" on="1"/>
      </contour>
      <contour>
        <pt x="381" y="65" on="0"/>
        <pt x="465" y="130" on="0"/>
        <pt x="465" y="186" on="1"/>
        <pt x="465" y="243" on="0"/>
        <pt x="380" y="308" on="0"/>
        <pt x="308" y="308" on="1"/>
        <pt x="237" y="308" on="0"/>
        <pt x="151" y="242" on="0"/>
        <pt x="151" y="186" on="1"/>
        <pt x="151" y="130" on="0"/>
        <pt x="236" y="65" on="0"/>
        <pt x="308" y="65" on="1"/>
      </contour>
    </TTGlyph>
    <TTGlyph name="eight.dnom" xMin="34" yMin="-10" xMax="350" yMax="397">
      <component glyphName="uni2078" x="0" y="-337" flags="0x4"/>
    </TTGlyph>
    <TTGlyph name="eight.numr" xMin="34" yMin="262" xMax="350" yMax="669">
      <component glyphName="uni2078" x="0" y="-65" flags="0x4"/>
    </TTGlyph>
    <TTGlyph name="eight.osf" xMin="58" yMin="-10" xMax="532" yMax="669">
      <contour>
        <pt x="389" y="669" on="0"/>
        <pt x="502" y="576" on="0"/>
        <pt x="502" y="496" on="1"/>
        <pt x="502" y="445" on="0"/>
        <pt x="454" y="368" on="0"/>
        <pt x="412" y="348" on="1"/>
        <pt x="412" y="347" on="1"/>
        <pt x="468" y="325" on="0"/>
        <pt x="532" y="239" on="0"/>
        <pt x="532" y="178" on="1"/>
        <pt x="532" y="121" on="0"/>
        <pt x="473" y="36" on="0"/>
        <pt x="366" y="-10" on="0"/>
        <pt x="295" y="-10" on="1"/>
        <pt x="224" y="-10" on="0"/>
        <pt x="117" y="36" on="0"/>
        <pt x="58" y="121" on="0"/>
        <pt x="58" y="178" on="1"/>
        <pt x="58" y="238" on="0"/>
        <pt x="122" y="326" on="0"/>
        <pt x="179" y="347" on="1"/>
        <pt x="179" y="348" on="1"/>
        <pt x="137" y="367" on="0"/>
        <pt x="88" y="445" on="0"/>
        <pt x="88" y="496" on="1"/>
        <pt x="88" y="576" on="0"/>
        <pt x="201" y="669" on="0"/>
        <pt x="295" y="669" on="1"/>
      </contour>
      <contour>
        <pt x="237" y="601" on="0"/>
        <pt x="168" y="542" on="0"/>
        <pt x="168" y="491" on="1"/>
        <pt x="168" y="440" on="0"/>
        <pt x="237" y="381" on="0"/>
        <pt x="295" y="381" on="1"/>
        <pt x="353" y="381" on="0"/>
        <pt x="422" y="440" on="0"/>
        <pt x="422" y="491" on="1"/>
        <pt x="422" y="542" on="0"/>
        <pt x="353" y="601" on="0"/>
        <pt x="295" y="601" on="1"/>
      </contour>
      <contour>
        <pt x="367" y="58" on="0"/>
        <pt x="452" y="126" on="0"/>
        <pt x="452" y="185" on="1"/>
        <pt x="452" y="244" on="0"/>
        <pt x="367" y="312" on="0"/>
        <pt x="295" y="312" on="1"/>
        <pt x="223" y="312" on="0"/>
        <pt x="138" y="244" on="0"/>
        <pt x="138" y="185" on="1"/>
        <pt x="138" y="126" on="0"/>
        <pt x="223" y="58" on="0"/>
        <pt x="295" y="58" on="1"/>
      </contour>
    </TTGlyph>
</ttFont>
